<?xml version="1.0" encoding="UTF-8" standalone="no"?>
<svg
   width="115"
   height="95"
   version="1.1"
   id="svg66"
   sodipodi:docname="Delta Inductor.svg"
   inkscape:version="1.1.1 (1:1.1+202109281943+c3084ef5ed)"
   xmlns:inkscape="http://www.inkscape.org/namespaces/inkscape"
   xmlns:sodipodi="http://sodipodi.sourceforge.net/DTD/sodipodi-0.dtd"
   xmlns="http://www.w3.org/2000/svg"
   xmlns:svg="http://www.w3.org/2000/svg">
  <sodipodi:namedview
     id="namedview68"
     pagecolor="#505050"
     bordercolor="#eeeeee"
     borderopacity="1"
     inkscape:pageshadow="0"
     inkscape:pageopacity="0"
     inkscape:pagecheckerboard="0"
     showgrid="false"
     inkscape:zoom="6.58"
     inkscape:cx="45.668693"
     inkscape:cy="43.693009"
     inkscape:window-width="2560"
     inkscape:window-height="1379"
     inkscape:window-x="0"
     inkscape:window-y="30"
     inkscape:window-maximized="1"
     inkscape:current-layer="svg66"
     inkscape:object-paths="true"
     inkscape:snap-intersection-paths="true"
     inkscape:snap-object-midpoints="true"
     inkscape:snap-center="true"
     width="115px" />
  <defs
     id="defs10">
    <marker
       markerHeight="3"
       markerUnits="strokeWidth"
       markerWidth="4"
       orient="auto"
       refX="0"
       refY="5"
       viewBox="0 0 10 10"
       id="marker4">
      <path
         d="M 0,0 10,5 0,10 Z"
         id="path2" />
    </marker>
    <marker
       markerHeight="3"
       markerUnits="strokeWidth"
       markerWidth="4"
       orient="auto"
       refX="10"
       refY="5"
       viewBox="0 0 10 10"
       id="marker8">
      <path
         d="M 10,0 0,5 10,10 Z"
         id="path6" />
    </marker>
  </defs>
  <path
     style="color:#000000;fill:#fafafa;fill-rule:evenodd;stroke-linecap:round;stroke-linejoin:round;-inkscape-stroke:none"
     d="M 45.505859,0 C 43.172528,0 41.730584,1.3142218 41.111328,2.5527343 40.74515,3.2850912 40.811154,3.5322391 40.753906,4 H 36.005859 11.591797 A 1.0001,1.0001 0 0 0 10.720703,5.4902344 L 22.923828,27.203125 a 1.0001,1.0001 0 0 0 0.0059,0.0098 l 2.75,4.763672 a 1.0001,1.0001 0 0 0 1.367188,0.365234 c 0,0 0.691179,-0.382583 1.541016,-0.433594 0.849836,-0.05101 1.723308,0.08788 2.55664,1.53125 0.833333,1.443375 0.517922,2.269993 0.04883,2.980469 -0.469094,0.710476 -1.146484,1.119141 -1.146484,1.119141 l 1,1.730469 c 0,0 0.691179,-0.382584 1.541016,-0.433594 0.849836,-0.05101 1.723308,0.08983 2.55664,1.533203 0.833333,1.443375 0.517922,2.26804 0.04883,2.978516 -0.469094,0.710475 -1.146484,1.11914 -1.146484,1.11914 a 1.0001607,1.0001607 0 0 0 1,1.732422 c 0,0 0.691179,-0.384537 1.541016,-0.435547 0.849836,-0.05101 1.723307,0.08983 2.55664,1.533203 0.833333,1.443375 0.517923,2.269993 0.04883,2.980469 -0.469094,0.710476 -1.146484,1.117188 -1.146484,1.117188 l 1,1.732421 c 0,0 0.691179,-0.384536 1.541016,-0.435546 0.849837,-0.05101 1.723308,0.08983 2.55664,1.533203 0.833333,1.443374 0.517923,2.269993 0.04883,2.980468 -0.469094,0.710476 -1.146484,1.117188 -1.146484,1.117188 a 1.0001,1.0001 0 0 0 -0.367188,1.367187 l 2.748047,4.757813 12.203125,21.703125 a 1.0001,1.0001 0 0 0 1.742188,0 l 13.167969,-23.441406 2.748046,-4.757813 a 1.0001,1.0001 0 0 0 -0.367187,-1.365234 c 0,0 -0.67739,-0.408665 -1.146484,-1.119141 -0.469095,-0.710475 -0.784505,-1.535142 0.04883,-2.978515 0.833332,-1.443375 1.706803,-1.584213 2.55664,-1.533204 0.849837,0.05101 1.541016,0.433594 1.541016,0.433594 a 1.0001,1.0001 0 0 0 1,-1.730469 c 0,0 -0.67739,-0.408664 -1.146484,-1.11914 -0.469095,-0.710476 -0.784505,-1.537094 0.04883,-2.980469 0.833333,-1.443375 1.706804,-1.58226 2.55664,-1.53125 0.849837,0.05101 1.541016,0.433594 1.541016,0.433594 a 1.0001607,1.0001607 0 0 0 1,-1.732422 c 0,0 -0.67739,-0.406712 -1.146484,-1.117188 -0.469094,-0.710475 -0.784505,-1.537094 0.04883,-2.980468 0.833332,-1.443374 1.706804,-1.584213 2.55664,-1.533203 0.849837,0.05101 1.541016,0.435546 1.541016,0.435546 a 1.0001607,1.0001607 0 0 0 1,-1.732421 c 0,0 -0.67739,-0.406712 -1.146484,-1.117188 -0.469094,-0.710476 -0.784505,-1.537094 0.04883,-2.980469 0.833332,-1.443374 1.706804,-1.584213 2.55664,-1.533203 0.849837,0.05101 1.541016,0.435547 1.541016,0.435547 a 1.0001,1.0001 0 0 0 1.367187,-0.367187 l 2.75,-4.761719 a 1.0001,1.0001 0 0 0 0.0059,-0.0098 L 104.2793,5.4902344 A 1.0001,1.0001 0 0 0 103.4082,4 H 79.005859 74.257812 C 74.200562,3.5322389 74.266612,3.2850914 73.900391,2.5527343 73.281134,1.3142213 71.83919,-5.9999979e-7 69.505859,0 c -2.037346,-4.9999979e-7 -3.276111,1.0326693 -4,2.1113281 C 64.781971,1.0326693 63.543206,0 61.505859,0 c -2.037346,1.0000002e-6 -3.276111,1.0326694 -4,2.1113281 C 56.78197,1.0326698 55.543206,0 53.505859,0 c -2.037346,0 -3.276112,1.0326696 -4,2.1113281 C 48.78197,1.0326698 47.543206,0 45.505859,0 Z m 0,2 c 1.666665,0 2.224726,0.6857804 2.605469,1.4472656 C 48.492071,4.2087508 48.505859,5 48.505859,5 a 1.0001,1.0001 0 0 0 2,0 c 0,0 0.01379,-0.7912495 0.394532,-1.5527344 C 51.281133,2.6857807 51.839195,2 53.505859,2 55.172525,2 55.730585,2.6857805 56.111328,3.4472656 56.492071,4.2087507 56.505859,5 56.505859,5 a 1.0001,1.0001 0 0 0 2,0 c 0,0 0.01379,-0.7912491 0.394532,-1.5527344 C 59.281133,2.6857803 59.839194,2.0000008 61.505859,2 63.172524,2 63.730585,2.6857799 64.111328,3.4472656 64.492071,4.2087513 64.505859,5 64.505859,5 a 1.0001,1.0001 0 0 0 2,0 c 0,0 0.01379,-0.7912491 0.394532,-1.5527344 C 67.281133,2.6857803 67.839194,1.9999996 69.505859,2 c 1.666665,-4e-7 2.224727,0.6857799 2.605469,1.4472656 C 72.492071,4.2087513 72.505859,5 72.505859,5 a 1.0001,1.0001 0 0 0 1,1 h 5.5 22.693361 L 91.304687,24.480469 88.931641,28.587891 C 88.497906,28.403604 88.317177,28.222878 87.5,28.173828 c -1.382211,-0.08297 -3.241538,0.508574 -4.408203,2.529297 -1.018633,1.764324 -0.744023,3.353302 -0.171875,4.519532 -1.295924,0.0878 -2.809664,0.644177 -3.828125,2.408203 -1.018633,1.764324 -0.744023,3.353301 -0.171875,4.519531 -1.295925,0.0878 -2.809663,0.644177 -3.828125,2.408203 -1.018979,1.764924 -0.744479,3.355206 -0.171875,4.521484 -1.295905,0.08783 -2.809689,0.644221 -3.828125,2.408204 -1.166666,2.020723 -0.749284,3.926483 0.01367,5.082031 0.451087,0.683202 0.697753,0.749727 1.074218,1.033203 l -2.373046,4.111328 a 1.0001,1.0001 0 0 0 -0.0059,0.0098 L 57.501953,83.621094 46.167969,63.460938 a 1.0001,1.0001 0 0 0 -0.0059,-0.0098 l -2.373047,-4.109375 c 0.376487,-0.283364 0.622722,-0.351333 1.074219,-1.035156 0.762956,-1.155548 1.180338,-3.061307 0.01367,-5.082031 -1.018582,-1.764237 -2.532105,-2.32053 -3.828125,-2.408203 0.572149,-1.16623 0.846758,-2.755208 -0.171875,-4.519532 -1.018558,-1.764193 -2.532125,-2.320503 -3.828125,-2.408203 0.572148,-1.166229 0.846758,-2.755207 -0.171875,-4.519531 -1.018557,-1.764193 -2.532125,-2.320503 -3.828125,-2.408203 0.572757,-1.166296 0.847221,-2.756358 -0.171875,-4.521485 -1.166665,-2.020723 -3.025992,-2.612261 -4.408203,-2.529296 -0.818206,0.04911 -0.999979,0.229672 -1.433594,0.414062 L 24.664062,26.21875 13.302734,6 h 22.703125 5.5 a 1.0001,1.0001 0 0 0 1,-1 c 0,0 0.01379,-0.7912495 0.394532,-1.5527344 C 43.281133,2.6857807 43.839194,2 45.505859,2 Z"
     id="path1318" />
  <g
     fill="#000000"
     fillRule="evenodd"
     stroke="none"
     display="none"
     transform="translate(-4.1795271,-14.43915)"
     id="g64">
    <g
       transform="translate(28.693,-56.707)"
       id="g50">
      <path
         d="m 13.488,62.5 h 3.375 c 0.918,0 1.426,0.371 1.426,1.074 0,0.242 -0.035,0.543 -0.098,0.86 -0.296,1.429 -0.296,1.429 -0.296,1.89 0,0.215 0.011,0.371 0.054,0.672 h 1.567 l 0.066,-0.324 c -0.18,-0.168 -0.293,-0.438 -0.293,-0.746 0,-0.168 0.027,-0.406 0.086,-0.703 0.191,-0.961 0.309,-1.696 0.309,-1.95 0,-0.617 -0.188,-0.918 -0.868,-1.355 0.551,-0.309 0.778,-0.465 1.032,-0.691 0.566,-0.52 0.949,-1.469 0.949,-2.344 0,-1.496 -0.82,-2.176 -2.633,-2.176 h -4.762 l -2.195,10.297 h 1.328 z m 0.246,-1.098 0.77,-3.597 h 3.285 c 0.754,0 1.129,0.097 1.398,0.398 0.184,0.199 0.301,0.527 0.301,0.875 0,0.527 -0.215,1.16 -0.527,1.563 -0.41,0.515 -1.012,0.757 -1.926,0.757"
         id="path46" />
      <path
         d="m 25.441,69.719 c -0.085,-0.016 -0.12,-0.016 -0.16,-0.016 -0.246,0 -0.36,-0.082 -0.36,-0.269 0,-0.036 0,-0.063 0.009,-0.094 l 0.61,-2.824 c 0.054,-0.25 0.054,-0.25 0.054,-0.344 0,-0.637 -0.653,-1.059 -1.653,-1.059 -1.32,0 -2.128,0.551 -2.308,1.594 h 0.812 c 0.086,-0.269 0.153,-0.402 0.29,-0.535 0.21,-0.211 0.617,-0.356 1.035,-0.356 0.578,0 1.023,0.254 1.023,0.606 0,0.035 -0.008,0.101 -0.02,0.18 l -0.027,0.168 c -0.086,0.386 -0.27,0.492 -0.976,0.558 -1.297,0.113 -1.704,0.207 -2.176,0.5 -0.504,0.313 -0.793,0.813 -0.793,1.363 0,0.758 0.512,1.211 1.37,1.211 0.333,0 0.735,-0.062 1.075,-0.183 0.305,-0.102 0.445,-0.192 0.836,-0.528 v 0.102 c 0,0.379 0.266,0.609 0.723,0.609 0.101,0 0.133,0 0.37,-0.054 0.016,-0.008 0.075,-0.016 0.134,-0.028 z m -1.16,-1.09 c -0.125,0.574 -0.976,1.07 -1.824,1.07 -0.55,0 -0.86,-0.222 -0.86,-0.613 0,-0.305 0.184,-0.613 0.473,-0.781 0.23,-0.137 0.52,-0.215 0.992,-0.278 0.907,-0.117 0.985,-0.129 1.41,-0.269"
         id="path48" />
    </g>
    <g
       transform="translate(-56.605,-56.654)"
       id="g56">
      <path
         d="m 58.887,119.203 h 3.375 c 0.918,0 1.425,0.371 1.425,1.074 0,0.243 -0.035,0.543 -0.097,0.86 -0.297,1.429 -0.297,1.429 -0.297,1.89 0,0.215 0.012,0.371 0.055,0.672 h 1.566 l 0.066,-0.324 c -0.179,-0.168 -0.293,-0.437 -0.293,-0.746 0,-0.168 0.028,-0.406 0.086,-0.703 0.192,-0.961 0.31,-1.696 0.31,-1.949 0,-0.618 -0.189,-0.918 -0.868,-1.356 0.551,-0.309 0.777,-0.465 1.031,-0.691 0.566,-0.52 0.95,-1.469 0.95,-2.344 0,-1.496 -0.82,-2.176 -2.634,-2.176 h -4.76 l -2.197,10.297 h 1.33 z m 0.25,-1.101 0.77,-3.598 h 3.284 c 0.754,0 1.13,0.098 1.4,0.398 0.182,0.2 0.3,0.528 0.3,0.875 0,0.528 -0.215,1.161 -0.528,1.563 -0.41,0.515 -1.012,0.758 -1.926,0.758"
         id="path52" />
      <path
         d="m 67.582,119.902 -1.473,6.899 h 0.711 l 0.16,-0.739 c 0.121,0.286 0.207,0.418 0.352,0.559 0.246,0.238 0.637,0.379 1.055,0.379 0.636,0 1.312,-0.277 1.742,-0.699 0.637,-0.672 1.058,-1.758 1.058,-2.735 0,-1.062 -0.722,-1.859 -1.683,-1.859 -0.379,0 -0.809,0.109 -1.094,0.277 -0.16,0.102 -0.285,0.204 -0.578,0.508 l 0.551,-2.586 z m 1.68,2.5 c 0.703,0 1.13,0.496 1.13,1.317 a 3.27,3.27 0 0 1 -0.443,1.613 c -0.394,0.648 -0.894,0.965 -1.523,0.965 -0.657,0 -1.07,-0.477 -1.07,-1.231 0,-0.589 0.171,-1.242 0.441,-1.699 0.375,-0.629 0.887,-0.965 1.465,-0.965"
         id="path54" />
    </g>
    <g
       transform="translate(-11.105,0.049)"
       id="g62">
      <path
         d="m 98.586,62.5 h 3.375 c 0.918,0 1.426,0.371 1.426,1.074 0,0.242 -0.036,0.543 -0.098,0.86 -0.297,1.429 -0.297,1.429 -0.297,1.89 0,0.215 0.012,0.371 0.055,0.672 h 1.566 l 0.067,-0.324 c -0.18,-0.168 -0.293,-0.438 -0.293,-0.746 0,-0.168 0.027,-0.406 0.086,-0.703 0.191,-0.961 0.308,-1.696 0.308,-1.95 0,-0.617 -0.187,-0.918 -0.867,-1.355 0.551,-0.309 0.777,-0.465 1.031,-0.691 0.567,-0.52 0.949,-1.469 0.949,-2.344 0,-1.496 -0.82,-2.176 -2.632,-2.176 H 98.5 l -2.195,10.297 h 1.328 z m 0.25,-1.098 0.77,-3.597 h 3.285 c 0.753,0 1.128,0.097 1.398,0.398 0.184,0.199 0.301,0.527 0.301,0.875 0,0.527 -0.215,1.16 -0.528,1.563 -0.41,0.515 -1.011,0.757 -1.925,0.757"
         id="path58" />
      <path
         d="m 110.465,66.898 0.008,-0.14 c 0.007,-0.141 0.015,-0.242 0.015,-0.27 0,-0.308 -0.172,-0.683 -0.422,-0.937 -0.297,-0.301 -0.691,-0.442 -1.238,-0.442 -0.863,0 -1.644,0.356 -2.152,1.008 -0.45,0.574 -0.778,1.602 -0.778,2.469 0,0.441 0.153,0.902 0.418,1.234 0.325,0.403 0.754,0.582 1.364,0.582 0.781,0 1.437,-0.269 1.878,-0.777 0.247,-0.281 0.399,-0.602 0.551,-1.129 h -0.808 c -0.285,0.785 -0.821,1.207 -1.516,1.207 -0.664,0 -1.09,-0.465 -1.09,-1.211 0,-0.609 0.203,-1.336 0.531,-1.832 0.364,-0.562 0.856,-0.848 1.461,-0.848 0.621,0 1.004,0.336 1.004,0.883 v 0.211"
         id="path60" />
    </g>
  </g>
  <path
     d="M 8.2993788,4.998932 A 3.2927564,3.2963745 0 1 0 14.884891,5.000382 3.2927564,3.2963745 0 0 0 8.2993788,4.998932"
     id="path1133"
     style="fill:#8cd5ff;stroke:none;stroke-width:1" />
  <path
     d="m 100.11511,4.9989123 a 3.2927566,3.2963747 0 1 0 6.58551,0.00145 3.2927566,3.2963747 0 0 0 -6.58551,-0.00145"
     id="path862"
     style="fill:#ff8c82;stroke:none;stroke-width:1" />
  <path
     d="m 54.207245,85.659513 a 3.2927566,3.2963747 0 1 0 6.585513,0.0015 3.2927566,3.2963747 0 0 0 -6.585513,-0.0015"
     id="path944"
     style="fill:#d1ff82;stroke:none;stroke-width:1" />
</svg>
