<?xml version="1.0" encoding="UTF-8" standalone="no"?>
<svg
   width="115"
   height="95"
   version="1.1"
   id="svg66"
   sodipodi:docname="Pi.svg"
   inkscape:version="1.1.1 (1:1.1+202109281943+c3084ef5ed)"
   xmlns:inkscape="http://www.inkscape.org/namespaces/inkscape"
   xmlns:sodipodi="http://sodipodi.sourceforge.net/DTD/sodipodi-0.dtd"
   xmlns="http://www.w3.org/2000/svg"
   xmlns:svg="http://www.w3.org/2000/svg">
  <sodipodi:namedview
     id="namedview68"
     pagecolor="#505050"
     bordercolor="#eeeeee"
     borderopacity="1"
     inkscape:pageshadow="0"
     inkscape:pageopacity="0"
     inkscape:pagecheckerboard="0"
     showgrid="false"
     inkscape:zoom="9.3055252"
     inkscape:cx="40.889686"
     inkscape:cy="39.922518"
     inkscape:window-width="2560"
     inkscape:window-height="1379"
     inkscape:window-x="0"
     inkscape:window-y="30"
     inkscape:window-maximized="1"
     inkscape:current-layer="svg66"
     inkscape:object-paths="true"
     inkscape:snap-intersection-paths="true"
     inkscape:snap-object-midpoints="true"
     inkscape:snap-center="true" />
  <defs
     id="defs10">
    <marker
       markerHeight="3"
       markerUnits="strokeWidth"
       markerWidth="4"
       orient="auto"
       refX="0"
       refY="5"
       viewBox="0 0 10 10"
       id="marker4">
      <path
         d="M 0,0 10,5 0,10 Z"
         id="path2" />
    </marker>
    <marker
       markerHeight="3"
       markerUnits="strokeWidth"
       markerWidth="4"
       orient="auto"
       refX="10"
       refY="5"
       viewBox="0 0 10 10"
       id="marker8">
      <path
         d="M 10,0 0,5 10,10 Z"
         id="path6" />
    </marker>
  </defs>
  <path
     style="color:#000000;fill:#fafafa;stroke-linecap:round;stroke-linejoin:round;-inkscape-stroke:none"
     d="M 51.042969,2.4980469 A 1.0001,1.0001 0 0 0 50.123047,3.1054688 L 46.732422,11.044922 45.490234,8.1484375 A 1.0001,1.0001 0 0 0 44.570312,7.5429687 l -33.068359,0.00195 a 1.0001,1.0001 0 0 0 -1,1 l 0.0039,26.7500001 -4.4394528,1.892578 a 1.0001,1.0001 0 0 0 0,1.839844 l 7.9355468,3.386718 -7.9355468,3.388672 a 1.0001,1.0001 0 0 0 0,1.837891 l 7.9355468,3.386719 -7.9355468,3.388672 a 1.0001,1.0001 0 0 0 0,1.839843 L 13.998047,59.642578 11.109375,60.875 a 1.0001,1.0001 0 0 0 -0.607422,0.919922 v 27.410156 a 1.0001,1.0001 0 0 0 1,1 h 91.992187 a 1.0001,1.0001 0 0 0 1,-1 v -26.75 l 4.43945,-1.892578 a 1.0001,1.0001 0 0 0 0,-1.839844 l -7.93554,-3.386719 7.93554,-3.388671 a 1.0001,1.0001 0 0 0 0,-1.837891 l -7.93554,-3.386719 7.93554,-3.388672 a 1.0001,1.0001 0 0 0 0,-1.839843 l -7.93164,-3.386719 2.88868,-1.232422 a 1.0001,1.0001 0 0 0 0.60742,-0.919922 l -0.004,-27.4121092 a 1.0001,1.0001 0 0 0 -1,-0.9980469 H 80.494141 71.087891 L 69.189453,3.1054688 a 1.0001,1.0001 0 0 0 -1.839844,0 L 63.962891,11.039063 60.576172,3.1054688 a 1.0001,1.0001 0 0 0 -1.839844,0 L 55.349609,11.039063 51.962891,3.1054688 A 1.0001,1.0001 0 0 0 51.042969,2.4980469 Z M 68.271484,6.0429687 69.509766,8.9375 a 1.0001,1.0001 0 0 0 0.917968,0.6074219 h 10.066407 21.999999 l 0.004,25.7500001 -4.437503,1.892578 a 1.0001,1.0001 0 0 0 0,1.839844 l 7.933593,3.386718 -7.933593,3.388672 a 1.0001,1.0001 0 0 0 0,1.837891 l 7.935543,3.386719 -7.935543,3.388672 a 1.0001,1.0001 0 0 0 0,1.83789 l 7.931643,3.388672 -2.89063,1.232422 a 1.0001,1.0001 0 0 0 -0.60742,0.919922 V 88.205078 H 12.501953 v -25.75 l 4.4375,-1.892578 a 1.0001,1.0001 0 0 0 0,-1.839844 L 9.0058594,55.335937 16.939453,51.947266 a 1.0001,1.0001 0 0 0 0,-1.837891 L 9.0039063,46.722656 16.939453,43.333984 a 1.0001,1.0001 0 0 0 0,-1.83789 L 9.0078125,38.107422 11.898438,36.875 a 1.0001,1.0001 0 0 0 0.607421,-0.919922 l -0.0039,-26.4101561 31.410156,-0.00195 1.904297,4.4375002 a 1.0001,1.0001 0 0 0 1.839844,-0.002 l 3.386719,-7.9335941 3.386718,7.9335941 a 1.0001,1.0001 0 0 0 1.839844,0 l 3.386719,-7.9335941 3.386719,7.9335941 a 1.0001,1.0001 0 0 0 1.839843,0 z"
     id="path12" />
  <g
     fill="#000000"
     fillRule="evenodd"
     stroke="none"
     display="none"
     transform="translate(2.1717701,-14.441155)"
     id="g64">
    <g
       transform="translate(28.693,-56.707)"
       id="g50">
      <path
         d="m 13.488,62.5 h 3.375 c 0.918,0 1.426,0.371 1.426,1.074 0,0.242 -0.035,0.543 -0.098,0.86 -0.296,1.429 -0.296,1.429 -0.296,1.89 0,0.215 0.011,0.371 0.054,0.672 h 1.567 l 0.066,-0.324 c -0.18,-0.168 -0.293,-0.438 -0.293,-0.746 0,-0.168 0.027,-0.406 0.086,-0.703 0.191,-0.961 0.309,-1.696 0.309,-1.95 0,-0.617 -0.188,-0.918 -0.868,-1.355 0.551,-0.309 0.778,-0.465 1.032,-0.691 0.566,-0.52 0.949,-1.469 0.949,-2.344 0,-1.496 -0.82,-2.176 -2.633,-2.176 h -4.762 l -2.195,10.297 h 1.328 z m 0.246,-1.098 0.77,-3.597 h 3.285 c 0.754,0 1.129,0.097 1.398,0.398 0.184,0.199 0.301,0.527 0.301,0.875 0,0.527 -0.215,1.16 -0.527,1.563 -0.41,0.515 -1.012,0.757 -1.926,0.757"
         id="path46" />
      <path
         d="m 25.441,69.719 c -0.085,-0.016 -0.12,-0.016 -0.16,-0.016 -0.246,0 -0.36,-0.082 -0.36,-0.269 0,-0.036 0,-0.063 0.009,-0.094 l 0.61,-2.824 c 0.054,-0.25 0.054,-0.25 0.054,-0.344 0,-0.637 -0.653,-1.059 -1.653,-1.059 -1.32,0 -2.128,0.551 -2.308,1.594 h 0.812 c 0.086,-0.269 0.153,-0.402 0.29,-0.535 0.21,-0.211 0.617,-0.356 1.035,-0.356 0.578,0 1.023,0.254 1.023,0.606 0,0.035 -0.008,0.101 -0.02,0.18 l -0.027,0.168 c -0.086,0.386 -0.27,0.492 -0.976,0.558 -1.297,0.113 -1.704,0.207 -2.176,0.5 -0.504,0.313 -0.793,0.813 -0.793,1.363 0,0.758 0.512,1.211 1.37,1.211 0.333,0 0.735,-0.062 1.075,-0.183 0.305,-0.102 0.445,-0.192 0.836,-0.528 v 0.102 c 0,0.379 0.266,0.609 0.723,0.609 0.101,0 0.133,0 0.37,-0.054 0.016,-0.008 0.075,-0.016 0.134,-0.028 z m -1.16,-1.09 c -0.125,0.574 -0.976,1.07 -1.824,1.07 -0.55,0 -0.86,-0.222 -0.86,-0.613 0,-0.305 0.184,-0.613 0.473,-0.781 0.23,-0.137 0.52,-0.215 0.992,-0.278 0.907,-0.117 0.985,-0.129 1.41,-0.269"
         id="path48" />
    </g>
    <g
       transform="translate(-56.605,-56.654)"
       id="g56">
      <path
         d="m 58.887,119.203 h 3.375 c 0.918,0 1.425,0.371 1.425,1.074 0,0.243 -0.035,0.543 -0.097,0.86 -0.297,1.429 -0.297,1.429 -0.297,1.89 0,0.215 0.012,0.371 0.055,0.672 h 1.566 l 0.066,-0.324 c -0.179,-0.168 -0.293,-0.437 -0.293,-0.746 0,-0.168 0.028,-0.406 0.086,-0.703 0.192,-0.961 0.31,-1.696 0.31,-1.949 0,-0.618 -0.189,-0.918 -0.868,-1.356 0.551,-0.309 0.777,-0.465 1.031,-0.691 0.566,-0.52 0.95,-1.469 0.95,-2.344 0,-1.496 -0.82,-2.176 -2.634,-2.176 h -4.76 l -2.197,10.297 h 1.33 z m 0.25,-1.101 0.77,-3.598 h 3.284 c 0.754,0 1.13,0.098 1.4,0.398 0.182,0.2 0.3,0.528 0.3,0.875 0,0.528 -0.215,1.161 -0.528,1.563 -0.41,0.515 -1.012,0.758 -1.926,0.758"
         id="path52" />
      <path
         d="m 67.582,119.902 -1.473,6.899 h 0.711 l 0.16,-0.739 c 0.121,0.286 0.207,0.418 0.352,0.559 0.246,0.238 0.637,0.379 1.055,0.379 0.636,0 1.312,-0.277 1.742,-0.699 0.637,-0.672 1.058,-1.758 1.058,-2.735 0,-1.062 -0.722,-1.859 -1.683,-1.859 -0.379,0 -0.809,0.109 -1.094,0.277 -0.16,0.102 -0.285,0.204 -0.578,0.508 l 0.551,-2.586 z m 1.68,2.5 c 0.703,0 1.13,0.496 1.13,1.317 a 3.27,3.27 0 0 1 -0.443,1.613 c -0.394,0.648 -0.894,0.965 -1.523,0.965 -0.657,0 -1.07,-0.477 -1.07,-1.231 0,-0.589 0.171,-1.242 0.441,-1.699 0.375,-0.629 0.887,-0.965 1.465,-0.965"
         id="path54" />
    </g>
    <g
       transform="translate(-11.105,0.049)"
       id="g62">
      <path
         d="m 98.586,62.5 h 3.375 c 0.918,0 1.426,0.371 1.426,1.074 0,0.242 -0.036,0.543 -0.098,0.86 -0.297,1.429 -0.297,1.429 -0.297,1.89 0,0.215 0.012,0.371 0.055,0.672 h 1.566 l 0.067,-0.324 c -0.18,-0.168 -0.293,-0.438 -0.293,-0.746 0,-0.168 0.027,-0.406 0.086,-0.703 0.191,-0.961 0.308,-1.696 0.308,-1.95 0,-0.617 -0.187,-0.918 -0.867,-1.355 0.551,-0.309 0.777,-0.465 1.031,-0.691 0.567,-0.52 0.949,-1.469 0.949,-2.344 0,-1.496 -0.82,-2.176 -2.632,-2.176 H 98.5 l -2.195,10.297 h 1.328 z m 0.25,-1.098 0.77,-3.597 h 3.285 c 0.753,0 1.128,0.097 1.398,0.398 0.184,0.199 0.301,0.527 0.301,0.875 0,0.527 -0.215,1.16 -0.528,1.563 -0.41,0.515 -1.011,0.757 -1.925,0.757"
         id="path58" />
      <path
         d="m 110.465,66.898 0.008,-0.14 c 0.007,-0.141 0.015,-0.242 0.015,-0.27 0,-0.308 -0.172,-0.683 -0.422,-0.937 -0.297,-0.301 -0.691,-0.442 -1.238,-0.442 -0.863,0 -1.644,0.356 -2.152,1.008 -0.45,0.574 -0.778,1.602 -0.778,2.469 0,0.441 0.153,0.902 0.418,1.234 0.325,0.403 0.754,0.582 1.364,0.582 0.781,0 1.437,-0.269 1.878,-0.777 0.247,-0.281 0.399,-0.602 0.551,-1.129 h -0.808 c -0.285,0.785 -0.821,1.207 -1.516,1.207 -0.664,0 -1.09,-0.465 -1.09,-1.211 0,-0.609 0.203,-1.336 0.531,-1.832 0.364,-0.562 0.856,-0.848 1.461,-0.848 0.621,0 1.004,0.336 1.004,0.883 v 0.211"
         id="path60" />
    </g>
  </g>
  <path
     d="m 8.2022929,89.204694 a 3.2991166,3.2964231 0 1 0 6.5982331,0.0014 3.2991166,3.2964231 0 0 0 -6.5982331,-0.0014"
     id="path944"
     style="fill:#d1ff82;stroke:none;stroke-width:1" />
  <path
     d="m 100.19538,89.204694 a 3.2991201,3.2964266 0 1 0 6.59824,0.0014 3.2991201,3.2964266 0 0 0 -6.59824,-0.0014"
     id="path2542"
     style="fill:#d1ff82;stroke:none;stroke-width:1" />
  <path
     d="m 8.202293,8.5429231 a 3.2991166,3.2964231 0 1 0 6.598233,0.00145 3.2991166,3.2964231 0 0 0 -6.598233,-0.00145"
     id="path1133"
     style="fill:#8cd5ff;stroke:none;stroke-width:1" />
  <path
     d="m 100.19538,8.5429033 a 3.2991201,3.2964266 0 1 0 6.59824,0.00145 3.2991201,3.2964266 0 0 0 -6.59824,-0.00145"
     id="path862"
     style="fill:#ff8c82;stroke:none;stroke-width:1" />
</svg>
