<?xml version="1.0" encoding="UTF-8" standalone="no"?>
<svg
   width="115"
   height="95"
   id="svg2"
   sodipodi:version="0.32"
   inkscape:version="1.1.1 (1:1.1+202109281943+c3084ef5ed)"
   sodipodi:docname="Tee Inductor.svg"
   version="1.1"
   xmlns:inkscape="http://www.inkscape.org/namespaces/inkscape"
   xmlns:sodipodi="http://sodipodi.sourceforge.net/DTD/sodipodi-0.dtd"
   xmlns="http://www.w3.org/2000/svg"
   xmlns:svg="http://www.w3.org/2000/svg"
   xmlns:rdf="http://www.w3.org/1999/02/22-rdf-syntax-ns#"
   xmlns:cc="http://creativecommons.org/ns#"
   xmlns:dc="http://purl.org/dc/elements/1.1/">
  <metadata
     id="metadata131">
    <rdf:RDF>
      <cc:Work
         rdf:about="">
        <dc:format>image/svg+xml</dc:format>
        <dc:type
           rdf:resource="http://purl.org/dc/dcmitype/StillImage" />
      </cc:Work>
    </rdf:RDF>
  </metadata>
  <sodipodi:namedview
     inkscape:window-height="1379"
     inkscape:window-width="2560"
     inkscape:pageshadow="2"
     inkscape:pageopacity="0.0"
     guidetolerance="10.0"
     gridtolerance="10.0"
     objecttolerance="10.0"
     borderopacity="1.0"
     bordercolor="#666666"
     pagecolor="#ffffff"
     id="base"
     inkscape:zoom="11.313709"
     inkscape:cx="65.716733"
     inkscape:cy="31.687221"
     inkscape:window-x="0"
     inkscape:window-y="30"
     inkscape:current-layer="svg2"
     showgrid="false"
     inkscape:snap-bbox="true"
     inkscape:snap-nodes="true"
     inkscape:bbox-paths="true"
     inkscape:window-maximized="1"
     inkscape:pagecheckerboard="0"
     inkscape:bbox-nodes="false"
     inkscape:snap-object-midpoints="true"
     inkscape:snap-center="true"
     inkscape:object-paths="true"
     inkscape:snap-intersection-paths="true"
     width="105px"
     height="95px" />
  <defs
     id="defs4">
    <marker
       id="ArrowEnd"
       viewBox="0 0 10 10"
       refX="0"
       refY="5"
       markerUnits="strokeWidth"
       markerWidth="4"
       markerHeight="3"
       orient="auto">
      <path
         d="M 0,0 10,5 0,10 Z"
         id="path7" />
    </marker>
    <marker
       id="ArrowStart"
       viewBox="0 0 10 10"
       refX="10"
       refY="5"
       markerUnits="strokeWidth"
       markerWidth="4"
       markerHeight="3"
       orient="auto">
      <path
         d="M 10,0 0,5 10,10 Z"
         id="path10" />
    </marker>
  </defs>
  <path
     id="path1305"
     style="color:#000000;fill:#fafafa;stroke-linecap:round;stroke-linejoin:round;-inkscape-stroke:none"
     d="M 22.414062 3.0253906 C 20.080732 3.0253906 18.638787 4.3396124 18.019531 5.578125 C 17.653353 6.3104818 17.719357 6.5576298 17.662109 7.0253906 L 12.914062 7.0253906 A 1 1 0 0 0 11.914062 8.0253906 A 1 1 0 0 0 12.914062 9.0253906 L 18.414062 9.0253906 A 1.0001 1.0001 0 0 0 19.414062 8.0253906 C 19.414062 8.0253906 19.425902 7.2341412 19.806641 6.4726562 C 20.187383 5.7111713 20.747398 5.0253906 22.414062 5.0253906 C 24.080728 5.0253906 24.638788 5.7111712 25.019531 6.4726562 C 25.400274 7.2341415 25.414063 8.0253906 25.414062 8.0253906 A 1.0001 1.0001 0 0 0 27.414062 8.0253906 C 27.414062 8.0253906 27.425902 7.2341412 27.806641 6.4726562 C 28.187383 5.7111713 28.747399 5.0253906 30.414062 5.0253906 C 32.080728 5.0253906 32.638788 5.7111713 33.019531 6.4726562 C 33.400274 7.2341413 33.414062 8.0253906 33.414062 8.0253906 A 1.0001 1.0001 0 0 0 35.414062 8.0253906 C 35.414062 8.0253906 35.425902 7.2341415 35.806641 6.4726562 C 36.187383 5.711171 36.747397 5.0253914 38.414062 5.0253906 C 40.080728 5.0253906 40.638788 5.7111707 41.019531 6.4726562 C 41.400274 7.2341419 41.414062 8.0253906 41.414062 8.0253906 A 1.0001 1.0001 0 0 0 43.414062 8.0253906 C 43.414062 8.0253906 43.425902 7.2341416 43.806641 6.4726562 C 44.187383 5.7111709 44.747397 5.0253902 46.414062 5.0253906 C 48.080728 5.0253902 48.638789 5.7111706 49.019531 6.4726562 C 49.400274 7.234142 49.414063 8.0253906 49.414062 8.0253906 A 1.0001 1.0001 0 0 0 50.414062 9.0253906 L 56.5 9.0253906 L 56.501953 26.945312 L 56.501953 32.445312 A 1.0001 1.0001 0 0 0 57.501953 33.445312 C 57.501953 33.445312 58.293202 33.459102 59.054688 33.839844 C 59.816173 34.220586 60.501953 34.778647 60.501953 36.445312 C 60.501953 38.111978 59.816173 38.670039 59.054688 39.050781 C 58.293202 39.431524 57.501953 39.445312 57.501953 39.445312 A 1.0001 1.0001 0 0 0 57.501953 41.445312 C 57.501953 41.445312 58.293202 41.459102 59.054688 41.839844 C 59.816173 42.220586 60.501953 42.778647 60.501953 44.445312 C 60.501953 46.111978 59.816173 46.670039 59.054688 47.050781 C 58.293202 47.431524 57.501953 47.445314 57.501953 47.445312 A 1.0001 1.0001 0 0 0 57.501953 49.445312 C 57.501953 49.445312 58.293202 49.459102 59.054688 49.839844 C 59.816173 50.220586 60.501953 50.778647 60.501953 52.445312 C 60.501953 54.111978 59.816173 54.670039 59.054688 55.050781 C 58.293202 55.431524 57.501953 55.445314 57.501953 55.445312 A 1.0001 1.0001 0 0 0 57.501953 57.445312 C 57.501953 57.445312 58.293202 57.459102 59.054688 57.839844 C 59.816173 58.220586 60.501953 58.778647 60.501953 60.445312 C 60.501954 62.111978 59.816173 62.670039 59.054688 63.050781 C 58.293202 63.431524 57.501953 63.445314 57.501953 63.445312 A 1.0001 1.0001 0 0 0 56.501953 64.445312 L 56.501953 69.945312 L 56.5 88.865234 A 1 1 0 0 0 57.5 89.865234 A 1 1 0 0 0 58.5 88.865234 L 58.501953 69.945312 L 58.501953 65.197266 C 58.969714 65.140016 59.216862 65.206066 59.949219 64.839844 C 61.187731 64.220587 62.501954 62.778643 62.501953 60.445312 C 62.501953 58.407967 61.469283 57.169201 60.390625 56.445312 C 61.469284 55.721424 62.501953 54.48266 62.501953 52.445312 C 62.501953 50.407967 61.469283 49.169201 60.390625 48.445312 C 61.469283 47.721424 62.501953 46.48266 62.501953 44.445312 C 62.501953 42.407967 61.469283 41.169202 60.390625 40.445312 C 61.469283 39.721424 62.501953 38.482659 62.501953 36.445312 C 62.501953 34.111982 61.187731 32.670038 59.949219 32.050781 C 59.216862 31.684603 58.969714 31.750607 58.501953 31.693359 L 58.501953 26.945312 L 58.5 9.0253906 L 64.585938 9.0273438 A 1.0001 1.0001 0 0 0 65.585938 8.0273438 C 65.585938 8.0273438 65.599727 7.2360943 65.980469 6.4746094 C 66.361211 5.7131245 66.919273 5.0273438 68.585938 5.0273438 C 70.252604 5.0273438 70.812616 5.7131242 71.193359 6.4746094 C 71.574102 7.2360946 71.585938 8.0273438 71.585938 8.0273438 A 1.0001 1.0001 0 0 0 73.585938 8.0273438 C 73.585938 8.0273438 73.599727 7.2360943 73.980469 6.4746094 C 74.361211 5.7131244 74.919274 5.0273439 76.585938 5.0273438 C 78.252604 5.0273438 78.812616 5.7131243 79.193359 6.4746094 C 79.574102 7.2360945 79.585938 8.0273438 79.585938 8.0273438 A 1.0001 1.0001 0 0 0 81.585938 8.0273438 C 81.585938 8.0273438 81.599727 7.2360947 81.980469 6.4746094 C 82.361211 5.7131241 82.919273 5.0273447 84.585938 5.0273438 C 86.252602 5.0273438 86.812616 5.7131237 87.193359 6.4746094 C 87.574102 7.236095 87.585938 8.0273436 87.585938 8.0273438 A 1.0001 1.0001 0 0 0 89.585938 8.0273438 C 89.585938 8.0273438 89.599727 7.2360947 89.980469 6.4746094 C 90.361211 5.713124 90.919273 5.0273433 92.585938 5.0273438 C 94.252602 5.0273433 94.812617 5.7131236 95.193359 6.4746094 C 95.574102 7.2360951 95.585939 8.0273436 95.585938 8.0273438 A 1.0001 1.0001 0 0 0 96.585938 9.0273438 L 102.08594 9.0273438 A 1 1 0 0 0 103.08594 8.0273438 A 1 1 0 0 0 102.08594 7.0273438 L 97.337891 7.0273438 C 97.280641 6.5595827 97.346691 6.3124352 96.980469 5.5800781 C 96.361213 4.3415651 94.919268 3.0273432 92.585938 3.0273438 C 90.547922 3.0273432 89.309647 4.0596081 88.585938 5.1386719 C 87.862054 4.0600009 86.623305 3.0273437 84.585938 3.0273438 C 82.547922 3.0273448 81.309647 4.0596082 80.585938 5.1386719 C 79.862054 4.0600013 78.623305 3.0273438 76.585938 3.0273438 C 74.547922 3.0273438 73.309647 4.0596084 72.585938 5.1386719 C 71.862054 4.0600014 70.623305 3.0273438 68.585938 3.0273438 C 66.252607 3.0273438 64.812615 4.3415655 64.193359 5.5800781 C 63.827134 6.3125292 63.891217 6.5595882 63.833984 7.0273438 L 57.5 7.0253906 L 51.166016 7.0253906 C 51.108783 6.5576348 51.172866 6.3105763 50.806641 5.578125 C 50.187384 4.339612 48.747393 3.02539 46.414062 3.0253906 C 44.376882 3.0253901 43.137996 4.0581597 42.414062 5.1367188 C 41.690303 4.0577666 40.451895 3.0253906 38.414062 3.0253906 C 36.376882 3.0253916 35.137996 4.0581598 34.414062 5.1367188 C 33.690303 4.057767 32.451895 3.0253906 30.414062 3.0253906 C 28.376883 3.0253906 27.137995 4.05816 26.414062 5.1367188 C 25.690303 4.057767 24.451895 3.0253906 22.414062 3.0253906 z " />
  <path
     inkscape:connector-curvature="0"
     id="path1283"
     d="m 50.963645,8.0259432 13.07271,4.1e-6"
     style="fill:none;stroke:#fafafa;stroke-width:2;stroke-linecap:round;stroke-linejoin:round;stroke-miterlimit:4;stroke-dasharray:none"
     sodipodi:nodetypes="cc" />
  <path
     inkscape:connector-curvature="0"
     id="path1285"
     d="m 18.413162,8.0259438 -7.085884,0.00416"
     style="fill:none;stroke:#fafafa;stroke-width:2;stroke-linecap:round;stroke-linejoin:round;stroke-miterlimit:4;stroke-dasharray:none"
     sodipodi:nodetypes="cc" />
  <path
     inkscape:connector-curvature="0"
     id="path7331"
     d="m 60.607676,8.0244818 c 0,1.7146672 -1.387853,3.1103932 -3.107677,3.1103932 -1.713976,0 -3.107677,-1.3898739 -3.107677,-3.1103932 0,-1.7132026 1.387851,-3.1074667 3.107677,-3.1074667 1.713975,0 3.107677,1.388412 3.107677,3.1074667"
     style="fill:#fafafa;fill-rule:evenodd;stroke:none;stroke-width:1" />
  <path
     inkscape:connector-curvature="0"
     id="path7335"
     d="m 60.607165,88.863663 c 0,1.714668 -1.387852,3.110394 -3.107677,3.110394 -1.713977,0 -3.107678,-1.389874 -3.107678,-3.110394 0,-1.713203 1.387851,-3.107467 3.107678,-3.107467 1.713974,0 3.107677,1.388412 3.107677,3.107467"
     style="fill:#d1ff82;fill-rule:evenodd;stroke:none;stroke-width:1" />
  <path
     inkscape:connector-curvature="0"
     id="path7333"
     d="m 106.78135,8.0314784 c 0,1.7146674 -1.38786,3.1103936 -3.10768,3.1103936 -1.71398,0 -3.10768,-1.3898742 -3.10768,-3.1103936 0,-1.713203 1.38785,-3.1074669 3.10768,-3.1074669 1.71397,0 3.10768,1.3884119 3.10768,3.1074669"
     style="fill:#ff8c82;fill-rule:evenodd;stroke:none;stroke-width:1" />
  <path
     inkscape:connector-curvature="0"
     id="path1279"
     d="m 14.434006,8.0314746 c 0,1.7146665 -1.387852,3.1103934 -3.107677,3.1103934 -1.7139758,0 -3.1076773,-1.3898747 -3.1076773,-3.1103934 0,-1.7132035 1.3878518,-3.1074673 3.1076773,-3.1074673 1.713975,0 3.107677,1.3884116 3.107677,3.1074673"
     style="fill:#8cd5ff;fill-rule:evenodd;stroke:none;stroke-width:1" />
</svg>
