<?xml version="1.0" encoding="UTF-8" standalone="no"?>
<svg
   width="115"
   height="95"
   id="svg2"
   sodipodi:version="0.32"
   inkscape:version="1.1.1 (1:1.1+202109281943+c3084ef5ed)"
   sodipodi:docname="Tee.svg"
   version="1.1"
   xmlns:inkscape="http://www.inkscape.org/namespaces/inkscape"
   xmlns:sodipodi="http://sodipodi.sourceforge.net/DTD/sodipodi-0.dtd"
   xmlns="http://www.w3.org/2000/svg"
   xmlns:svg="http://www.w3.org/2000/svg"
   xmlns:rdf="http://www.w3.org/1999/02/22-rdf-syntax-ns#"
   xmlns:cc="http://creativecommons.org/ns#"
   xmlns:dc="http://purl.org/dc/elements/1.1/">
  <metadata
     id="metadata131">
    <rdf:RDF>
      <cc:Work
         rdf:about="">
        <dc:format>image/svg+xml</dc:format>
        <dc:type
           rdf:resource="http://purl.org/dc/dcmitype/StillImage" />
      </cc:Work>
    </rdf:RDF>
  </metadata>
  <sodipodi:namedview
     inkscape:window-height="1379"
     inkscape:window-width="2560"
     inkscape:pageshadow="2"
     inkscape:pageopacity="0.0"
     guidetolerance="10.0"
     gridtolerance="10.0"
     objecttolerance="10.0"
     borderopacity="1.0"
     bordercolor="#666666"
     pagecolor="#ffffff"
     id="base"
     inkscape:zoom="11.313709"
     inkscape:cx="49.276502"
     inkscape:cy="19.312853"
     inkscape:window-x="0"
     inkscape:window-y="30"
     inkscape:current-layer="svg2"
     showgrid="false"
     inkscape:snap-bbox="true"
     inkscape:snap-nodes="true"
     inkscape:bbox-paths="true"
     inkscape:window-maximized="1"
     inkscape:pagecheckerboard="0"
     inkscape:bbox-nodes="false"
     inkscape:snap-object-midpoints="true"
     inkscape:snap-center="true"
     inkscape:object-paths="true"
     inkscape:snap-intersection-paths="true"
     width="105px"
     inkscape:lockguides="true" />
  <defs
     id="defs4">
    <marker
       id="ArrowEnd"
       viewBox="0 0 10 10"
       refX="0"
       refY="5"
       markerUnits="strokeWidth"
       markerWidth="4"
       markerHeight="3"
       orient="auto">
      <path
         d="M 0,0 10,5 0,10 Z"
         id="path7" />
    </marker>
    <marker
       id="ArrowStart"
       viewBox="0 0 10 10"
       refX="10"
       refY="5"
       markerUnits="strokeWidth"
       markerWidth="4"
       markerHeight="3"
       orient="auto">
      <path
         d="M 10,0 0,5 10,10 Z"
         id="path10" />
    </marker>
  </defs>
  <path
     id="path1293"
     style="color:#000000;fill:#fafafa;stroke-linecap:round;stroke-linejoin:round;-inkscape-stroke:none"
     d="M 27.160156 2.5 A 1.0001 1.0001 0 0 0 26.242188 3.1074219 L 24.339844 7.5507812 L 11.326172 7.5566406 A 1 1 0 0 0 10.328125 8.5566406 A 1 1 0 0 0 11.328125 9.5566406 L 25 9.5488281 A 1.0001 1.0001 0 0 0 25.917969 8.9433594 L 27.162109 6.0390625 L 30.570312 13.996094 A 1.0001 1.0001 0 0 0 32.408203 13.996094 L 35.816406 6.0390625 L 39.226562 13.996094 A 1.0001 1.0001 0 0 0 41.064453 13.996094 L 44.472656 6.0390625 L 47.880859 13.996094 A 1.0001 1.0001 0 0 0 49.720703 13.996094 L 51.623047 9.5527344 L 56.5 9.5527344 L 56.5 35.986328 A 1.0001 1.0001 0 0 0 57.105469 36.904297 L 60.011719 38.150391 L 52.058594 41.558594 A 1.0001 1.0001 0 0 0 52.058594 43.398438 L 60.011719 46.808594 L 52.058594 50.216797 A 1.0001 1.0001 0 0 0 52.058594 52.054688 L 60.011719 55.464844 L 52.058594 58.873047 A 1.0001 1.0001 0 0 0 52.058594 60.712891 L 56.503906 62.617188 L 56.5 89.390625 A 1 1 0 0 0 57.5 90.390625 A 1 1 0 0 0 58.5 89.390625 L 58.503906 61.957031 A 1.0001 1.0001 0 0 0 57.896484 61.039062 L 54.990234 59.792969 L 62.945312 56.382812 A 1.0001 1.0001 0 0 0 62.945312 54.544922 L 54.990234 51.136719 L 62.945312 47.726562 A 1.0001 1.0001 0 0 0 62.945312 45.888672 L 54.992188 42.478516 L 62.945312 39.068359 A 1.0001 1.0001 0 0 0 62.945312 37.230469 L 58.5 35.326172 L 58.5 9.5527344 L 63.376953 9.5527344 L 65.279297 13.996094 A 1.0001 1.0001 0 0 0 67.119141 13.996094 L 70.527344 6.0390625 L 73.935547 13.996094 A 1.0001 1.0001 0 0 0 75.773438 13.996094 L 79.183594 6.0390625 L 82.591797 13.996094 A 1.0001 1.0001 0 0 0 84.429688 13.996094 L 87.837891 6.0390625 L 89.082031 8.9433594 A 1.0001 1.0001 0 0 0 90 9.5488281 L 103.67188 9.5566406 A 1 1 0 0 0 104.67188 8.5566406 A 1 1 0 0 0 103.67383 7.5566406 L 90.660156 7.5507812 L 88.757812 3.1074219 A 1.0001 1.0001 0 0 0 86.919922 3.1054688 L 83.511719 11.064453 L 80.101562 3.1054688 A 1.0001 1.0001 0 0 0 78.263672 3.1054688 L 74.855469 11.064453 L 71.445312 3.1054688 A 1.0001 1.0001 0 0 0 69.607422 3.1054688 L 66.199219 11.0625 L 64.955078 8.1582031 A 1.0001 1.0001 0 0 0 64.037109 7.5527344 L 57.5 7.5527344 L 50.962891 7.5527344 A 1.0001 1.0001 0 0 0 50.044922 8.1582031 L 48.800781 11.0625 L 45.392578 3.1054688 A 1.0001 1.0001 0 0 0 43.554688 3.1054688 L 40.144531 11.064453 L 36.736328 3.1054688 A 1.0001 1.0001 0 0 0 34.898438 3.1054688 L 31.488281 11.064453 L 28.080078 3.1054688 A 1.0001 1.0001 0 0 0 27.160156 2.5 z " />
  <path
     inkscape:connector-curvature="0"
     id="path1279"
     d="m 14.434006,8.5574167 c 0,1.7146663 -1.387852,3.1103933 -3.107677,3.1103933 -1.7139758,0 -3.1076773,-1.389875 -3.1076773,-3.1103933 0,-1.7132035 1.3878518,-3.1074673 3.1076773,-3.1074673 1.713975,0 3.107677,1.3884116 3.107677,3.1074673"
     style="fill:#8cd5ff;fill-rule:evenodd;stroke:none;stroke-width:1" />
  <path
     inkscape:connector-curvature="0"
     id="path7331"
     d="m 60.607676,8.5504239 c 0,1.7146671 -1.387853,3.1103931 -3.107677,3.1103931 -1.713976,0 -3.107677,-1.389874 -3.107677,-3.1103931 0,-1.7132026 1.387851,-3.1074667 3.107677,-3.1074667 1.713975,0 3.107677,1.388412 3.107677,3.1074667"
     style="fill:#fafafa;fill-rule:evenodd;stroke:none;stroke-width:1"
     sodipodi:nodetypes="csssc" />
  <path
     inkscape:connector-curvature="0"
     id="path7333"
     d="m 106.78135,8.5574205 c 0,1.7146675 -1.38786,3.1103935 -3.10768,3.1103935 -1.71398,0 -3.10768,-1.389874 -3.10768,-3.1103935 0,-1.713203 1.38785,-3.1074669 3.10768,-3.1074669 1.71397,0 3.10768,1.3884119 3.10768,3.1074669"
     style="fill:#ff8c82;fill-rule:evenodd;stroke:none;stroke-width:1" />
  <path
     inkscape:connector-curvature="0"
     id="path7335"
     d="m 60.607165,89.389605 c 0,1.714668 -1.387852,3.110394 -3.107677,3.110394 -1.713977,0 -3.107678,-1.389874 -3.107678,-3.110394 0,-1.713203 1.387851,-3.107467 3.107678,-3.107467 1.713974,0 3.107677,1.388412 3.107677,3.107467"
     style="fill:#d1ff82;fill-rule:evenodd;stroke:none;stroke-width:1" />
</svg>
