<?xml version="1.0" encoding="UTF-8" standalone="no"?>
<svg
   width="115"
   height="95"
   id="svg2"
   sodipodi:version="0.32"
   inkscape:version="1.1.1 (1:1.1+202109281943+c3084ef5ed)"
   sodipodi:docname="Wye Inductor.svg"
   version="1.1"
   xmlns:inkscape="http://www.inkscape.org/namespaces/inkscape"
   xmlns:sodipodi="http://sodipodi.sourceforge.net/DTD/sodipodi-0.dtd"
   xmlns="http://www.w3.org/2000/svg"
   xmlns:svg="http://www.w3.org/2000/svg"
   xmlns:rdf="http://www.w3.org/1999/02/22-rdf-syntax-ns#"
   xmlns:cc="http://creativecommons.org/ns#"
   xmlns:dc="http://purl.org/dc/elements/1.1/">
  <path
     id="path2483"
     style="color:#000000;fill:#fafafa;fill-rule:evenodd;stroke-linecap:round;stroke-linejoin:round;-inkscape-stroke:none"
     d="M 9.4824219 4.7480469 A 1 1 0 0 0 8.875 5.2148438 A 1 1 0 0 0 9.2421875 6.5800781 L 14.5 9.609375 L 19.263672 12.359375 A 1.0001 1.0001 0 0 0 20.628906 11.994141 C 20.628906 11.994141 21.037572 11.314797 21.748047 10.845703 C 22.458522 10.376609 23.285142 10.063153 24.728516 10.896484 C 26.17189 11.729816 26.310775 12.601335 26.259766 13.451172 C 26.208756 14.301009 25.826172 14.994141 25.826172 14.994141 A 1.0001607 1.0001607 0 0 0 27.558594 15.994141 C 27.558594 15.994141 27.965306 15.314797 28.675781 14.845703 C 29.386256 14.376609 30.212876 14.063153 31.65625 14.896484 C 33.099624 15.729817 33.240463 16.601335 33.189453 17.451172 C 33.138443 18.301009 32.753906 18.994141 32.753906 18.994141 L 34.486328 19.994141 C 34.486328 19.994141 34.893041 19.314797 35.603516 18.845703 C 36.31399 18.376609 37.14061 18.063152 38.583984 18.896484 C 40.027359 19.729817 40.168197 20.601335 40.117188 21.451172 C 40.066178 22.301009 39.681641 22.994141 39.681641 22.994141 L 41.414062 23.994141 C 41.414062 23.994141 41.820775 23.314797 42.53125 22.845703 C 43.241725 22.376609 44.068345 22.063152 45.511719 22.896484 C 46.955093 23.729817 47.095931 24.601335 47.044922 25.451172 C 46.993912 26.301009 46.609375 26.994141 46.609375 26.994141 A 1.0001 1.0001 0 0 0 46.976562 28.359375 L 51.740234 31.109375 L 56.5 33.859375 L 56.503906 39.783203 L 56.503906 45.283203 A 1.0001 1.0001 0 0 0 57.503906 46.283203 C 57.503906 46.283203 58.295156 46.296993 59.056641 46.677734 C 59.818126 47.058477 60.503907 47.616538 60.503906 49.283203 C 60.503907 50.949868 59.818126 51.507929 59.056641 51.888672 C 58.295156 52.269414 57.503906 52.283203 57.503906 52.283203 L 57.503906 54.283203 C 57.503906 54.283203 58.295155 54.296993 59.056641 54.677734 C 59.818126 55.058477 60.503907 55.616538 60.503906 57.283203 C 60.503907 58.949868 59.818125 59.50793 59.056641 59.888672 C 58.295156 60.269414 57.503906 60.283203 57.503906 60.283203 A 1.0001 1.0001 0 0 0 57.503906 62.283203 C 57.503906 62.283203 58.295155 62.296993 59.056641 62.677734 C 59.818126 63.058477 60.503906 63.616538 60.503906 65.283203 C 60.503907 66.949869 59.818126 67.50793 59.056641 67.888672 C 58.295156 68.269414 57.503906 68.283203 57.503906 68.283203 L 57.503906 70.283203 C 57.503906 70.283203 58.295155 70.296993 59.056641 70.677734 C 59.818126 71.058477 60.503907 71.616539 60.503906 73.283203 C 60.503906 74.949869 59.818126 75.507929 59.056641 75.888672 C 58.295155 76.269415 57.503906 76.283203 57.503906 76.283203 A 1.0001 1.0001 0 0 0 56.503906 77.283203 L 56.503906 82.783203 L 56.5 89.285156 A 1 1 0 0 0 57.498047 90.285156 A 1 1 0 0 0 58.5 89.287109 L 58.503906 82.783203 L 58.503906 78.035156 C 58.971688 77.977846 59.217243 78.043756 59.949219 77.677734 C 61.187732 77.058478 62.503906 75.616535 62.503906 73.283203 C 62.503907 71.245672 61.469395 70.007043 60.390625 69.283203 C 61.469395 68.559364 62.503907 67.320735 62.503906 65.283203 C 62.503906 63.245672 61.469395 62.007043 60.390625 61.283203 C 61.469395 60.559364 62.503907 59.320734 62.503906 57.283203 C 62.503907 55.245672 61.469395 54.007043 60.390625 53.283203 C 61.469395 52.559364 62.503907 51.320734 62.503906 49.283203 C 62.503907 46.949872 61.187731 45.507929 59.949219 44.888672 C 59.217249 44.522684 58.971688 44.58856 58.503906 44.53125 L 58.503906 39.783203 L 58.5 33.859375 L 63.259766 31.109375 L 68.023438 28.359375 A 1.0001 1.0001 0 0 0 68.390625 26.994141 C 68.390625 26.994141 68.006088 26.301009 67.955078 25.451172 C 67.904068 24.601335 68.044908 23.729817 69.488281 22.896484 C 70.931655 22.063151 71.758275 22.376608 72.46875 22.845703 C 73.179225 23.314797 73.585938 23.994141 73.585938 23.994141 A 1.0001607 1.0001607 0 1 0 75.318359 22.994141 C 75.318359 22.994141 74.933823 22.301009 74.882812 21.451172 C 74.831802 20.601335 74.972642 19.729817 76.416016 18.896484 C 77.85939 18.063151 78.68601 18.376608 79.396484 18.845703 C 80.106959 19.314797 80.513672 19.994141 80.513672 19.994141 L 82.246094 18.994141 C 82.246094 18.994141 81.861556 18.301009 81.810547 17.451172 C 81.759537 16.601335 81.900377 15.729817 83.34375 14.896484 C 84.787124 14.063152 85.613744 14.376608 86.324219 14.845703 C 87.034694 15.314797 87.441406 15.994141 87.441406 15.994141 A 1.0001607 1.0001607 0 1 0 89.173828 14.994141 C 89.173828 14.994141 88.791244 14.301009 88.740234 13.451172 C 88.689224 12.601335 88.828114 11.729816 90.271484 10.896484 C 91.714858 10.063152 92.541478 10.376608 93.251953 10.845703 C 93.962428 11.314797 94.371094 11.994141 94.371094 11.994141 A 1.0001 1.0001 0 0 0 95.736328 12.359375 L 100.5 9.609375 L 105.75781 6.5800781 A 1 1 0 0 0 106.125 5.2148438 A 1 1 0 0 0 104.75781 4.8476562 L 99.5 7.8769531 L 95.386719 10.251953 C 95.103243 9.8754878 95.036717 9.6288211 94.353516 9.1777344 C 93.197968 8.414779 91.292208 7.9973973 89.271484 9.1640625 C 87.507247 10.182645 86.950955 11.696168 86.863281 12.992188 C 85.697052 12.420038 84.108074 12.14543 82.34375 13.164062 C 80.579513 14.182645 80.023221 15.696168 79.935547 16.992188 C 78.769318 16.42004 77.180339 16.145429 75.416016 17.164062 C 73.651778 18.182645 73.095486 19.696168 73.007812 20.992188 C 71.841583 20.42004 70.252605 20.145429 68.488281 21.164062 C 66.467557 22.330728 65.87602 24.190054 65.958984 25.572266 C 66.008014 26.389145 66.186837 26.570138 66.371094 27.003906 L 62.259766 29.376953 L 57.5 32.126953 L 52.740234 29.376953 L 48.628906 27.003906 C 48.813163 26.570138 48.991984 26.389145 49.041016 25.572266 C 49.123976 24.190054 48.532443 22.330728 46.511719 21.164062 C 44.747395 20.145429 43.158417 20.42004 41.992188 20.992188 C 41.904517 19.696168 41.348222 18.182645 39.583984 17.164062 C 37.819661 16.145429 36.230682 16.420039 35.064453 16.992188 C 34.976779 15.696168 34.420487 14.182645 32.65625 13.164062 C 30.891926 12.145429 29.302948 12.420038 28.136719 12.992188 C 28.049045 11.696167 27.492753 10.182645 25.728516 9.1640625 C 23.707792 7.9973971 21.802032 8.414779 20.646484 9.1777344 C 19.963283 9.6288212 19.896757 9.8754878 19.613281 10.251953 L 15.5 7.8769531 L 10.242188 4.8476562 A 1 1 0 0 0 9.4824219 4.7480469 z " />
  <metadata
     id="metadata131">
    <rdf:RDF>
      <cc:Work
         rdf:about="">
        <dc:format>image/svg+xml</dc:format>
        <dc:type
           rdf:resource="http://purl.org/dc/dcmitype/StillImage" />
      </cc:Work>
    </rdf:RDF>
  </metadata>
  <sodipodi:namedview
     inkscape:window-height="1379"
     inkscape:window-width="2560"
     inkscape:pageshadow="2"
     inkscape:pageopacity="0.0"
     guidetolerance="10.0"
     gridtolerance="10.0"
     objecttolerance="10.0"
     borderopacity="1.0"
     bordercolor="#666666"
     pagecolor="#ffffff"
     id="base"
     inkscape:zoom="5.6568543"
     inkscape:cx="56.480154"
     inkscape:cy="43.929009"
     inkscape:window-x="0"
     inkscape:window-y="30"
     inkscape:current-layer="svg2"
     showgrid="false"
     inkscape:snap-bbox="true"
     inkscape:snap-nodes="true"
     inkscape:bbox-paths="true"
     inkscape:window-maximized="1"
     inkscape:pagecheckerboard="0"
     inkscape:bbox-nodes="false"
     inkscape:snap-object-midpoints="true"
     inkscape:snap-center="true"
     inkscape:object-paths="true"
     inkscape:snap-intersection-paths="true" />
  <defs
     id="defs4">
    <marker
       id="ArrowEnd"
       viewBox="0 0 10 10"
       refX="0"
       refY="5"
       markerUnits="strokeWidth"
       markerWidth="4"
       markerHeight="3"
       orient="auto">
      <path
         d="M 0,0 10,5 0,10 Z"
         id="path7" />
    </marker>
    <marker
       id="ArrowStart"
       viewBox="0 0 10 10"
       refX="10"
       refY="5"
       markerUnits="strokeWidth"
       markerWidth="4"
       markerHeight="3"
       orient="auto">
      <path
         d="M 10,0 0,5 10,10 Z"
         id="path10" />
    </marker>
  </defs>
  <path
     inkscape:connector-curvature="0"
     id="path1279"
     d="m 12.956631,5.7127749 c 0,1.772773 -1.435462,3.2157981 -3.2142855,3.2157981 -1.7727732,0 -3.2142855,-1.4369746 -3.2142855,-3.2157981 0,-1.7712605 1.435462,-3.2127729 3.2142855,-3.2127729 1.7727735,0 3.2142855,1.435462 3.2142855,3.2127729"
     style="fill:#8cd5ff;fill-rule:evenodd;stroke:none;stroke-width:1" />
  <path
     inkscape:connector-curvature="0"
     id="path7331"
     d="m 60.71481,33.280022 c 0,1.772774 -1.435463,3.215799 -3.214286,3.215799 -1.772774,0 -3.214285,-1.436974 -3.214285,-3.215799 0,-1.771259 1.435461,-3.212772 3.214285,-3.212772 1.772773,0 3.214286,1.435462 3.214286,3.212772"
     style="fill:#fafafa;fill-rule:evenodd;stroke:none;stroke-width:1" />
  <path
     inkscape:connector-curvature="0"
     id="path7333"
     d="m 108.47194,5.7127788 c 0,1.7727739 -1.43546,3.2157985 -3.21429,3.2157985 -1.77277,0 -3.21428,-1.4369742 -3.21428,-3.2157985 0,-1.7712599 1.43546,-3.2127725 3.21428,-3.2127725 1.77278,0 3.21429,1.4354623 3.21429,3.2127725"
     style="fill:#ff8c82;fill-rule:evenodd;stroke:none;stroke-width:1" />
  <path
     inkscape:connector-curvature="0"
     id="path7335"
     d="m 60.713756,89.2842 c 0,1.772774 -1.435462,3.215798 -3.214285,3.215798 -1.772774,0 -3.214286,-1.436974 -3.214286,-3.215798 0,-1.77126 1.435462,-3.212773 3.214286,-3.212773 1.772773,0 3.214285,1.435463 3.214285,3.212773"
     style="fill:#d1ff82;fill-rule:evenodd;stroke:none;stroke-width:1" />
</svg>
