<svg
      xmlns="http://www.w3.org/2000/svg"
      width="115"
      height="95"
      version="1.1"
    >
      <defs>
        <marker
          markerHeight="3"
          markerUnits="strokeWidth"
          markerWidth="4"
          orient="auto"
          refX="0"
          refY="5"
          viewBox="0 0 10 10"
        >
          <path d="M0 0l10 5-10 5z"></path>
        </marker>
        <marker
          markerHeight="3"
          markerUnits="strokeWidth"
          markerWidth="4"
          orient="auto"
          refX="10"
          refY="5"
          viewBox="0 0 10 10"
        >
          <path d="M10 0L0 5l10 5z"></path>
        </marker>
      </defs>
      <path
        fill="#fafafa"
        fillRule="evenodd"
        strokeLinecap="round"
        strokeLinejoin="round"
        d="M45.506 3.021c-2.333 0-3.775 1.315-4.395 2.553-.366.733-.3.98-.357 1.447H11.592a1 1 0 00-.871 1.49l12.203 21.714a1 1 0 00.006.01l2.75 4.763a1 1 0 001.367.365s.691-.382 1.54-.433c.85-.051 1.724.088 2.558 1.531.833 1.443.517 2.27.048 2.98a4.062 4.062 0 01-1.146 1.12l1 1.73s.691-.383 1.54-.434c.85-.05 1.724.09 2.558 1.534.833 1.443.517 2.268.048 2.978-.469.71-1.146 1.12-1.146 1.12a1 1 0 001 1.732s.691-.385 1.54-.436c.85-.05 1.724.09 2.558 1.533.833 1.444.517 2.27.048 2.98a4.038 4.038 0 01-1.146 1.118l1 1.732s.691-.384 1.54-.435c.85-.051 1.724.09 2.558 1.533.833 1.444.518 2.27.048 2.98a4.038 4.038 0 01-1.146 1.118 1 1 0 00-.367 1.367l2.748 4.758L56.63 89.172a1 1 0 001.742 0L71.541 65.73l2.748-4.758a1 1 0 00-.367-1.366s-.677-.408-1.147-1.119c-.469-.71-.784-1.535.05-2.978.833-1.444 1.706-1.584 2.556-1.533.85.05 1.54.433 1.54.433a1 1 0 001-1.73s-.676-.409-1.146-1.12c-.469-.71-.784-1.537.05-2.98.833-1.443 1.706-1.582 2.556-1.531.85.05 1.54.433 1.54.433a1 1 0 001-1.732s-.676-.407-1.146-1.117c-.469-.71-.784-1.537.05-2.98.833-1.444 1.706-1.585 2.556-1.534a4.03 4.03 0 011.54.436 1 1 0 001-1.733s-.676-.406-1.146-1.117c-.469-.71-.784-1.537.05-2.98.833-1.444 1.706-1.585 2.556-1.534.85.051 1.54.436 1.54.436a1 1 0 001.368-.367l2.75-4.762a1 1 0 00.006-.01l11.234-19.976a1 1 0 00-.87-1.49H74.257c-.057-.468.009-.715-.358-1.448-.619-1.238-2.06-2.553-4.394-2.553-2.037 0-3.276 1.033-4 2.112-.724-1.079-1.963-2.112-4-2.112s-3.276 1.033-4 2.112c-.724-1.079-1.963-2.112-4-2.112s-3.276 1.033-4 2.112c-.724-1.079-1.963-2.112-4-2.112zm0 2c1.667 0 2.225.686 2.605 1.448.381.761.395 1.552.395 1.552a1 1 0 002 0s.014-.79.394-1.552c.381-.762.94-1.448 2.606-1.448 1.667 0 2.225.686 2.605 1.448.381.761.395 1.552.395 1.552a1 1 0 002 0s.014-.79.394-1.552c.381-.762.94-1.448 2.606-1.448 1.667 0 2.225.686 2.605 1.448.381.761.395 1.552.395 1.552a1 1 0 002 0s.014-.79.394-1.552c.381-.762.94-1.448 2.606-1.448 1.667 0 2.225.686 2.605 1.448.381.761.395 1.552.395 1.552a1 1 0 001 1h28.193L91.305 27.502l-2.373 4.107c-.434-.184-.615-.365-1.432-.414-1.382-.083-3.242.509-4.408 2.53-1.019 1.764-.744 3.353-.172 4.52-1.296.087-2.81.643-3.828 2.407-1.019 1.765-.744 3.354-.172 4.52-1.296.088-2.81.644-3.828 2.408-1.02 1.765-.745 3.355-.172 4.522-1.296.087-2.81.644-3.828 2.408-1.167 2.02-.75 3.926.013 5.082.452.683.698.75 1.075 1.033l-2.373 4.111a1 1 0 00-.006.01L57.502 86.643l-11.334-20.16a1 1 0 00-.006-.01l-2.373-4.11c.377-.283.623-.351 1.074-1.035.763-1.155 1.18-3.061.014-5.082-1.019-1.764-2.532-2.32-3.828-2.408.572-1.166.847-2.755-.172-4.52-1.019-1.764-2.532-2.32-3.828-2.408.572-1.166.847-2.755-.172-4.52-1.019-1.764-2.532-2.32-3.828-2.408.573-1.166.847-2.756-.172-4.521-1.167-2.02-3.026-2.612-4.408-2.53-.818.05-1 .23-1.434.415l-2.37-4.106L13.302 9.021h28.203a1 1 0 001-1s.014-.79.394-1.552c.381-.762.94-1.448 2.606-1.448z"
        color="#000"
      ></path>
      <path
        fill="#8cd5ff"
        stroke="none"
        strokeWidth="1"
        d="M8.3 8.02a3.293 3.296 0 106.585.002 3.293 3.296 0 00-6.586-.002"
      ></path>
      <path
        fill="#ff8c82"
        stroke="none"
        strokeWidth="1"
        d="M100.115 8.02a3.293 3.296 0 106.586.002 3.293 3.296 0 00-6.586-.002"
      ></path>
      <path
        fill="#d1ff82"
        stroke="none"
        strokeWidth="1"
        d="M54.207 88.681a3.293 3.296 0 106.586.001 3.293 3.296 0 00-6.586-.001"
      ></path>
    </svg>