<svg
      xmlns="http://www.w3.org/2000/svg"
      width="115"
      height="95"
      version="1.1"
    >
      <defs>
        <marker
          markerHeight="3"
          markerUnits="strokeWidth"
          markerWidth="4"
          orient="auto"
          refX="0"
          refY="5"
          viewBox="0 0 10 10"
        >
          <path d="M0 0l10 5-10 5z"></path>
        </marker>
        <marker
          markerHeight="3"
          markerUnits="strokeWidth"
          markerWidth="4"
          orient="auto"
          refX="10"
          refY="5"
          viewBox="0 0 10 10"
        >
          <path d="M10 0L0 5l10 5z"></path>
        </marker>
      </defs>
      <path
        fill="#fafafa"
        strokeLinecap="round"
        strokeLinejoin="round"
        d="M51.043 2.498a1 1 0 00-.92.607l-3.39 7.94-1.243-2.897a1 1 0 00-.92-.605l-33.068.002a1 1 0 00-1 1l.004 26.75-4.44 1.892a1 1 0 000 1.84l7.936 3.387-7.936 3.389a1 1 0 000 1.838l7.936 3.386-7.936 3.389a1 1 0 000 1.84l7.932 3.387-2.889 1.232a1 1 0 00-.607.92v27.41a1 1 0 001 1h91.992a1 1 0 001-1v-26.75l4.44-1.892a1 1 0 000-1.84l-7.936-3.387 7.936-3.389a1 1 0 000-1.838l-7.936-3.386 7.936-3.389a1 1 0 000-1.84l-7.932-3.387 2.889-1.232a1 1 0 00.607-.92l-.004-27.412a1 1 0 00-1-.998H71.088l-1.899-4.44a1 1 0 00-1.84 0l-3.386 7.934-3.387-7.934a1 1 0 00-1.84 0L55.35 11.04l-3.387-7.934a1 1 0 00-.92-.607zm17.228 3.545l1.239 2.894a1 1 0 00.918.608h32.066l.004 25.75-4.437 1.892a1 1 0 000 1.84l7.933 3.387-7.933 3.389a1 1 0 000 1.838l7.935 3.386-7.935 3.389a1 1 0 000 1.838l7.931 3.389-2.89 1.232a1 1 0 00-.608.92v26.41H12.502v-25.75l4.437-1.892a1 1 0 000-1.84l-7.933-3.387 7.933-3.389a1 1 0 000-1.838l-7.935-3.386 7.935-3.389a1 1 0 000-1.838l-7.931-3.389 2.89-1.232a1 1 0 00.608-.92l-.004-26.41 31.41-.002 1.904 4.437a1 1 0 001.84-.002l3.387-7.933 3.387 7.933a1 1 0 001.84 0l3.386-7.933 3.387 7.933a1 1 0 001.84 0z"
        color="#000"
      ></path>
      <path
        fill="#d1ff82"
        stroke="none"
        strokeWidth="1"
        d="M8.202 89.205a3.3 3.296 0 106.599.001 3.3 3.296 0 00-6.599-.001"
      ></path>
      <path
        fill="#d1ff82"
        stroke="none"
        strokeWidth="1"
        d="M100.195 89.205a3.3 3.296 0 106.599.001 3.3 3.296 0 00-6.599-.001"
      ></path>
      <path
        fill="#8cd5ff"
        stroke="none"
        strokeWidth="1"
        d="M8.202 8.543a3.3 3.296 0 106.599.001 3.3 3.296 0 00-6.599-.001"
      ></path>
      <path
        fill="#ff8c82"
        stroke="none"
        strokeWidth="1"
        d="M100.195 8.543a3.3 3.296 0 106.599.001 3.3 3.296 0 00-6.599-.001"
      ></path>
    </svg>