<svg xmlns="http://www.w3.org/2000/svg" width="115" height="95">
      <path
        d="M54.616 11.02l-10.057.001H11.501l.004 27.411-.001 10.034"
        color="#000"
      ></path>
      <path
        fill="#fafafa"
        d="M53.002.02v10l-8.443.001H10.5l.004 28.41v8.42h-10v3h22v-3h-10v-8.42l-.004-26.41h32.059l8.443-.001v10h3v-22h-3z"
        color="#000"
      ></path>
      <path
        d="M103.495 48.466l.002-10.034-.004-27.41h-23l-20.01-.002"
        color="#000"
      ></path>
      <path
        fill="#fafafa"
        d="M59.002.02v22h3v-10l18.492.001h22l.004 26.41-.002 8.42h-10v3h22v-3h-10l.002-8.42-.006-28.41H80.494l-18.492-.001v-10h-3z"
        color="#000"
      ></path>
      <path
        fill="#8cd5ff"
        d="M8.201 11.02a3.3 3.296 0 106.599.002 3.3 3.296 0 00-6.6-.002"
      ></path>
      <path
        fill="#ff8c82"
        d="M100.195 11.02a3.3 3.296 0 106.598.002 3.3 3.296 0 00-6.598-.002"
      ></path>
      <path
        d="M54.502 22.019v-22M60.502.02v21.999M92.496 48.352h22M114.495 54.352H92.496"
        color="#000"
      ></path>
      <path
        fill="#fafafa"
        d="M.504 52.852v3h10l-.004 8.421v28.41h93.994v-28.41l.002-8.421h10v-3h-22v3h10l-.002 8.42v26.412H12.5v-26.41l.004-8.422h10v-3h-22z"
        color="#000"
      ></path>
      <path
        d="M103.495 54.333l-.002 9.94v27.41H11.5v-27.41l.003-9.94M.505 48.352h21.999M22.504 54.352h-22"
        color="#000"
      ></path>
      <path
        fill="#d1ff82"
        d="M100.195 91.682a3.3 3.296 0 106.598.001 3.3 3.296 0 00-6.598-.001M8.201 91.682a3.3 3.296 0 106.599.001 3.3 3.296 0 00-6.599-.001"
      ></path>
    </svg>