<?xml version="1.0" encoding="UTF-8" standalone="no"?>
<svg
   width="115"
   height="95"
   id="svg2"
   sodipodi:version="0.32"
   inkscape:version="1.1.1 (1:1.1+202109281943+c3084ef5ed)"
   sodipodi:docname="Tee.svg"
   version="1.1"
   xmlns:inkscape="http://www.inkscape.org/namespaces/inkscape"
   xmlns:sodipodi="http://sodipodi.sourceforge.net/DTD/sodipodi-0.dtd"
   xmlns="http://www.w3.org/2000/svg"
   xmlns:svg="http://www.w3.org/2000/svg"
   xmlns:rdf="http://www.w3.org/1999/02/22-rdf-syntax-ns#"
   xmlns:cc="http://creativecommons.org/ns#"
   xmlns:dc="http://purl.org/dc/elements/1.1/">
  <metadata
     id="metadata131">
    <rdf:RDF>
      <cc:Work
         rdf:about="">
        <dc:format>image/svg+xml</dc:format>
        <dc:type
           rdf:resource="http://purl.org/dc/dcmitype/StillImage" />
      </cc:Work>
    </rdf:RDF>
  </metadata>
  <sodipodi:namedview
     inkscape:window-height="1379"
     inkscape:window-width="2560"
     inkscape:pageshadow="2"
     inkscape:pageopacity="0.0"
     guidetolerance="10.0"
     gridtolerance="10.0"
     objecttolerance="10.0"
     borderopacity="1.0"
     bordercolor="#666666"
     pagecolor="#ffffff"
     id="base"
     inkscape:zoom="5.6568545"
     inkscape:cx="59.485355"
     inkscape:cy="43.2219"
     inkscape:window-x="0"
     inkscape:window-y="30"
     inkscape:current-layer="svg2"
     showgrid="false"
     inkscape:snap-bbox="true"
     inkscape:snap-nodes="true"
     inkscape:bbox-paths="true"
     inkscape:window-maximized="1"
     inkscape:pagecheckerboard="0"
     inkscape:bbox-nodes="false"
     inkscape:snap-object-midpoints="true"
     inkscape:snap-center="true"
     inkscape:object-paths="true"
     inkscape:snap-intersection-paths="true"
     width="105px" />
  <defs
     id="defs4">
    <marker
       id="ArrowEnd"
       viewBox="0 0 10 10"
       refX="0"
       refY="5"
       markerUnits="strokeWidth"
       markerWidth="4"
       markerHeight="3"
       orient="auto">
      <path
         d="M 0,0 10,5 0,10 Z"
         id="path7" />
    </marker>
    <marker
       id="ArrowStart"
       viewBox="0 0 10 10"
       refX="10"
       refY="5"
       markerUnits="strokeWidth"
       markerWidth="4"
       markerHeight="3"
       orient="auto">
      <path
         d="M 10,0 0,5 10,10 Z"
         id="path10" />
    </marker>
  </defs>
  <path
     inkscape:connector-curvature="0"
     id="path1293"
     d="m 57.50356,61.957361 -5.051017,-2.164315 10.097963,-4.32863 -10.097963,-4.32863 10.097963,-4.328629 -10.097963,-4.32863 10.097963,-4.328629 -5.051018,-2.164315"
     style="fill:none;stroke:#fafafa;stroke-width:2;stroke-linecap:round;stroke-linejoin:round;stroke-miterlimit:4;stroke-dasharray:none" />
  <path
     inkscape:connector-curvature="0"
     id="path1303"
     d="M 57.499488,35.985583 V 8.5518873"
     style="fill:none;stroke:#fafafa;stroke-width:2;stroke-linecap:round;stroke-linejoin:round;stroke-miterlimit:4;stroke-dasharray:none"
     sodipodi:nodetypes="cc" />
  <path
     inkscape:connector-curvature="0"
     id="path1305"
     d="m 57.50356,61.957361 -0.004,27.433708"
     style="fill:none;stroke:#fafafa;stroke-width:2;stroke-linecap:round;stroke-linejoin:round;stroke-miterlimit:4;stroke-dasharray:none"
     sodipodi:nodetypes="cc" />
  <path
     inkscape:connector-curvature="0"
     id="path1283"
     d="m 50.963645,8.5518853 13.07271,4.1e-6"
     style="fill:none;stroke:#fafafa;stroke-width:2;stroke-linecap:round;stroke-linejoin:round;stroke-miterlimit:4;stroke-dasharray:none"
     sodipodi:nodetypes="cc" />
  <path
     inkscape:connector-curvature="0"
     id="path1285"
     d="m 24.998735,8.5496173 -13.671457,0.00643"
     style="fill:none;stroke:#fafafa;stroke-width:2;stroke-linecap:round;stroke-linejoin:round;stroke-miterlimit:4;stroke-dasharray:none"
     sodipodi:nodetypes="cc" />
  <path
     inkscape:connector-curvature="0"
     id="path1287"
     d="M 50.963645,8.5518853 48.800866,13.601965 44.473616,3.4998469 40.145173,13.60289 35.817211,3.5000442 31.489485,13.602378 27.160797,3.5002477 24.998735,8.5496173"
     style="fill:none;stroke:#fafafa;stroke-width:2;stroke-linecap:round;stroke-linejoin:round;stroke-miterlimit:4;stroke-dasharray:none" />
  <path
     inkscape:connector-curvature="0"
     id="path5557"
     d="m 90.001264,8.5496214 13.671456,0.00643"
     style="fill:none;stroke:#fafafa;stroke-width:2;stroke-linecap:round;stroke-linejoin:round;stroke-miterlimit:4;stroke-dasharray:none"
     sodipodi:nodetypes="cc" />
  <path
     inkscape:connector-curvature="0"
     id="path5559"
     d="M 64.036355,8.5518894 66.199132,13.601969 70.526384,3.4998511 74.854825,13.602894 79.182788,3.5000483 83.510515,13.602382 87.839201,3.5002519 90.001264,8.5496214"
     style="fill:none;stroke:#fafafa;stroke-width:2;stroke-linecap:round;stroke-linejoin:round;stroke-miterlimit:4;stroke-dasharray:none" />
  <path
     inkscape:connector-curvature="0"
     id="path1279"
     d="m 14.434006,8.5574167 c 0,1.7146663 -1.387852,3.1103933 -3.107677,3.1103933 -1.7139758,0 -3.1076773,-1.389875 -3.1076773,-3.1103933 0,-1.7132035 1.3878518,-3.1074673 3.1076773,-3.1074673 1.713975,0 3.107677,1.3884116 3.107677,3.1074673"
     style="fill:#8cd5ff;fill-rule:evenodd;stroke:none;stroke-width:1" />
  <path
     inkscape:connector-curvature="0"
     id="path7331"
     d="m 60.607676,8.5504239 c 0,1.7146671 -1.387853,3.1103931 -3.107677,3.1103931 -1.713976,0 -3.107677,-1.389874 -3.107677,-3.1103931 0,-1.7132026 1.387851,-3.1074667 3.107677,-3.1074667 1.713975,0 3.107677,1.388412 3.107677,3.1074667"
     style="fill:#fafafa;fill-rule:evenodd;stroke:none;stroke-width:1" />
  <path
     inkscape:connector-curvature="0"
     id="path7333"
     d="m 106.78135,8.5574205 c 0,1.7146675 -1.38786,3.1103935 -3.10768,3.1103935 -1.71398,0 -3.10768,-1.389874 -3.10768,-3.1103935 0,-1.713203 1.38785,-3.1074669 3.10768,-3.1074669 1.71397,0 3.10768,1.3884119 3.10768,3.1074669"
     style="fill:#ff8c82;fill-rule:evenodd;stroke:none;stroke-width:1" />
  <path
     inkscape:connector-curvature="0"
     id="path7335"
     d="m 60.607165,89.389605 c 0,1.714668 -1.387852,3.110394 -3.107677,3.110394 -1.713977,0 -3.107678,-1.389874 -3.107678,-3.110394 0,-1.713203 1.387851,-3.107467 3.107678,-3.107467 1.713974,0 3.107677,1.388412 3.107677,3.107467"
     style="fill:#d1ff82;fill-rule:evenodd;stroke:none;stroke-width:1" />
</svg>
