<?xml version="1.0" encoding="UTF-8" standalone="no"?>
<svg
   width="115"
   height="95"
   id="svg2"
   sodipodi:version="0.32"
   inkscape:version="1.1.1 (1:1.1+202109281943+c3084ef5ed)"
   sodipodi:docname="Wye Inductor.svg"
   version="1.1"
   xmlns:inkscape="http://www.inkscape.org/namespaces/inkscape"
   xmlns:sodipodi="http://sodipodi.sourceforge.net/DTD/sodipodi-0.dtd"
   xmlns="http://www.w3.org/2000/svg"
   xmlns:svg="http://www.w3.org/2000/svg"
   xmlns:rdf="http://www.w3.org/1999/02/22-rdf-syntax-ns#"
   xmlns:cc="http://creativecommons.org/ns#"
   xmlns:dc="http://purl.org/dc/elements/1.1/">
  <metadata
     id="metadata131">
    <rdf:RDF>
      <cc:Work
         rdf:about="">
        <dc:format>image/svg+xml</dc:format>
        <dc:type
           rdf:resource="http://purl.org/dc/dcmitype/StillImage" />
      </cc:Work>
    </rdf:RDF>
  </metadata>
  <sodipodi:namedview
     inkscape:window-height="1379"
     inkscape:window-width="2560"
     inkscape:pageshadow="2"
     inkscape:pageopacity="0.0"
     guidetolerance="10.0"
     gridtolerance="10.0"
     objecttolerance="10.0"
     borderopacity="1.0"
     bordercolor="#666666"
     pagecolor="#ffffff"
     id="base"
     inkscape:zoom="8"
     inkscape:cx="49.5625"
     inkscape:cy="44.5625"
     inkscape:window-x="0"
     inkscape:window-y="30"
     inkscape:current-layer="svg2"
     showgrid="false"
     inkscape:snap-bbox="true"
     inkscape:snap-nodes="true"
     inkscape:bbox-paths="true"
     inkscape:window-maximized="1"
     inkscape:pagecheckerboard="0"
     inkscape:bbox-nodes="false"
     inkscape:snap-object-midpoints="true"
     inkscape:snap-center="true"
     inkscape:object-paths="true"
     inkscape:snap-intersection-paths="true" />
  <defs
     id="defs4">
    <marker
       id="ArrowEnd"
       viewBox="0 0 10 10"
       refX="0"
       refY="5"
       markerUnits="strokeWidth"
       markerWidth="4"
       markerHeight="3"
       orient="auto">
      <path
         d="M 0,0 10,5 0,10 Z"
         id="path7" />
    </marker>
    <marker
       id="ArrowStart"
       viewBox="0 0 10 10"
       refX="10"
       refY="5"
       markerUnits="strokeWidth"
       markerWidth="4"
       markerHeight="3"
       orient="auto">
      <path
         d="M 10,0 0,5 10,10 Z"
         id="path10" />
    </marker>
  </defs>
  <path
     inkscape:connector-curvature="0"
     id="path1303"
     d="m 57.502945,45.283624 -0.0035,-12.002086"
     style="fill:none;stroke:#fafafa;stroke-width:2;stroke-linecap:round;stroke-linejoin:round;stroke-miterlimit:4;stroke-dasharray:none"
     sodipodi:nodetypes="cc" />
  <path
     inkscape:connector-curvature="0"
     id="path1305"
     d="m 57.502942,77.283627 -0.0035,12.002091"
     style="fill:none;stroke:#fafafa;stroke-width:2;stroke-linecap:round;stroke-linejoin:round;stroke-miterlimit:4;stroke-dasharray:none"
     sodipodi:nodetypes="cc" />
  <path
     inkscape:connector-curvature="0"
     id="path1283"
     d="M 47.476315,27.493814 57.499476,33.28153"
     style="fill:none;stroke:#fafafa;stroke-width:2;stroke-linecap:round;stroke-linejoin:round;stroke-miterlimit:4;stroke-dasharray:none"
     sodipodi:nodetypes="cc" />
  <path
     inkscape:connector-curvature="0"
     id="path1285"
     d="M 19.763501,11.493815 9.7423453,5.7142851"
     style="fill:none;stroke:#fafafa;stroke-width:2;stroke-linecap:round;stroke-linejoin:round;stroke-miterlimit:4;stroke-dasharray:none"
     sodipodi:nodetypes="cc" />
  <path
     inkscape:connector-curvature="0"
     id="path5555"
     d="M 67.523689,27.493823 57.500527,33.28154"
     style="fill:none;stroke:#fafafa;stroke-width:2;stroke-linecap:round;stroke-linejoin:round;stroke-miterlimit:4;stroke-dasharray:none"
     sodipodi:nodetypes="cc" />
  <path
     inkscape:connector-curvature="0"
     id="path5557"
     d="M 95.797596,11.169877 105.25766,5.7142951"
     style="fill:none;stroke:#fafafa;stroke-width:2;stroke-linecap:round;stroke-linejoin:round;stroke-miterlimit:4;stroke-dasharray:none"
     sodipodi:nodetypes="cc" />
  <path
     inkscape:connector-curvature="0"
     id="path1279"
     d="m 12.956631,5.7127749 c 0,1.772773 -1.435462,3.2157981 -3.2142855,3.2157981 -1.7727732,0 -3.2142855,-1.4369746 -3.2142855,-3.2157981 0,-1.7712605 1.435462,-3.2127729 3.2142855,-3.2127729 1.7727735,0 3.2142855,1.435462 3.2142855,3.2127729"
     style="fill:#8cd5ff;fill-rule:evenodd;stroke:none;stroke-width:1" />
  <path
     inkscape:connector-curvature="0"
     id="path7331"
     d="m 60.71481,33.280022 c 0,1.772774 -1.435463,3.215799 -3.214286,3.215799 -1.772774,0 -3.214285,-1.436974 -3.214285,-3.215799 0,-1.771259 1.435461,-3.212772 3.214285,-3.212772 1.772773,0 3.214286,1.435462 3.214286,3.212772"
     style="fill:#fafafa;fill-rule:evenodd;stroke:none;stroke-width:1" />
  <path
     inkscape:connector-curvature="0"
     id="path7333"
     d="m 108.47194,5.7127788 c 0,1.7727739 -1.43546,3.2157985 -3.21429,3.2157985 -1.77277,0 -3.21428,-1.4369742 -3.21428,-3.2157985 0,-1.7712599 1.43546,-3.2127725 3.21428,-3.2127725 1.77278,0 3.21429,1.4354623 3.21429,3.2127725"
     style="fill:#ff8c82;fill-rule:evenodd;stroke:none;stroke-width:1" />
  <path
     inkscape:connector-curvature="0"
     id="path7335"
     d="m 60.713756,89.2842 c 0,1.772774 -1.435462,3.215798 -3.214285,3.215798 -1.772774,0 -3.214286,-1.436974 -3.214286,-3.215798 0,-1.77126 1.435462,-3.212773 3.214286,-3.212773 1.772773,0 3.214285,1.435463 3.214285,3.212773"
     style="fill:#d1ff82;fill-rule:evenodd;stroke:none;stroke-width:1" />
  <path
     style="fill:none;fill-opacity:0.75;fill-rule:evenodd;stroke:#fafafa;stroke-width:2;stroke-linecap:round;stroke-linejoin:round;stroke-miterlimit:4;stroke-dasharray:none;stroke-opacity:1"
     d="m 52.239454,30.243814 -4.76314,-2.750001 c 0,0 1.999998,-3.464101 -1.464104,-5.4641 -3.464101,-2.000001 -5.4641,1.464101 -5.4641,1.464101 0,0 1.999999,-3.464102 -1.464104,-5.464102 -3.464101,-2.000001 -5.464099,1.464101 -5.464099,1.464101 0,0 1.999998,-3.464102 -1.464104,-5.464102 -3.464101,-2 -5.464099,1.464102 -5.464099,1.464102 0,0 1.999998,-3.464102 -1.464104,-5.464101 -3.464101,-1.9999997 -5.4641,1.464102 -5.4641,1.464102 L 15.000361,8.7438133"
     id="path2483"
     sodipodi:nodetypes="ccscscscscc" />
  <path
     style="fill:none;fill-opacity:0.75;fill-rule:evenodd;stroke:#fafafa;stroke-width:2;stroke-linecap:round;stroke-linejoin:round;stroke-miterlimit:4;stroke-dasharray:none;stroke-opacity:1"
     d="m 62.760549,30.243824 4.76314,-2.750001 c 0,0 -1.999998,-3.464101 1.464104,-5.4641 3.464101,-2.000001 5.4641,1.464101 5.4641,1.464101 0,0 -1.999999,-3.464102 1.464104,-5.464102 3.464101,-2.000001 5.464099,1.464101 5.464099,1.464101 0,0 -1.999998,-3.464102 1.464104,-5.464102 3.464101,-2 5.464099,1.464102 5.464099,1.464102 0,0 -1.999998,-3.464102 1.464104,-5.464101 3.464101,-1.9999995 5.4641,1.464102 5.4641,1.464102 l 4.763139,-2.7500005"
     id="path1284"
     sodipodi:nodetypes="ccscscscscc" />
  <path
     style="fill:none;fill-opacity:0.75;fill-rule:evenodd;stroke:#fafafa;stroke-width:2;stroke-linecap:round;stroke-linejoin:round;stroke-miterlimit:4;stroke-dasharray:none;stroke-opacity:1"
     d="m 57.502945,39.783623 v 5.500001 c 0,0 3.999999,10e-7 3.999998,4.000001 10e-7,4 -3.999999,3.999999 -3.999999,3.999999 0,0 4,10e-7 3.999999,4.000002 10e-7,4 -3.999998,3.999998 -3.999998,3.999998 0,0 3.999999,2e-6 3.999999,4.000002 10e-7,4.000001 -3.999999,3.999999 -3.999999,3.999999 0,0 4,2e-6 3.999998,4.000001 -1e-6,4.000001 -4.000001,4.000001 -4.000001,4.000001 v 5.5"
     id="path1284-3"
     sodipodi:nodetypes="ccscscscscc" />
</svg>
