<svg
      xmlns="http://www.w3.org/2000/svg"
      width="105"
      height="90.001"
      version="1.1"
    >
      <defs>
        <marker
          markerHeight="3"
          markerUnits="strokeWidth"
          markerWidth="4"
          orient="auto"
          refX="0"
          refY="5"
          viewBox="0 0 10 10"
        >
          <path d="M0 0l10 5-10 5z"></path>
        </marker>
        <marker
          markerHeight="3"
          markerUnits="strokeWidth"
          markerWidth="4"
          orient="auto"
          refX="10"
          refY="5"
          viewBox="0 0 10 10"
        >
          <path d="M10 0L0 5l10 5z"></path>
        </marker>
      </defs>
      <path
        fill="#fafafa"
        strokeLinecap="round"
        strokeLinejoin="round"
        d="M46.053.002a1 1 0 00-.92.607L41.75 8.533l-1.23-2.887a1 1 0 00-.045-.064 1 1 0 00-.133-.195 1 1 0 00-.1-.1 1 1 0 00-.222-.144 1 1 0 00-.096-.041 1 1 0 00-.307-.057 1 1 0 00-.047-.002H29.547a1 1 0 00-.002 0H6.592a1 1 0 00-.871 1.492l11.474 20.373a1 1 0 00.002.002 1 1 0 00.002.006l4.696 8.168-2.875 3.861a1 1 0 00.92 1.59l8.535-1.021-5.155 6.914a1 1 0 00.922 1.59l8.533-1.02-5.152 6.912a1 1 0 00.92 1.59l8.535-1.021-1.879 2.525a1 1 0 00-.033.068 1 1 0 00-.105.223 1 1 0 00-.032.117 1 1 0 00-.013.268 1 1 0 00.004.088 1 1 0 00.113.332l5.015 8.716a1 1 0 00.002.006l.006.008 11.475 20.365a1 1 0 001.742 0l11.47-20.365 4.692-8.158 4.764.568a1 1 0 00.922-1.59l-5.155-6.914 8.536 1.022a1 1 0 00.92-1.59l-5.15-6.914 8.53 1.021a1 1 0 00.922-1.591L78.67 35.77l3.111.37a1 1 0 00.092-.007 1 1 0 00.248-.02 1 1 0 00.086-.023 1 1 0 00.31-.156 1 1 0 00.003-.002 1 1 0 00.26-.286l5.02-8.73a1 1 0 00.005-.008L99.279 6.535a1 1 0 00-.87-1.492H75.454a1 1 0 00-.004 0h-9.38L64.18.609a1 1 0 00-1.84 0l-3.383 7.926L55.577.61a1 1 0 00-1.84 0l-3.383 7.924L46.973.61a1 1 0 00-.92-.607zm8.603 3.547l3.383 7.926a1 1 0 001.838 0l3.383-7.926 1.232 2.887a1 1 0 00.02.027 1 1 0 00.2.295 1 1 0 00.005.002 1 1 0 00.287.187 1 1 0 00.07.03 1 1 0 00.336.066h10.042a1 1 0 00.003 0h21.242L86.068 25.916a1 1 0 00-.002.002l-.004.008-4.689 8.152-4.777-.57a1 1 0 00-.92 1.59l5.154 6.914-8.535-1.022a1 1 0 00-.922 1.59l5.152 6.914-8.533-1.021a1 1 0 00-.92 1.591l5.153 6.915-3.11-.372a1 1 0 00-.039.004 1 1 0 00-.34.024 1 1 0 00-.011.004 1 1 0 00-.307.156 1 1 0 00-.066.05 1 1 0 00-.221.257l-5.022 8.73a1 1 0 00-.002.006 1 1 0 00-.002.002L52.502 84.666 41.892 65.84a1 1 0 00-.003-.008l-4.694-8.16 2.877-3.865a1 1 0 00-.92-1.59l-8.535 1.021 5.154-6.914a1 1 0 00-.921-1.59l-8.532 1.02 5.15-6.914a1 1 0 00-.92-1.59l-8.534 1.021 1.879-2.523a1 1 0 00.07-1.078 1 1 0 00-.01-.022l-5.02-8.73a1 1 0 00-.005-.006L8.303 7.043h21.242a1 1 0 00.002 0h9.392l1.891 4.432a1 1 0 001.84 0l3.383-7.924 3.38 7.924a1 1 0 001.84 0l3.383-7.926z"
        color="#000"
      ></path>
      <path
        fill="#8cd5ff"
        stroke="none"
        strokeWidth="1"
        d="M3.3 6.043a3.293 3.296 0 106.585.001 3.293 3.296 0 00-6.586-.001"
      ></path>
      <path
        fill="#ff8c82"
        stroke="none"
        strokeWidth="1"
        d="M95.115 6.043a3.293 3.296 0 106.586.001 3.293 3.296 0 00-6.586-.001"
      ></path>
      <path
        fill="#d1ff82"
        stroke="none"
        strokeWidth="1"
        d="M49.207 86.703a3.293 3.296 0 106.586.002 3.293 3.296 0 00-6.586-.002"
      ></path>
    </svg>