<?xml version="1.0" encoding="UTF-8" standalone="no"?>
<svg
   width="105"
   height="90.00058"
   version="1.1"
   id="svg66"
   sodipodi:docname="DeltaBaked.svg"
   inkscape:version="1.1.1 (1:1.1+202109281943+c3084ef5ed)"
   xmlns:inkscape="http://www.inkscape.org/namespaces/inkscape"
   xmlns:sodipodi="http://sodipodi.sourceforge.net/DTD/sodipodi-0.dtd"
   xmlns="http://www.w3.org/2000/svg"
   xmlns:svg="http://www.w3.org/2000/svg">
  <sodipodi:namedview
     id="namedview68"
     pagecolor="#505050"
     bordercolor="#eeeeee"
     borderopacity="1"
     inkscape:pageshadow="0"
     inkscape:pageopacity="0"
     inkscape:pagecheckerboard="0"
     showgrid="false"
     inkscape:zoom="6.58"
     inkscape:cx="32.142857"
     inkscape:cy="35.182371"
     inkscape:window-width="2560"
     inkscape:window-height="1379"
     inkscape:window-x="0"
     inkscape:window-y="30"
     inkscape:window-maximized="1"
     inkscape:current-layer="svg66"
     inkscape:object-paths="true"
     inkscape:snap-intersection-paths="true"
     inkscape:snap-object-midpoints="true"
     inkscape:snap-center="true"
     width="89.65247px" />
  <defs
     id="defs10">
    <marker
       markerHeight="3"
       markerUnits="strokeWidth"
       markerWidth="4"
       orient="auto"
       refX="0"
       refY="5"
       viewBox="0 0 10 10"
       id="marker4">
      <path
         d="M 0,0 10,5 0,10 Z"
         id="path2" />
    </marker>
    <marker
       markerHeight="3"
       markerUnits="strokeWidth"
       markerWidth="4"
       orient="auto"
       refX="10"
       refY="5"
       viewBox="0 0 10 10"
       id="marker8">
      <path
         d="M 10,0 0,5 10,10 Z"
         id="path6" />
    </marker>
  </defs>
  <path
     id="path12"
     style="color:#000000;fill:#fafafa;stroke-linecap:round;stroke-linejoin:round;-inkscape-stroke:none"
     d="M 46.052734 0.001953125 A 1.0001 1.0001 0 0 0 45.132812 0.609375 L 41.75 8.5332031 L 40.519531 5.6464844 A 1 1 0 0 0 40.474609 5.5820312 A 1 1 0 0 0 40.341797 5.3867188 A 1 1 0 0 0 40.242188 5.2871094 A 1 1 0 0 0 40.019531 5.1425781 A 1 1 0 0 0 39.923828 5.1015625 A 1 1 0 0 0 39.617188 5.0449219 A 1 1 0 0 0 39.570312 5.0429688 L 29.546875 5.0429688 A 1 1 0 0 0 29.544922 5.0429688 L 6.5917969 5.0429688 A 1.0001 1.0001 0 0 0 5.7207031 6.5351562 L 17.195312 26.908203 A 1 1 0 0 0 17.197266 26.910156 A 1 1 0 0 0 17.199219 26.916016 L 21.894531 35.083984 L 19.019531 38.945312 A 1.0001 1.0001 0 0 0 19.939453 40.535156 L 28.474609 39.513672 L 23.320312 46.427734 A 1.0001 1.0001 0 0 0 24.242188 48.017578 L 32.775391 46.998047 L 27.623047 53.910156 A 1.0001 1.0001 0 0 0 28.542969 55.5 L 37.078125 54.478516 L 35.199219 57.003906 A 1 1 0 0 0 35.166016 57.072266 A 1 1 0 0 0 35.060547 57.294922 A 1 1 0 0 0 35.029297 57.412109 A 1 1 0 0 0 35.015625 57.679688 A 1 1 0 0 0 35.019531 57.767578 A 1 1 0 0 0 35.132812 58.099609 L 40.148438 66.816406 A 1 1 0 0 0 40.150391 66.822266 L 40.15625 66.830078 L 51.630859 87.195312 A 1.0001 1.0001 0 0 0 53.373047 87.195312 L 64.84375 66.830078 L 69.535156 58.671875 L 74.298828 59.240234 A 1.0001 1.0001 0 0 0 75.220703 57.650391 L 70.066406 50.736328 L 78.601562 51.757812 A 1.0001 1.0001 0 0 0 79.521484 50.167969 L 74.371094 43.253906 L 82.902344 44.275391 A 1.0001 1.0001 0 0 0 83.824219 42.683594 L 78.669922 35.769531 L 81.78125 36.140625 A 1 1 0 0 0 81.873047 36.132812 A 1 1 0 0 0 82.121094 36.113281 A 1 1 0 0 0 82.207031 36.089844 A 1 1 0 0 0 82.517578 35.933594 A 1 1 0 0 0 82.519531 35.931641 A 1 1 0 0 0 82.779297 35.646484 L 87.800781 26.916016 A 1 1 0 0 0 87.804688 26.908203 L 99.279297 6.5351562 A 1.0001 1.0001 0 0 0 98.408203 5.0429688 L 75.455078 5.0429688 A 1 1 0 0 0 75.451172 5.0429688 L 66.070312 5.0429688 L 64.179688 0.609375 A 1.0001 1.0001 0 0 0 62.339844 0.609375 L 58.957031 8.5351562 L 55.576172 0.609375 A 1.0001 1.0001 0 0 0 53.736328 0.609375 L 50.353516 8.5332031 L 46.972656 0.609375 A 1.0001 1.0001 0 0 0 46.052734 0.001953125 z M 54.65625 3.5488281 L 58.039062 11.474609 A 1.0001 1.0001 0 0 0 59.876953 11.474609 L 63.259766 3.5488281 L 64.492188 6.4355469 A 1 1 0 0 0 64.511719 6.4628906 A 1 1 0 0 0 64.712891 6.7578125 A 1 1 0 0 0 64.716797 6.7597656 A 1 1 0 0 0 65.003906 6.9472656 A 1 1 0 0 0 65.074219 6.9765625 A 1 1 0 0 0 65.410156 7.0429688 L 65.421875 7.0429688 L 75.451172 7.0429688 A 1 1 0 0 0 75.455078 7.0429688 L 96.697266 7.0429688 L 86.068359 25.916016 A 1 1 0 0 0 86.066406 25.917969 L 86.0625 25.925781 L 81.373047 34.078125 L 76.595703 33.507812 A 1.0001 1.0001 0 0 0 75.675781 35.097656 L 80.830078 42.011719 L 72.294922 40.990234 A 1.0001 1.0001 0 0 0 71.373047 42.580078 L 76.525391 49.494141 L 67.992188 48.472656 A 1.0001 1.0001 0 0 0 67.072266 50.064453 L 72.224609 56.978516 L 69.115234 56.607422 A 1 1 0 0 0 69.076172 56.611328 A 1 1 0 0 0 68.736328 56.634766 A 1 1 0 0 0 68.724609 56.638672 A 1 1 0 0 0 68.417969 56.794922 A 1 1 0 0 0 68.351562 56.845703 A 1 1 0 0 0 68.130859 57.101562 L 63.109375 65.832031 A 1 1 0 0 0 63.107422 65.837891 A 1 1 0 0 0 63.105469 65.839844 L 52.501953 84.666016 L 41.892578 65.839844 A 1 1 0 0 0 41.888672 65.832031 L 37.195312 57.671875 L 40.072266 53.806641 A 1.0001 1.0001 0 0 0 39.152344 52.216797 L 30.617188 53.238281 L 35.771484 46.324219 A 1.0001 1.0001 0 0 0 34.849609 44.734375 L 26.318359 45.753906 L 31.46875 38.839844 A 1.0001 1.0001 0 0 0 30.548828 37.25 L 22.013672 38.271484 L 23.892578 35.748047 A 1 1 0 0 0 23.962891 34.669922 A 1 1 0 0 0 23.953125 34.648438 L 18.933594 25.917969 A 1 1 0 0 0 18.927734 25.912109 L 8.3027344 7.0429688 L 29.544922 7.0429688 A 1 1 0 0 0 29.546875 7.0429688 L 38.939453 7.0429688 L 40.830078 11.474609 A 1.0001 1.0001 0 0 0 42.669922 11.474609 L 46.052734 3.5507812 L 49.433594 11.474609 A 1.0001 1.0001 0 0 0 51.273438 11.474609 L 54.65625 3.5488281 z " />
  <g
     fill="#000000"
     fillRule="evenodd"
     stroke="none"
     display="none"
     transform="translate(-4.1795271,-14.43915)"
     id="g64">
    <g
       transform="translate(28.693,-56.707)"
       id="g50">
      <path
         d="m 13.488,62.5 h 3.375 c 0.918,0 1.426,0.371 1.426,1.074 0,0.242 -0.035,0.543 -0.098,0.86 -0.296,1.429 -0.296,1.429 -0.296,1.89 0,0.215 0.011,0.371 0.054,0.672 h 1.567 l 0.066,-0.324 c -0.18,-0.168 -0.293,-0.438 -0.293,-0.746 0,-0.168 0.027,-0.406 0.086,-0.703 0.191,-0.961 0.309,-1.696 0.309,-1.95 0,-0.617 -0.188,-0.918 -0.868,-1.355 0.551,-0.309 0.778,-0.465 1.032,-0.691 0.566,-0.52 0.949,-1.469 0.949,-2.344 0,-1.496 -0.82,-2.176 -2.633,-2.176 h -4.762 l -2.195,10.297 h 1.328 z m 0.246,-1.098 0.77,-3.597 h 3.285 c 0.754,0 1.129,0.097 1.398,0.398 0.184,0.199 0.301,0.527 0.301,0.875 0,0.527 -0.215,1.16 -0.527,1.563 -0.41,0.515 -1.012,0.757 -1.926,0.757"
         id="path46" />
      <path
         d="m 25.441,69.719 c -0.085,-0.016 -0.12,-0.016 -0.16,-0.016 -0.246,0 -0.36,-0.082 -0.36,-0.269 0,-0.036 0,-0.063 0.009,-0.094 l 0.61,-2.824 c 0.054,-0.25 0.054,-0.25 0.054,-0.344 0,-0.637 -0.653,-1.059 -1.653,-1.059 -1.32,0 -2.128,0.551 -2.308,1.594 h 0.812 c 0.086,-0.269 0.153,-0.402 0.29,-0.535 0.21,-0.211 0.617,-0.356 1.035,-0.356 0.578,0 1.023,0.254 1.023,0.606 0,0.035 -0.008,0.101 -0.02,0.18 l -0.027,0.168 c -0.086,0.386 -0.27,0.492 -0.976,0.558 -1.297,0.113 -1.704,0.207 -2.176,0.5 -0.504,0.313 -0.793,0.813 -0.793,1.363 0,0.758 0.512,1.211 1.37,1.211 0.333,0 0.735,-0.062 1.075,-0.183 0.305,-0.102 0.445,-0.192 0.836,-0.528 v 0.102 c 0,0.379 0.266,0.609 0.723,0.609 0.101,0 0.133,0 0.37,-0.054 0.016,-0.008 0.075,-0.016 0.134,-0.028 z m -1.16,-1.09 c -0.125,0.574 -0.976,1.07 -1.824,1.07 -0.55,0 -0.86,-0.222 -0.86,-0.613 0,-0.305 0.184,-0.613 0.473,-0.781 0.23,-0.137 0.52,-0.215 0.992,-0.278 0.907,-0.117 0.985,-0.129 1.41,-0.269"
         id="path48" />
    </g>
    <g
       transform="translate(-56.605,-56.654)"
       id="g56">
      <path
         d="m 58.887,119.203 h 3.375 c 0.918,0 1.425,0.371 1.425,1.074 0,0.243 -0.035,0.543 -0.097,0.86 -0.297,1.429 -0.297,1.429 -0.297,1.89 0,0.215 0.012,0.371 0.055,0.672 h 1.566 l 0.066,-0.324 c -0.179,-0.168 -0.293,-0.437 -0.293,-0.746 0,-0.168 0.028,-0.406 0.086,-0.703 0.192,-0.961 0.31,-1.696 0.31,-1.949 0,-0.618 -0.189,-0.918 -0.868,-1.356 0.551,-0.309 0.777,-0.465 1.031,-0.691 0.566,-0.52 0.95,-1.469 0.95,-2.344 0,-1.496 -0.82,-2.176 -2.634,-2.176 h -4.76 l -2.197,10.297 h 1.33 z m 0.25,-1.101 0.77,-3.598 h 3.284 c 0.754,0 1.13,0.098 1.4,0.398 0.182,0.2 0.3,0.528 0.3,0.875 0,0.528 -0.215,1.161 -0.528,1.563 -0.41,0.515 -1.012,0.758 -1.926,0.758"
         id="path52" />
      <path
         d="m 67.582,119.902 -1.473,6.899 h 0.711 l 0.16,-0.739 c 0.121,0.286 0.207,0.418 0.352,0.559 0.246,0.238 0.637,0.379 1.055,0.379 0.636,0 1.312,-0.277 1.742,-0.699 0.637,-0.672 1.058,-1.758 1.058,-2.735 0,-1.062 -0.722,-1.859 -1.683,-1.859 -0.379,0 -0.809,0.109 -1.094,0.277 -0.16,0.102 -0.285,0.204 -0.578,0.508 l 0.551,-2.586 z m 1.68,2.5 c 0.703,0 1.13,0.496 1.13,1.317 a 3.27,3.27 0 0 1 -0.443,1.613 c -0.394,0.648 -0.894,0.965 -1.523,0.965 -0.657,0 -1.07,-0.477 -1.07,-1.231 0,-0.589 0.171,-1.242 0.441,-1.699 0.375,-0.629 0.887,-0.965 1.465,-0.965"
         id="path54" />
    </g>
    <g
       transform="translate(-11.105,0.049)"
       id="g62">
      <path
         d="m 98.586,62.5 h 3.375 c 0.918,0 1.426,0.371 1.426,1.074 0,0.242 -0.036,0.543 -0.098,0.86 -0.297,1.429 -0.297,1.429 -0.297,1.89 0,0.215 0.012,0.371 0.055,0.672 h 1.566 l 0.067,-0.324 c -0.18,-0.168 -0.293,-0.438 -0.293,-0.746 0,-0.168 0.027,-0.406 0.086,-0.703 0.191,-0.961 0.308,-1.696 0.308,-1.95 0,-0.617 -0.187,-0.918 -0.867,-1.355 0.551,-0.309 0.777,-0.465 1.031,-0.691 0.567,-0.52 0.949,-1.469 0.949,-2.344 0,-1.496 -0.82,-2.176 -2.632,-2.176 H 98.5 l -2.195,10.297 h 1.328 z m 0.25,-1.098 0.77,-3.597 h 3.285 c 0.753,0 1.128,0.097 1.398,0.398 0.184,0.199 0.301,0.527 0.301,0.875 0,0.527 -0.215,1.16 -0.528,1.563 -0.41,0.515 -1.011,0.757 -1.925,0.757"
         id="path58" />
      <path
         d="m 110.465,66.898 0.008,-0.14 c 0.007,-0.141 0.015,-0.242 0.015,-0.27 0,-0.308 -0.172,-0.683 -0.422,-0.937 -0.297,-0.301 -0.691,-0.442 -1.238,-0.442 -0.863,0 -1.644,0.356 -2.152,1.008 -0.45,0.574 -0.778,1.602 -0.778,2.469 0,0.441 0.153,0.902 0.418,1.234 0.325,0.403 0.754,0.582 1.364,0.582 0.781,0 1.437,-0.269 1.878,-0.777 0.247,-0.281 0.399,-0.602 0.551,-1.129 h -0.808 c -0.285,0.785 -0.821,1.207 -1.516,1.207 -0.664,0 -1.09,-0.465 -1.09,-1.211 0,-0.609 0.203,-1.336 0.531,-1.832 0.364,-0.562 0.856,-0.848 1.461,-0.848 0.621,0 1.004,0.336 1.004,0.883 v 0.211"
         id="path60" />
    </g>
  </g>
  <path
     d="m 3.2993777,6.0425588 a 3.2927564,3.2963745 0 1 0 6.585512,0.00145 3.2927564,3.2963745 0 0 0 -6.585512,-0.00145"
     id="path1133"
     style="fill:#8cd5ff;stroke:none;stroke-width:1" />
  <path
     d="m 95.11511,6.0425391 a 3.2927566,3.2963747 0 1 0 6.58551,0.00145 3.2927566,3.2963747 0 0 0 -6.58551,-0.00145"
     id="path862"
     style="fill:#ff8c82;stroke:none;stroke-width:1" />
  <path
     d="m 49.207244,86.70314 a 3.2927566,3.2963747 0 1 0 6.585513,0.0015 3.2927566,3.2963747 0 0 0 -6.585513,-0.0015"
     id="path944"
     style="fill:#d1ff82;stroke:none;stroke-width:1" />
</svg>
