<?xml version="1.0" encoding="UTF-8" standalone="no"?>
<svg
   width="89.652473"
   height="81.998329"
   version="1.1"
   id="svg66"
   sodipodi:docname="DeltaBaked.svg"
   inkscape:version="1.1.1 (1:1.1+202109281943+c3084ef5ed)"
   xmlns:inkscape="http://www.inkscape.org/namespaces/inkscape"
   xmlns:sodipodi="http://sodipodi.sourceforge.net/DTD/sodipodi-0.dtd"
   xmlns="http://www.w3.org/2000/svg"
   xmlns:svg="http://www.w3.org/2000/svg">
  <sodipodi:namedview
     id="namedview68"
     pagecolor="#505050"
     bordercolor="#eeeeee"
     borderopacity="1"
     inkscape:pageshadow="0"
     inkscape:pageopacity="0"
     inkscape:pagecheckerboard="0"
     showgrid="false"
     inkscape:zoom="6.58"
     inkscape:cx="57.142857"
     inkscape:cy="44.756839"
     inkscape:window-width="2560"
     inkscape:window-height="1379"
     inkscape:window-x="0"
     inkscape:window-y="30"
     inkscape:window-maximized="1"
     inkscape:current-layer="svg66"
     inkscape:object-paths="true"
     inkscape:snap-intersection-paths="true"
     inkscape:snap-object-midpoints="true"
     inkscape:snap-center="true" />
  <defs
     id="defs10">
    <marker
       markerHeight="3"
       markerUnits="strokeWidth"
       markerWidth="4"
       orient="auto"
       refX="0"
       refY="5"
       viewBox="0 0 10 10"
       id="marker4">
      <path
         d="M 0,0 10,5 0,10 Z"
         id="path2" />
    </marker>
    <marker
       markerHeight="3"
       markerUnits="strokeWidth"
       markerWidth="4"
       orient="auto"
       refX="10"
       refY="5"
       viewBox="0 0 10 10"
       id="marker8">
      <path
         d="M 10,0 0,5 10,10 Z"
         id="path6" />
    </marker>
  </defs>
  <path
     id="path12"
     style="color:#000000;fill:#fafafa;stroke-linecap:round;stroke-linejoin:round;-inkscape-stroke:none"
     d="M 38.951172 0.001953125 A 1.0001 1.0001 0 0 0 38.03125 0.60742188 L 35.033203 7.6289062 L 33.992188 5.1933594 A 1 1 0 0 0 33.947266 5.1289062 A 1 1 0 0 0 33.814453 4.9335938 A 1 1 0 0 0 33.714844 4.8339844 A 1 1 0 0 0 33.492188 4.6894531 A 1 1 0 0 0 33.396484 4.6484375 A 1 1 0 0 0 33.089844 4.5917969 A 1 1 0 0 0 33.042969 4.5898438 L 23.914062 4.5898438 A 1 1 0 0 0 23.912109 4.5898438 L 5.8222656 4.5898438 A 3.0000001 3 0 0 0 0 5.5878906 A 3.0000001 3 0 0 0 3.5019531 8.5410156 L 12.908203 25.410156 A 1 1 0 0 0 13.226562 25.740234 L 16.835938 32.011719 L 14.251953 35.478516 A 1.0001 1.0001 0 0 0 15.171875 37.068359 L 22.740234 36.164062 L 18.169922 42.289062 A 1.0001 1.0001 0 0 0 19.091797 43.878906 L 26.658203 42.974609 L 22.089844 49.099609 A 1.0001 1.0001 0 0 0 23.009766 50.689453 L 30.580078 49.785156 L 28.992188 51.914062 A 1 1 0 0 0 28.974609 51.951172 A 1 1 0 0 0 28.828125 52.259766 A 1 1 0 0 0 28.822266 52.292969 A 1 1 0 0 0 28.806641 52.605469 A 1 1 0 0 0 28.818359 52.695312 A 1 1 0 0 0 28.927734 53.009766 L 33.101562 60.257812 A 1 1 0 0 0 33.175781 60.484375 L 42.566406 77.037109 A 3.0000001 3 0 0 0 41.828125 78.998047 A 3.0000001 3 0 1 0 47.828125 78.998047 A 3.0000001 3 0 0 0 47.076172 77.019531 L 55.867188 61.255859 A 1 1 0 0 0 56.148438 60.955078 L 60.392578 53.582031 L 64.677734 54.09375 A 1.0001 1.0001 0 0 0 65.597656 52.501953 L 61.029297 46.378906 L 68.595703 47.283203 A 1.0001 1.0001 0 0 0 69.515625 45.691406 L 64.949219 39.568359 L 72.515625 40.472656 A 1.0001 1.0001 0 0 0 73.435547 38.882812 L 68.867188 32.755859 L 71.494141 33.070312 A 1 1 0 0 0 71.546875 33.066406 A 1 1 0 0 0 72.220703 32.867188 A 1 1 0 0 0 72.236328 32.855469 A 1 1 0 0 0 72.490234 32.576172 L 76.828125 25.041016 A 1 1 0 0 0 77.070312 24.757812 L 86.148438 8.5390625 A 3.0000001 3 0 0 0 89.652344 5.5898438 A 3.0000001 3 0 0 0 83.830078 4.5898438 L 65.740234 4.5898438 A 1 1 0 0 0 65.736328 4.5898438 L 57.25 4.5898438 L 55.548828 0.609375 A 1.0001 1.0001 0 0 0 53.710938 0.60742188 L 50.710938 7.6308594 L 47.710938 0.60742188 A 1.0001 1.0001 0 0 0 45.871094 0.60742188 L 42.871094 7.6289062 L 39.871094 0.60742188 A 1.0001 1.0001 0 0 0 38.951172 0.001953125 z M 38.951172 3.546875 L 41.951172 10.568359 A 1.0001 1.0001 0 0 0 43.791016 10.568359 L 46.791016 3.546875 L 49.791016 10.568359 A 1.0001 1.0001 0 0 0 51.628906 10.568359 L 54.628906 3.546875 L 55.669922 5.9824219 A 1 1 0 0 0 55.693359 6.0175781 A 1 1 0 0 0 55.888672 6.3007812 A 1 1 0 0 0 55.90625 6.3164062 A 1 1 0 0 0 56.177734 6.4921875 A 1 1 0 0 0 56.253906 6.5253906 A 1 1 0 0 0 56.589844 6.5898438 L 65.736328 6.5898438 A 1 1 0 0 0 65.738281 6.5898438 A 1 1 0 0 0 65.740234 6.5898438 L 83.832031 6.5898438 A 3.0000001 3 0 0 0 84.402344 7.5644531 L 75.550781 23.378906 A 1 1 0 0 0 75.332031 23.632812 L 71.085938 31.007812 L 66.791016 30.494141 A 1.0001 1.0001 0 0 0 65.871094 32.085938 L 70.4375 38.208984 L 62.871094 37.304688 A 1.0001 1.0001 0 0 0 61.951172 38.896484 L 66.519531 45.019531 L 58.951172 44.115234 A 1.0001 1.0001 0 0 0 58.03125 45.707031 L 62.599609 51.832031 L 59.974609 51.517578 A 1 1 0 0 0 59.929688 51.521484 A 1 1 0 0 0 59.585938 51.548828 A 1 1 0 0 0 59.574219 51.554688 A 1 1 0 0 0 59.283203 51.703125 A 1 1 0 0 0 59.210938 51.757812 A 1 1 0 0 0 58.990234 52.011719 L 55.054688 58.847656 A 1 1 0 0 0 54.736328 59.177734 L 45.328125 76.048828 A 3.0000001 3 0 0 0 44.306641 76.052734 L 35.349609 60.259766 A 1 1 0 0 0 35.236328 59.957031 L 30.988281 52.582031 L 33.574219 49.113281 A 1.0001 1.0001 0 0 0 32.654297 47.523438 L 25.087891 48.427734 L 29.65625 42.302734 A 1.0001 1.0001 0 0 0 28.734375 40.712891 L 21.166016 41.617188 L 25.736328 35.492188 A 1.0001 1.0001 0 0 0 24.816406 33.900391 L 17.246094 34.806641 L 18.833984 32.677734 A 1 1 0 0 0 18.974609 31.755859 A 1 1 0 0 0 18.939453 31.666016 A 1 1 0 0 0 18.90625 31.601562 A 1 1 0 0 0 18.894531 31.578125 L 14.320312 23.632812 A 1 1 0 0 0 14.037109 23.330078 L 5.2480469 7.5703125 A 3.0000001 3 0 0 0 5.8222656 6.5898438 L 23.912109 6.5898438 A 1 1 0 0 0 23.914062 6.5898438 L 32.414062 6.5898438 L 34.113281 10.568359 A 1.0001 1.0001 0 0 0 35.951172 10.568359 L 38.951172 3.546875 z " />
  <g
     fill="#000000"
     fillRule="evenodd"
     stroke="none"
     display="none"
     transform="translate(-0.41333281,-14.439697)"
     id="g64">
    <g
       transform="translate(28.693,-56.707)"
       id="g50">
      <path
         d="m 13.488,62.5 h 3.375 c 0.918,0 1.426,0.371 1.426,1.074 0,0.242 -0.035,0.543 -0.098,0.86 -0.296,1.429 -0.296,1.429 -0.296,1.89 0,0.215 0.011,0.371 0.054,0.672 h 1.567 l 0.066,-0.324 c -0.18,-0.168 -0.293,-0.438 -0.293,-0.746 0,-0.168 0.027,-0.406 0.086,-0.703 0.191,-0.961 0.309,-1.696 0.309,-1.95 0,-0.617 -0.188,-0.918 -0.868,-1.355 0.551,-0.309 0.778,-0.465 1.032,-0.691 0.566,-0.52 0.949,-1.469 0.949,-2.344 0,-1.496 -0.82,-2.176 -2.633,-2.176 h -4.762 l -2.195,10.297 h 1.328 z m 0.246,-1.098 0.77,-3.597 h 3.285 c 0.754,0 1.129,0.097 1.398,0.398 0.184,0.199 0.301,0.527 0.301,0.875 0,0.527 -0.215,1.16 -0.527,1.563 -0.41,0.515 -1.012,0.757 -1.926,0.757"
         id="path46" />
      <path
         d="m 25.441,69.719 c -0.085,-0.016 -0.12,-0.016 -0.16,-0.016 -0.246,0 -0.36,-0.082 -0.36,-0.269 0,-0.036 0,-0.063 0.009,-0.094 l 0.61,-2.824 c 0.054,-0.25 0.054,-0.25 0.054,-0.344 0,-0.637 -0.653,-1.059 -1.653,-1.059 -1.32,0 -2.128,0.551 -2.308,1.594 h 0.812 c 0.086,-0.269 0.153,-0.402 0.29,-0.535 0.21,-0.211 0.617,-0.356 1.035,-0.356 0.578,0 1.023,0.254 1.023,0.606 0,0.035 -0.008,0.101 -0.02,0.18 l -0.027,0.168 c -0.086,0.386 -0.27,0.492 -0.976,0.558 -1.297,0.113 -1.704,0.207 -2.176,0.5 -0.504,0.313 -0.793,0.813 -0.793,1.363 0,0.758 0.512,1.211 1.37,1.211 0.333,0 0.735,-0.062 1.075,-0.183 0.305,-0.102 0.445,-0.192 0.836,-0.528 v 0.102 c 0,0.379 0.266,0.609 0.723,0.609 0.101,0 0.133,0 0.37,-0.054 0.016,-0.008 0.075,-0.016 0.134,-0.028 z m -1.16,-1.09 c -0.125,0.574 -0.976,1.07 -1.824,1.07 -0.55,0 -0.86,-0.222 -0.86,-0.613 0,-0.305 0.184,-0.613 0.473,-0.781 0.23,-0.137 0.52,-0.215 0.992,-0.278 0.907,-0.117 0.985,-0.129 1.41,-0.269"
         id="path48" />
    </g>
    <g
       transform="translate(-56.605,-56.654)"
       id="g56">
      <path
         d="m 58.887,119.203 h 3.375 c 0.918,0 1.425,0.371 1.425,1.074 0,0.243 -0.035,0.543 -0.097,0.86 -0.297,1.429 -0.297,1.429 -0.297,1.89 0,0.215 0.012,0.371 0.055,0.672 h 1.566 l 0.066,-0.324 c -0.179,-0.168 -0.293,-0.437 -0.293,-0.746 0,-0.168 0.028,-0.406 0.086,-0.703 0.192,-0.961 0.31,-1.696 0.31,-1.949 0,-0.618 -0.189,-0.918 -0.868,-1.356 0.551,-0.309 0.777,-0.465 1.031,-0.691 0.566,-0.52 0.95,-1.469 0.95,-2.344 0,-1.496 -0.82,-2.176 -2.634,-2.176 h -4.76 l -2.197,10.297 h 1.33 z m 0.25,-1.101 0.77,-3.598 h 3.284 c 0.754,0 1.13,0.098 1.4,0.398 0.182,0.2 0.3,0.528 0.3,0.875 0,0.528 -0.215,1.161 -0.528,1.563 -0.41,0.515 -1.012,0.758 -1.926,0.758"
         id="path52" />
      <path
         d="m 67.582,119.902 -1.473,6.899 h 0.711 l 0.16,-0.739 c 0.121,0.286 0.207,0.418 0.352,0.559 0.246,0.238 0.637,0.379 1.055,0.379 0.636,0 1.312,-0.277 1.742,-0.699 0.637,-0.672 1.058,-1.758 1.058,-2.735 0,-1.062 -0.722,-1.859 -1.683,-1.859 -0.379,0 -0.809,0.109 -1.094,0.277 -0.16,0.102 -0.285,0.204 -0.578,0.508 l 0.551,-2.586 z m 1.68,2.5 c 0.703,0 1.13,0.496 1.13,1.317 a 3.27,3.27 0 0 1 -0.443,1.613 c -0.394,0.648 -0.894,0.965 -1.523,0.965 -0.657,0 -1.07,-0.477 -1.07,-1.231 0,-0.589 0.171,-1.242 0.441,-1.699 0.375,-0.629 0.887,-0.965 1.465,-0.965"
         id="path54" />
    </g>
    <g
       transform="translate(-11.105,0.049)"
       id="g62">
      <path
         d="m 98.586,62.5 h 3.375 c 0.918,0 1.426,0.371 1.426,1.074 0,0.242 -0.036,0.543 -0.098,0.86 -0.297,1.429 -0.297,1.429 -0.297,1.89 0,0.215 0.012,0.371 0.055,0.672 h 1.566 l 0.067,-0.324 c -0.18,-0.168 -0.293,-0.438 -0.293,-0.746 0,-0.168 0.027,-0.406 0.086,-0.703 0.191,-0.961 0.308,-1.696 0.308,-1.95 0,-0.617 -0.187,-0.918 -0.867,-1.355 0.551,-0.309 0.777,-0.465 1.031,-0.691 0.567,-0.52 0.949,-1.469 0.949,-2.344 0,-1.496 -0.82,-2.176 -2.632,-2.176 H 98.5 l -2.195,10.297 h 1.328 z m 0.25,-1.098 0.77,-3.597 h 3.285 c 0.753,0 1.128,0.097 1.398,0.398 0.184,0.199 0.301,0.527 0.301,0.875 0,0.527 -0.215,1.16 -0.528,1.563 -0.41,0.515 -1.011,0.757 -1.925,0.757"
         id="path58" />
      <path
         d="m 110.465,66.898 0.008,-0.14 c 0.007,-0.141 0.015,-0.242 0.015,-0.27 0,-0.308 -0.172,-0.683 -0.422,-0.937 -0.297,-0.301 -0.691,-0.442 -1.238,-0.442 -0.863,0 -1.644,0.356 -2.152,1.008 -0.45,0.574 -0.778,1.602 -0.778,2.469 0,0.441 0.153,0.902 0.418,1.234 0.325,0.403 0.754,0.582 1.364,0.582 0.781,0 1.437,-0.269 1.878,-0.777 0.247,-0.281 0.399,-0.602 0.551,-1.129 h -0.808 c -0.285,0.785 -0.821,1.207 -1.516,1.207 -0.664,0 -1.09,-0.465 -1.09,-1.211 0,-0.609 0.203,-1.336 0.531,-1.832 0.364,-0.562 0.856,-0.848 1.461,-0.848 0.621,0 1.004,0.336 1.004,0.883 v 0.211"
         id="path60" />
    </g>
  </g>
</svg>
