<svg
      xmlns="http://www.w3.org/2000/svg"
      width="89.652"
      height="81.998"
      version="1.1"
    >
      <defs>
        <marker
          markerHeight="3"
          markerUnits="strokeWidth"
          markerWidth="4"
          orient="auto"
          refX="0"
          refY="5"
          viewBox="0 0 10 10"
        >
          <path d="M0 0l10 5-10 5z"></path>
        </marker>
        <marker
          markerHeight="3"
          markerUnits="strokeWidth"
          markerWidth="4"
          orient="auto"
          refX="10"
          refY="5"
          viewBox="0 0 10 10"
        >
          <path d="M10 0L0 5l10 5z"></path>
        </marker>
      </defs>
      <path
        fill="#fafafa"
        strokeLinecap="round"
        strokeLinejoin="round"
        d="M38.951.002a1 1 0 00-.92.605L35.033 7.63l-1.04-2.436a1 1 0 00-.046-.064 1 1 0 00-.133-.195 1 1 0 00-.1-.1 1 1 0 00-.222-.145 1 1 0 00-.096-.04 1 1 0 00-.306-.057 1 1 0 00-.047-.002h-9.129a1 1 0 00-.002 0H5.822A3 3 0 000 5.588 3 3 0 003.502 8.54l9.406 16.87a1 1 0 00.319.33l3.609 6.27-2.584 3.468a1 1 0 00.92 1.59l7.568-.905-4.57 6.125a1 1 0 00.922 1.59l7.566-.904L22.09 49.1a1 1 0 00.92 1.59l7.57-.905-1.588 2.13a1 1 0 00-.017.036 1 1 0 00-.147.309 1 1 0 00-.006.033 1 1 0 00-.015.312 1 1 0 00.011.09 1 1 0 00.11.315l4.174 7.248a1 1 0 00.074.226l9.39 16.553a3 3 0 00-.738 1.961 3 3 0 106 0 3 3 0 00-.752-1.978l8.791-15.764a1 1 0 00.281-.3l4.245-7.374 4.285.512a1 1 0 00.92-1.592l-4.569-6.123 7.567.904a1 1 0 00.92-1.592l-4.567-6.123 7.567.905a1 1 0 00.92-1.59l-4.569-6.127 2.627.314a1 1 0 00.053-.004 1 1 0 00.674-.199 1 1 0 00.015-.012 1 1 0 00.254-.279l4.338-7.535a1 1 0 00.242-.283l9.078-16.219a3 3 0 003.504-2.95 3 3 0 00-5.822-1H65.74a1 1 0 00-.004 0H57.25L55.549.61A1 1 0 0053.71.607l-3 7.024-3-7.024a1 1 0 00-1.84 0l-3 7.022-3-7.022a1 1 0 00-.92-.605zm0 3.545l3 7.021a1 1 0 001.84 0l3-7.021 3 7.021a1 1 0 001.838 0l3-7.021 1.04 2.435a1 1 0 00.024.036 1 1 0 00.196.283 1 1 0 00.017.015 1 1 0 00.272.176 1 1 0 00.076.033 1 1 0 00.336.065h9.146a1 1 0 00.002 0 1 1 0 00.002 0h18.092a3 3 0 00.57.974L75.551 23.38a1 1 0 00-.219.254l-4.246 7.375-4.295-.514a1 1 0 00-.92 1.592l4.567 6.123-7.567-.904a1 1 0 00-.92 1.591l4.569 6.124-7.569-.905a1 1 0 00-.92 1.592l4.569 6.125-2.625-.314a1 1 0 00-.045.003 1 1 0 00-.344.028 1 1 0 00-.012.006 1 1 0 00-.29.148 1 1 0 00-.073.055 1 1 0 00-.22.254l-3.936 6.836a1 1 0 00-.319.33l-9.408 16.87a3 3 0 00-1.021.005L35.35 60.26a1 1 0 00-.114-.303l-4.248-7.375 2.586-3.469a1 1 0 00-.92-1.59l-7.566.905 4.568-6.125a1 1 0 00-.922-1.59l-7.568.904 4.57-6.125a1 1 0 00-.92-1.592l-7.57.907 1.588-2.13a1 1 0 00.14-.921 1 1 0 00-.035-.09 1 1 0 00-.033-.064 1 1 0 00-.011-.024l-4.575-7.945a1 1 0 00-.283-.303L5.248 7.57a3 3 0 00.574-.98h18.09a1 1 0 00.002 0h8.5l1.7 3.978a1 1 0 001.837 0l3-7.021z"
        color="#000"
      ></path>
    </svg>