<?xml version="1.0" encoding="UTF-8" standalone="no"?>
<svg
   width="106.69995"
   height="100.00411"
   version="1.1"
   id="svg66"
   sodipodi:docname="DeltaBaked.svg"
   inkscape:version="1.1.1 (1:1.1+202109281943+c3084ef5ed)"
   xmlns:inkscape="http://www.inkscape.org/namespaces/inkscape"
   xmlns:sodipodi="http://sodipodi.sourceforge.net/DTD/sodipodi-0.dtd"
   xmlns="http://www.w3.org/2000/svg"
   xmlns:svg="http://www.w3.org/2000/svg">
  <sodipodi:namedview
     id="namedview68"
     pagecolor="#505050"
     bordercolor="#eeeeee"
     borderopacity="1"
     inkscape:pageshadow="0"
     inkscape:pageopacity="0"
     inkscape:pagecheckerboard="0"
     showgrid="false"
     inkscape:zoom="9.3055252"
     inkscape:cx="82.961464"
     inkscape:cy="51.743452"
     inkscape:window-width="2560"
     inkscape:window-height="1379"
     inkscape:window-x="0"
     inkscape:window-y="30"
     inkscape:window-maximized="1"
     inkscape:current-layer="svg66" />
  <defs
     id="defs10">
    <marker
       markerHeight="3"
       markerUnits="strokeWidth"
       markerWidth="4"
       orient="auto"
       refX="0"
       refY="5"
       viewBox="0 0 10 10"
       id="marker4">
      <path
         d="M 0,0 10,5 0,10 Z"
         id="path2" />
    </marker>
    <marker
       markerHeight="3"
       markerUnits="strokeWidth"
       markerWidth="4"
       orient="auto"
       refX="10"
       refY="5"
       viewBox="0 0 10 10"
       id="marker8">
      <path
         d="M 10,0 0,5 10,10 Z"
         id="path6" />
    </marker>
  </defs>
  <path
     id="path32"
     style="color:#000000;fill:#fafafa;stroke-linecap:round;stroke-linejoin:round;-inkscape-stroke:none"
     d="M 46.195312 1.5429688 A 1.000105 1.000105 0 0 0 45.275391 2.1503906 L 41.417969 11.179688 L 39.945312 7.7402344 A 1.000105 1.000105 0 0 0 39.025391 7.1328125 L 27.873047 7.1367188 L 4.5546875 7.1367188 A 2.3877149 2.395431 0 0 0 0 8.1367188 A 2.3877149 2.395431 0 0 0 2.5898438 10.521484 L 14.257812 31.224609 A 1.000105 1.000105 0 0 0 14.263672 31.232422 L 19.511719 40.349609 L 16.275391 44.693359 A 1.000105 1.000105 0 0 0 17.197266 46.285156 L 26.923828 45.121094 L 21.052734 52.994141 A 1.000105 1.000105 0 0 0 21.972656 54.583984 L 31.699219 53.421875 L 25.828125 61.292969 A 1.000105 1.000105 0 0 0 26.748047 62.884766 L 36.474609 61.722656 L 34.236328 64.724609 A 1.000105 1.000105 0 0 0 34.167969 65.816406 L 39.347656 74.929688 L 51.416016 96.208984 A 2.3877149 2.395431 0 0 0 50.962891 97.607422 A 2.3877149 2.395431 0 1 0 55.738281 97.609375 A 2.3877149 2.395431 0 0 0 55.279297 96.205078 L 67.351562 74.550781 L 67.361328 74.533203 L 67.365234 74.527344 L 72.193359 66.392578 L 77.564453 67.033203 A 1.000105 1.000105 0 0 0 78.484375 65.441406 L 72.613281 57.570312 L 82.339844 58.732422 A 1.000105 1.000105 0 0 0 83.259766 57.142578 L 77.388672 49.269531 L 87.115234 50.433594 A 1.000105 1.000105 0 0 0 88.035156 48.841797 L 82.162109 40.966797 L 85.876953 41.410156 A 1.000105 1.000105 0 0 0 86.857422 40.923828 L 92.439453 31.40625 A 1.000105 1.000105 0 0 0 92.449219 31.388672 L 104.12305 10.523438 A 2.387715 2.3954311 0 0 0 106.69922 8.1367188 A 2.387715 2.3954311 0 0 0 102.14453 7.1367188 L 78.832031 7.1367188 L 68.345703 7.1367188 L 66.216797 2.1503906 A 1.000105 1.000105 0 0 0 64.376953 2.1503906 L 60.521484 11.175781 L 56.666016 2.1503906 A 1.000105 1.000105 0 0 0 54.826172 2.1503906 L 50.970703 11.175781 L 47.115234 2.1503906 A 1.000105 1.000105 0 0 0 46.195312 1.5429688 z M 46.195312 5.0898438 L 50.050781 14.117188 A 1.000105 1.000105 0 0 0 51.890625 14.117188 L 55.746094 5.0898438 L 59.601562 14.117188 A 1.000105 1.000105 0 0 0 61.441406 14.117188 L 65.296875 5.0898438 L 66.765625 8.5292969 A 1.000105 1.000105 0 0 0 67.685547 9.1367188 L 78.832031 9.1367188 L 102.14453 9.1367188 A 2.387715 2.3954311 0 0 0 102.38281 9.5390625 L 90.708984 30.404297 L 85.462891 39.347656 L 80.087891 38.707031 A 1.000105 1.000105 0 0 0 79.167969 40.296875 L 85.039062 48.169922 L 75.3125 47.005859 A 1.000105 1.000105 0 0 0 74.392578 48.597656 L 80.263672 56.46875 L 70.537109 55.306641 A 1.000105 1.000105 0 0 0 69.617188 56.896484 L 75.488281 64.771484 L 71.785156 64.328125 A 1.000105 1.000105 0 0 0 70.806641 64.810547 L 65.630859 73.53125 A 1.000005 1.000005 0 0 0 65.628906 73.544922 A 1.000005 1.000005 0 0 0 65.617188 73.554688 L 53.537109 95.222656 A 2.3877149 2.395431 0 0 0 53.154297 95.222656 L 41.087891 73.943359 L 36.230469 65.396484 L 39.470703 61.048828 A 1.000105 1.000105 0 0 0 38.550781 59.458984 L 28.824219 60.621094 L 34.695312 52.75 A 1.000105 1.000105 0 0 0 33.775391 51.158203 L 24.048828 52.320312 L 29.919922 44.449219 A 1.000105 1.000105 0 0 0 28.998047 42.857422 L 19.269531 44.021484 L 21.507812 41.015625 A 1.000105 1.000105 0 0 0 21.572266 39.919922 L 15.998047 30.238281 L 4.3261719 9.5292969 A 2.3877149 2.395431 0 0 0 4.5546875 9.1367188 L 27.873047 9.1367188 L 38.367188 9.1328125 L 40.501953 14.117188 A 1.000105 1.000105 0 0 0 42.339844 14.117188 L 46.195312 5.0898438 z " />
  <g
     fill="#000000"
     fillRule="evenodd"
     stroke="none"
     display="none"
     transform="translate(-1.0199998,-12.897582)"
     id="g64">
    <g
       transform="translate(28.693,-56.707)"
       id="g50">
      <path
         d="m 13.488,62.5 h 3.375 c 0.918,0 1.426,0.371 1.426,1.074 0,0.242 -0.035,0.543 -0.098,0.86 -0.296,1.429 -0.296,1.429 -0.296,1.89 0,0.215 0.011,0.371 0.054,0.672 h 1.567 l 0.066,-0.324 c -0.18,-0.168 -0.293,-0.438 -0.293,-0.746 0,-0.168 0.027,-0.406 0.086,-0.703 0.191,-0.961 0.309,-1.696 0.309,-1.95 0,-0.617 -0.188,-0.918 -0.868,-1.355 0.551,-0.309 0.778,-0.465 1.032,-0.691 0.566,-0.52 0.949,-1.469 0.949,-2.344 0,-1.496 -0.82,-2.176 -2.633,-2.176 h -4.762 l -2.195,10.297 h 1.328 z m 0.246,-1.098 0.77,-3.597 h 3.285 c 0.754,0 1.129,0.097 1.398,0.398 0.184,0.199 0.301,0.527 0.301,0.875 0,0.527 -0.215,1.16 -0.527,1.563 -0.41,0.515 -1.012,0.757 -1.926,0.757"
         id="path46" />
      <path
         d="m 25.441,69.719 c -0.085,-0.016 -0.12,-0.016 -0.16,-0.016 -0.246,0 -0.36,-0.082 -0.36,-0.269 0,-0.036 0,-0.063 0.009,-0.094 l 0.61,-2.824 c 0.054,-0.25 0.054,-0.25 0.054,-0.344 0,-0.637 -0.653,-1.059 -1.653,-1.059 -1.32,0 -2.128,0.551 -2.308,1.594 h 0.812 c 0.086,-0.269 0.153,-0.402 0.29,-0.535 0.21,-0.211 0.617,-0.356 1.035,-0.356 0.578,0 1.023,0.254 1.023,0.606 0,0.035 -0.008,0.101 -0.02,0.18 l -0.027,0.168 c -0.086,0.386 -0.27,0.492 -0.976,0.558 -1.297,0.113 -1.704,0.207 -2.176,0.5 -0.504,0.313 -0.793,0.813 -0.793,1.363 0,0.758 0.512,1.211 1.37,1.211 0.333,0 0.735,-0.062 1.075,-0.183 0.305,-0.102 0.445,-0.192 0.836,-0.528 v 0.102 c 0,0.379 0.266,0.609 0.723,0.609 0.101,0 0.133,0 0.37,-0.054 0.016,-0.008 0.075,-0.016 0.134,-0.028 z m -1.16,-1.09 c -0.125,0.574 -0.976,1.07 -1.824,1.07 -0.55,0 -0.86,-0.222 -0.86,-0.613 0,-0.305 0.184,-0.613 0.473,-0.781 0.23,-0.137 0.52,-0.215 0.992,-0.278 0.907,-0.117 0.985,-0.129 1.41,-0.269"
         id="path48" />
    </g>
    <g
       transform="translate(-56.605,-56.654)"
       id="g56">
      <path
         d="m 58.887,119.203 h 3.375 c 0.918,0 1.425,0.371 1.425,1.074 0,0.243 -0.035,0.543 -0.097,0.86 -0.297,1.429 -0.297,1.429 -0.297,1.89 0,0.215 0.012,0.371 0.055,0.672 h 1.566 l 0.066,-0.324 c -0.179,-0.168 -0.293,-0.437 -0.293,-0.746 0,-0.168 0.028,-0.406 0.086,-0.703 0.192,-0.961 0.31,-1.696 0.31,-1.949 0,-0.618 -0.189,-0.918 -0.868,-1.356 0.551,-0.309 0.777,-0.465 1.031,-0.691 0.566,-0.52 0.95,-1.469 0.95,-2.344 0,-1.496 -0.82,-2.176 -2.634,-2.176 h -4.76 l -2.197,10.297 h 1.33 z m 0.25,-1.101 0.77,-3.598 h 3.284 c 0.754,0 1.13,0.098 1.4,0.398 0.182,0.2 0.3,0.528 0.3,0.875 0,0.528 -0.215,1.161 -0.528,1.563 -0.41,0.515 -1.012,0.758 -1.926,0.758"
         id="path52" />
      <path
         d="m 67.582,119.902 -1.473,6.899 h 0.711 l 0.16,-0.739 c 0.121,0.286 0.207,0.418 0.352,0.559 0.246,0.238 0.637,0.379 1.055,0.379 0.636,0 1.312,-0.277 1.742,-0.699 0.637,-0.672 1.058,-1.758 1.058,-2.735 0,-1.062 -0.722,-1.859 -1.683,-1.859 -0.379,0 -0.809,0.109 -1.094,0.277 -0.16,0.102 -0.285,0.204 -0.578,0.508 l 0.551,-2.586 z m 1.68,2.5 c 0.703,0 1.13,0.496 1.13,1.317 a 3.27,3.27 0 0 1 -0.443,1.613 c -0.394,0.648 -0.894,0.965 -1.523,0.965 -0.657,0 -1.07,-0.477 -1.07,-1.231 0,-0.589 0.171,-1.242 0.441,-1.699 0.375,-0.629 0.887,-0.965 1.465,-0.965"
         id="path54" />
    </g>
    <g
       transform="translate(-11.105,0.049)"
       id="g62">
      <path
         d="m 98.586,62.5 h 3.375 c 0.918,0 1.426,0.371 1.426,1.074 0,0.242 -0.036,0.543 -0.098,0.86 -0.297,1.429 -0.297,1.429 -0.297,1.89 0,0.215 0.012,0.371 0.055,0.672 h 1.566 l 0.067,-0.324 c -0.18,-0.168 -0.293,-0.438 -0.293,-0.746 0,-0.168 0.027,-0.406 0.086,-0.703 0.191,-0.961 0.308,-1.696 0.308,-1.95 0,-0.617 -0.187,-0.918 -0.867,-1.355 0.551,-0.309 0.777,-0.465 1.031,-0.691 0.567,-0.52 0.949,-1.469 0.949,-2.344 0,-1.496 -0.82,-2.176 -2.632,-2.176 H 98.5 l -2.195,10.297 h 1.328 z m 0.25,-1.098 0.77,-3.597 h 3.285 c 0.753,0 1.128,0.097 1.398,0.398 0.184,0.199 0.301,0.527 0.301,0.875 0,0.527 -0.215,1.16 -0.528,1.563 -0.41,0.515 -1.011,0.757 -1.925,0.757"
         id="path58" />
      <path
         d="m 110.465,66.898 0.008,-0.14 c 0.007,-0.141 0.015,-0.242 0.015,-0.27 0,-0.308 -0.172,-0.683 -0.422,-0.937 -0.297,-0.301 -0.691,-0.442 -1.238,-0.442 -0.863,0 -1.644,0.356 -2.152,1.008 -0.45,0.574 -0.778,1.602 -0.778,2.469 0,0.441 0.153,0.902 0.418,1.234 0.325,0.403 0.754,0.582 1.364,0.582 0.781,0 1.437,-0.269 1.878,-0.777 0.247,-0.281 0.399,-0.602 0.551,-1.129 h -0.808 c -0.285,0.785 -0.821,1.207 -1.516,1.207 -0.664,0 -1.09,-0.465 -1.09,-1.211 0,-0.609 0.203,-1.336 0.531,-1.832 0.364,-0.562 0.856,-0.848 1.461,-0.848 0.621,0 1.004,0.336 1.004,0.883 v 0.211"
         id="path60" />
    </g>
  </g>
</svg>
