<svg
      xmlns="http://www.w3.org/2000/svg"
      width="106.7"
      height="100.004"
      version="1.1"
    >
      <defs>
        <marker
          markerHeight="3"
          markerUnits="strokeWidth"
          markerWidth="4"
          orient="auto"
          refX="0"
          refY="5"
          viewBox="0 0 10 10"
        >
          <path d="M0 0l10 5-10 5z"></path>
        </marker>
        <marker
          markerHeight="3"
          markerUnits="strokeWidth"
          markerWidth="4"
          orient="auto"
          refX="10"
          refY="5"
          viewBox="0 0 10 10"
        >
          <path d="M10 0L0 5l10 5z"></path>
        </marker>
      </defs>
      <path
        fill="#fafafa"
        strokeLinecap="round"
        strokeLinejoin="round"
        d="M46.195 1.543a1 1 0 00-.92.607l-3.857 9.03-1.473-3.44a1 1 0 00-.92-.607l-11.152.004H4.555a2.388 2.395 0 00-4.555 1 2.388 2.395 0 002.59 2.384l11.668 20.704a1 1 0 00.006.007l5.248 9.118-3.237 4.343a1 1 0 00.922 1.592l9.727-1.164-5.871 7.873a1 1 0 00.92 1.59l9.726-1.162-5.87 7.871a1 1 0 00.919 1.592l9.727-1.162-2.239 3.002a1 1 0 00-.068 1.091l5.18 9.114 12.068 21.279a2.388 2.395 0 00-.453 1.398 2.388 2.395 0 104.775.002 2.388 2.395 0 00-.459-1.404l12.073-21.654.01-.018.003-.006 4.828-8.134 5.371.64a1 1 0 00.92-1.592l-5.87-7.87 9.726 1.161a1 1 0 00.92-1.59l-5.871-7.872 9.726 1.164a1 1 0 00.92-1.592l-5.873-7.875 3.715.443a1 1 0 00.98-.486l5.582-9.518a1 1 0 00.01-.017l11.674-20.866a2.388 2.395 0 002.576-2.386 2.388 2.395 0 00-4.554-1H68.346l-2.13-4.987a1 1 0 00-1.839 0l-3.856 9.026-3.855-9.026a1 1 0 00-1.84 0l-3.855 9.026-3.856-9.026a1 1 0 00-.92-.607zm0 3.547l3.856 9.027a1 1 0 001.84 0l3.855-9.027 3.856 9.027a1 1 0 001.84 0l3.855-9.027 1.469 3.44a1 1 0 00.92.607h34.459a2.388 2.395 0 00.238.402L90.709 30.404l-5.246 8.944-5.375-.641a1 1 0 00-.92 1.59l5.871 7.873-9.727-1.164a1 1 0 00-.92 1.592l5.872 7.87-9.727-1.161a1 1 0 00-.92 1.59l5.871 7.874-3.703-.443a1 1 0 00-.978.483l-5.176 8.72a1 1 0 00-.002.014 1 1 0 00-.012.01l-12.08 21.668a2.388 2.395 0 00-.383 0l-12.066-21.28-4.858-8.547 3.24-4.347a1 1 0 00-.92-1.59l-9.726 1.162 5.871-7.871a1 1 0 00-.92-1.592L24.05 52.32l5.87-7.87a1 1 0 00-.921-1.593l-9.728 1.164 2.238-3.005a1 1 0 00.064-1.096l-5.574-9.682L4.326 9.53a2.388 2.395 0 00.229-.392h23.318l10.494-.004 2.135 4.984a1 1 0 001.838 0l3.855-9.027z"
        color="#000"
      ></path>
    </svg>