<?xml version="1.0" encoding="UTF-8" standalone="no"?>
<svg
   width="94.825562"
   height="81.996872"
   version="1.1"
   id="svg66"
   sodipodi:docname="Pi Baked.svg"
   inkscape:version="1.1.1 (1:1.1+202109281943+c3084ef5ed)"
   xmlns:inkscape="http://www.inkscape.org/namespaces/inkscape"
   xmlns:sodipodi="http://sodipodi.sourceforge.net/DTD/sodipodi-0.dtd"
   xmlns="http://www.w3.org/2000/svg"
   xmlns:svg="http://www.w3.org/2000/svg">
  <sodipodi:namedview
     id="namedview68"
     pagecolor="#505050"
     bordercolor="#eeeeee"
     borderopacity="1"
     inkscape:pageshadow="0"
     inkscape:pageopacity="0"
     inkscape:pagecheckerboard="0"
     showgrid="false"
     inkscape:zoom="9.3055252"
     inkscape:cx="33.098615"
     inkscape:cy="35.409071"
     inkscape:window-width="2560"
     inkscape:window-height="1379"
     inkscape:window-x="0"
     inkscape:window-y="30"
     inkscape:window-maximized="1"
     inkscape:current-layer="svg66"
     inkscape:object-paths="true"
     inkscape:snap-intersection-paths="true"
     inkscape:snap-object-midpoints="true"
     inkscape:snap-center="true" />
  <defs
     id="defs10">
    <marker
       markerHeight="3"
       markerUnits="strokeWidth"
       markerWidth="4"
       orient="auto"
       refX="0"
       refY="5"
       viewBox="0 0 10 10"
       id="marker4">
      <path
         d="M 0,0 10,5 0,10 Z"
         id="path2" />
    </marker>
    <marker
       markerHeight="3"
       markerUnits="strokeWidth"
       markerWidth="4"
       orient="auto"
       refX="10"
       refY="5"
       viewBox="0 0 10 10"
       id="marker8">
      <path
         d="M 10,0 0,5 10,10 Z"
         id="path6" />
    </marker>
  </defs>
  <path
     id="path12"
     style="color:#000000;fill:#fafafa;stroke-linecap:round;stroke-linejoin:round;-inkscape-stroke:none"
     d="M 41.537109 0 A 1.0001 1.0001 0 0 0 40.617188 0.60742188 L 37.617188 7.6289062 L 36.576172 5.1914062 A 1 1 0 0 0 36.537109 5.1347656 A 1 1 0 0 0 36.404297 4.9394531 A 1 1 0 0 0 36.289062 4.8261719 A 1 1 0 0 0 36.078125 4.6894531 A 1 1 0 0 0 35.980469 4.6464844 A 1 1 0 0 0 35.662109 4.5898438 A 1 1 0 0 0 35.634766 4.5878906 L 8.4042969 4.5878906 A 3.0000001 3 0 0 0 2.5839844 5.5878906 A 3.0000001 3 0 0 0 4.5839844 8.4101562 L 4.5878906 29.875 L 0.60742188 31.574219 A 1.0001 1.0001 0 0 0 0.60742188 33.414062 L 7.6289062 36.414062 L 0.60742188 39.414062 A 1.0001 1.0001 0 0 0 0.60742188 41.251953 L 7.6289062 44.251953 L 0.60742188 47.251953 A 1.0001 1.0001 0 0 0 0.60742188 49.091797 L 7.6269531 52.091797 L 5.2011719 53.126953 L 5.1914062 53.130859 A 1 1 0 0 0 5.0292969 53.242188 A 1 1 0 0 0 4.8730469 53.347656 A 1 1 0 0 0 4.7636719 53.513672 A 1 1 0 0 0 4.6582031 53.673828 A 1 1 0 0 0 4.6347656 53.798828 A 1 1 0 0 0 4.5839844 54.050781 L 4.5839844 76.173828 A 3.0000001 3 0 0 0 2.5839844 78.996094 A 3.0000001 3 0 0 0 8.40625 79.996094 L 86.416016 79.996094 A 3.0000001 3 0 0 0 92.236328 78.998047 A 3.0000001 3 0 0 0 90.236328 76.173828 L 90.236328 54.712891 L 94.21875 53.011719 A 1.0001 1.0001 0 0 0 94.21875 51.171875 L 87.197266 48.171875 L 94.21875 45.171875 A 1.0001 1.0001 0 0 0 94.21875 43.332031 L 87.195312 40.332031 L 94.21875 37.332031 A 1.0001 1.0001 0 0 0 94.21875 35.494141 L 87.197266 32.494141 L 89.632812 31.453125 A 1 1 0 0 0 89.9375 31.246094 A 1 1 0 0 0 89.955078 31.228516 A 1 1 0 0 0 90.164062 30.916016 A 1 1 0 0 0 90.164062 30.914062 A 1 1 0 0 0 90.164062 30.912109 A 1 1 0 0 0 90.238281 30.546875 A 1 1 0 0 0 90.240234 30.533203 L 90.236328 8.4101562 A 3.0000001 3 0 0 0 92.236328 5.5878906 A 3.0000001 3 0 0 0 86.416016 4.5878906 L 68.324219 4.5878906 A 1 1 0 0 0 68.320312 4.5878906 L 59.833984 4.5878906 L 58.134766 0.60742188 A 1.0001 1.0001 0 0 0 56.294922 0.60742188 L 53.294922 7.6289062 L 50.294922 0.60742188 A 1.0001 1.0001 0 0 0 48.455078 0.60742188 L 45.455078 7.6308594 L 42.455078 0.60742188 A 1.0001 1.0001 0 0 0 41.537109 0 z M 41.537109 3.5429688 L 44.537109 10.566406 A 1.0001 1.0001 0 0 0 46.375 10.566406 L 49.375 3.5449219 L 52.375 10.566406 A 1.0001 1.0001 0 0 0 54.214844 10.566406 L 57.214844 3.546875 L 58.253906 5.9804688 A 1 1 0 0 0 58.277344 6.015625 A 1 1 0 0 0 58.472656 6.2988281 A 1 1 0 0 0 58.490234 6.3144531 A 1 1 0 0 0 58.761719 6.4902344 A 1 1 0 0 0 58.837891 6.5234375 A 1 1 0 0 0 59.173828 6.5878906 L 68.320312 6.5878906 A 1 1 0 0 0 68.322266 6.5878906 A 1 1 0 0 0 68.324219 6.5878906 L 86.416016 6.5878906 A 3.0000001 3 0 0 0 88.236328 8.4101562 L 88.240234 29.875 L 84.259766 31.574219 A 1.0001 1.0001 0 0 0 84.259766 33.414062 L 91.283203 36.414062 L 84.259766 39.414062 A 1.0001 1.0001 0 0 0 84.259766 41.251953 L 91.28125 44.251953 L 84.259766 47.251953 A 1.0001 1.0001 0 0 0 84.259766 49.091797 L 91.279297 52.091797 L 88.84375 53.130859 A 1 1 0 0 0 88.681641 53.242188 A 1 1 0 0 0 88.525391 53.347656 A 1 1 0 0 0 88.416016 53.513672 A 1 1 0 0 0 88.310547 53.673828 A 1 1 0 0 0 88.287109 53.798828 A 1 1 0 0 0 88.236328 54.050781 L 88.236328 76.173828 A 3.0000001 3 0 0 0 86.416016 77.996094 L 8.4042969 77.996094 A 3.0000001 3 0 0 0 6.5839844 76.173828 L 6.5839844 54.710938 L 10.566406 53.011719 A 1.0001 1.0001 0 0 0 10.566406 51.171875 L 3.5449219 48.171875 L 10.566406 45.171875 A 1.0001 1.0001 0 0 0 10.566406 43.332031 L 3.5449219 40.332031 L 10.566406 37.333984 A 1.0001 1.0001 0 0 0 10.566406 35.494141 L 3.5449219 32.494141 L 5.9707031 31.457031 L 5.9804688 31.453125 A 1 1 0 0 0 6.1191406 31.380859 A 1 1 0 0 0 6.2460938 31.287109 A 1 1 0 0 0 6.3554688 31.173828 A 1 1 0 0 0 6.3574219 31.171875 A 1 1 0 0 0 6.4414062 31.050781 A 1 1 0 0 0 6.4453125 31.046875 A 1 1 0 0 0 6.453125 31.033203 A 1 1 0 0 0 6.5078125 30.919922 A 1 1 0 0 0 6.5273438 30.867188 A 1 1 0 0 0 6.5546875 30.783203 A 1 1 0 0 0 6.5683594 30.722656 A 1 1 0 0 0 6.5800781 30.634766 A 1 1 0 0 0 6.5859375 30.568359 A 1 1 0 0 0 6.5878906 30.533203 L 6.5839844 8.4101562 A 3.0000001 3 0 0 0 8.40625 6.5878906 L 35 6.5878906 L 36.697266 10.566406 A 1.0001 1.0001 0 0 0 38.537109 10.566406 L 41.537109 3.5429688 z " />
  <g
     fill="#000000"
     fillRule="evenodd"
     stroke="none"
     display="none"
     transform="translate(2.1713626,-14.441155)"
     id="g64">
    <g
       transform="translate(28.693,-56.707)"
       id="g50">
      <path
         d="m 13.488,62.5 h 3.375 c 0.918,0 1.426,0.371 1.426,1.074 0,0.242 -0.035,0.543 -0.098,0.86 -0.296,1.429 -0.296,1.429 -0.296,1.89 0,0.215 0.011,0.371 0.054,0.672 h 1.567 l 0.066,-0.324 c -0.18,-0.168 -0.293,-0.438 -0.293,-0.746 0,-0.168 0.027,-0.406 0.086,-0.703 0.191,-0.961 0.309,-1.696 0.309,-1.95 0,-0.617 -0.188,-0.918 -0.868,-1.355 0.551,-0.309 0.778,-0.465 1.032,-0.691 0.566,-0.52 0.949,-1.469 0.949,-2.344 0,-1.496 -0.82,-2.176 -2.633,-2.176 h -4.762 l -2.195,10.297 h 1.328 z m 0.246,-1.098 0.77,-3.597 h 3.285 c 0.754,0 1.129,0.097 1.398,0.398 0.184,0.199 0.301,0.527 0.301,0.875 0,0.527 -0.215,1.16 -0.527,1.563 -0.41,0.515 -1.012,0.757 -1.926,0.757"
         id="path46" />
      <path
         d="m 25.441,69.719 c -0.085,-0.016 -0.12,-0.016 -0.16,-0.016 -0.246,0 -0.36,-0.082 -0.36,-0.269 0,-0.036 0,-0.063 0.009,-0.094 l 0.61,-2.824 c 0.054,-0.25 0.054,-0.25 0.054,-0.344 0,-0.637 -0.653,-1.059 -1.653,-1.059 -1.32,0 -2.128,0.551 -2.308,1.594 h 0.812 c 0.086,-0.269 0.153,-0.402 0.29,-0.535 0.21,-0.211 0.617,-0.356 1.035,-0.356 0.578,0 1.023,0.254 1.023,0.606 0,0.035 -0.008,0.101 -0.02,0.18 l -0.027,0.168 c -0.086,0.386 -0.27,0.492 -0.976,0.558 -1.297,0.113 -1.704,0.207 -2.176,0.5 -0.504,0.313 -0.793,0.813 -0.793,1.363 0,0.758 0.512,1.211 1.37,1.211 0.333,0 0.735,-0.062 1.075,-0.183 0.305,-0.102 0.445,-0.192 0.836,-0.528 v 0.102 c 0,0.379 0.266,0.609 0.723,0.609 0.101,0 0.133,0 0.37,-0.054 0.016,-0.008 0.075,-0.016 0.134,-0.028 z m -1.16,-1.09 c -0.125,0.574 -0.976,1.07 -1.824,1.07 -0.55,0 -0.86,-0.222 -0.86,-0.613 0,-0.305 0.184,-0.613 0.473,-0.781 0.23,-0.137 0.52,-0.215 0.992,-0.278 0.907,-0.117 0.985,-0.129 1.41,-0.269"
         id="path48" />
    </g>
    <g
       transform="translate(-56.605,-56.654)"
       id="g56">
      <path
         d="m 58.887,119.203 h 3.375 c 0.918,0 1.425,0.371 1.425,1.074 0,0.243 -0.035,0.543 -0.097,0.86 -0.297,1.429 -0.297,1.429 -0.297,1.89 0,0.215 0.012,0.371 0.055,0.672 h 1.566 l 0.066,-0.324 c -0.179,-0.168 -0.293,-0.437 -0.293,-0.746 0,-0.168 0.028,-0.406 0.086,-0.703 0.192,-0.961 0.31,-1.696 0.31,-1.949 0,-0.618 -0.189,-0.918 -0.868,-1.356 0.551,-0.309 0.777,-0.465 1.031,-0.691 0.566,-0.52 0.95,-1.469 0.95,-2.344 0,-1.496 -0.82,-2.176 -2.634,-2.176 h -4.76 l -2.197,10.297 h 1.33 z m 0.25,-1.101 0.77,-3.598 h 3.284 c 0.754,0 1.13,0.098 1.4,0.398 0.182,0.2 0.3,0.528 0.3,0.875 0,0.528 -0.215,1.161 -0.528,1.563 -0.41,0.515 -1.012,0.758 -1.926,0.758"
         id="path52" />
      <path
         d="m 67.582,119.902 -1.473,6.899 h 0.711 l 0.16,-0.739 c 0.121,0.286 0.207,0.418 0.352,0.559 0.246,0.238 0.637,0.379 1.055,0.379 0.636,0 1.312,-0.277 1.742,-0.699 0.637,-0.672 1.058,-1.758 1.058,-2.735 0,-1.062 -0.722,-1.859 -1.683,-1.859 -0.379,0 -0.809,0.109 -1.094,0.277 -0.16,0.102 -0.285,0.204 -0.578,0.508 l 0.551,-2.586 z m 1.68,2.5 c 0.703,0 1.13,0.496 1.13,1.317 a 3.27,3.27 0 0 1 -0.443,1.613 c -0.394,0.648 -0.894,0.965 -1.523,0.965 -0.657,0 -1.07,-0.477 -1.07,-1.231 0,-0.589 0.171,-1.242 0.441,-1.699 0.375,-0.629 0.887,-0.965 1.465,-0.965"
         id="path54" />
    </g>
    <g
       transform="translate(-11.105,0.049)"
       id="g62">
      <path
         d="m 98.586,62.5 h 3.375 c 0.918,0 1.426,0.371 1.426,1.074 0,0.242 -0.036,0.543 -0.098,0.86 -0.297,1.429 -0.297,1.429 -0.297,1.89 0,0.215 0.012,0.371 0.055,0.672 h 1.566 l 0.067,-0.324 c -0.18,-0.168 -0.293,-0.438 -0.293,-0.746 0,-0.168 0.027,-0.406 0.086,-0.703 0.191,-0.961 0.308,-1.696 0.308,-1.95 0,-0.617 -0.187,-0.918 -0.867,-1.355 0.551,-0.309 0.777,-0.465 1.031,-0.691 0.567,-0.52 0.949,-1.469 0.949,-2.344 0,-1.496 -0.82,-2.176 -2.632,-2.176 H 98.5 l -2.195,10.297 h 1.328 z m 0.25,-1.098 0.77,-3.597 h 3.285 c 0.753,0 1.128,0.097 1.398,0.398 0.184,0.199 0.301,0.527 0.301,0.875 0,0.527 -0.215,1.16 -0.528,1.563 -0.41,0.515 -1.011,0.757 -1.925,0.757"
         id="path58" />
      <path
         d="m 110.465,66.898 0.008,-0.14 c 0.007,-0.141 0.015,-0.242 0.015,-0.27 0,-0.308 -0.172,-0.683 -0.422,-0.937 -0.297,-0.301 -0.691,-0.442 -1.238,-0.442 -0.863,0 -1.644,0.356 -2.152,1.008 -0.45,0.574 -0.778,1.602 -0.778,2.469 0,0.441 0.153,0.902 0.418,1.234 0.325,0.403 0.754,0.582 1.364,0.582 0.781,0 1.437,-0.269 1.878,-0.777 0.247,-0.281 0.399,-0.602 0.551,-1.129 h -0.808 c -0.285,0.785 -0.821,1.207 -1.516,1.207 -0.664,0 -1.09,-0.465 -1.09,-1.211 0,-0.609 0.203,-1.336 0.531,-1.832 0.364,-0.562 0.856,-0.848 1.461,-0.848 0.621,0 1.004,0.336 1.004,0.883 v 0.211"
         id="path60" />
    </g>
  </g>
</svg>
