<?xml version="1.0" encoding="UTF-8" standalone="no"?>
<svg
   width="105"
   height="89.999931"
   version="1.1"
   id="svg66"
   sodipodi:docname="Pi Baked.svg"
   inkscape:version="1.1.1 (1:1.1+202109281943+c3084ef5ed)"
   xmlns:inkscape="http://www.inkscape.org/namespaces/inkscape"
   xmlns:sodipodi="http://sodipodi.sourceforge.net/DTD/sodipodi-0.dtd"
   xmlns="http://www.w3.org/2000/svg"
   xmlns:svg="http://www.w3.org/2000/svg">
  <sodipodi:namedview
     id="namedview68"
     pagecolor="#505050"
     bordercolor="#eeeeee"
     borderopacity="1"
     inkscape:pageshadow="0"
     inkscape:pageopacity="0"
     inkscape:pagecheckerboard="0"
     showgrid="false"
     inkscape:zoom="9.3055252"
     inkscape:cx="50.776285"
     inkscape:cy="44.435966"
     inkscape:window-width="2560"
     inkscape:window-height="1379"
     inkscape:window-x="0"
     inkscape:window-y="30"
     inkscape:window-maximized="1"
     inkscape:current-layer="svg66"
     inkscape:object-paths="true"
     inkscape:snap-intersection-paths="true"
     inkscape:snap-object-midpoints="true"
     inkscape:snap-center="true" />
  <defs
     id="defs10">
    <marker
       markerHeight="3"
       markerUnits="strokeWidth"
       markerWidth="4"
       orient="auto"
       refX="0"
       refY="5"
       viewBox="0 0 10 10"
       id="marker4">
      <path
         d="M 0,0 10,5 0,10 Z"
         id="path2" />
    </marker>
    <marker
       markerHeight="3"
       markerUnits="strokeWidth"
       markerWidth="4"
       orient="auto"
       refX="10"
       refY="5"
       viewBox="0 0 10 10"
       id="marker8">
      <path
         d="M 10,0 0,5 10,10 Z"
         id="path6" />
    </marker>
  </defs>
  <path
     id="path12"
     style="color:#000000;fill:#fafafa;stroke-linecap:round;stroke-linejoin:round;-inkscape-stroke:none"
     d="M 46.037109 0 A 1.0001 1.0001 0 0 0 45.117188 0.60742188 L 41.726562 8.5371094 L 40.492188 5.6445312 A 1 1 0 0 0 40.435547 5.5625 A 1 1 0 0 0 40.318359 5.390625 A 1 1 0 0 0 40.208984 5.28125 A 1 1 0 0 0 40.011719 5.1523438 A 1 1 0 0 0 39.902344 5.1015625 A 1 1 0 0 0 39.582031 5.0429688 A 1 1 0 0 0 39.550781 5.0410156 L 9.6425781 5.0410156 A 3.2991166 3.2964231 0 0 0 3.203125 6.0410156 A 3.2991166 3.2964231 0 0 0 5.5019531 9.1738281 L 5.5058594 32.792969 L 1.0664062 34.685547 A 1.0001 1.0001 0 0 0 1.0664062 36.525391 L 9 39.912109 L 1.0664062 43.298828 A 1.0001 1.0001 0 0 0 1.0664062 45.138672 L 9.0019531 48.527344 L 1.0664062 51.914062 A 1.0001 1.0001 0 0 0 1.0664062 53.751953 L 9.0019531 57.138672 L 6.109375 58.373047 A 1 1 0 0 0 5.9472656 58.484375 A 1 1 0 0 0 5.7910156 58.589844 A 1 1 0 0 0 5.6816406 58.755859 A 1 1 0 0 0 5.5761719 58.916016 A 1 1 0 0 0 5.5371094 59.113281 A 1 1 0 0 0 5.5019531 59.292969 L 5.5019531 83.570312 A 3.2991166 3.2964231 0 0 0 3.203125 86.703125 A 3.2991166 3.2964231 0 0 0 9.6425781 87.703125 L 95.353516 87.703125 A 3.2991196 3.2964261 0 0 0 101.79297 86.703125 A 3.2991196 3.2964261 0 0 0 99.494141 83.572266 L 99.494141 59.953125 L 103.93359 58.058594 A 1.0001 1.0001 0 0 0 103.93359 56.220703 L 95.998047 52.832031 L 103.93359 49.445312 A 1.0001 1.0001 0 0 0 103.93359 47.605469 L 96 44.21875 L 103.93359 40.832031 A 1.0001 1.0001 0 0 0 103.93359 38.992188 L 96 35.605469 L 98.873047 34.378906 A 1 1 0 0 0 98.890625 34.371094 A 1 1 0 0 0 99.1875 34.171875 A 1 1 0 0 0 99.216797 34.142578 A 1 1 0 0 0 99.414062 33.847656 A 1 1 0 0 0 99.423828 33.830078 A 1 1 0 0 0 99.496094 33.466797 A 1 1 0 0 0 99.498047 33.453125 L 99.494141 9.1738281 A 3.2991196 3.2964261 0 0 0 101.79297 6.0429688 A 3.2991196 3.2964261 0 0 0 95.353516 5.0410156 L 75.496094 5.0410156 A 1 1 0 0 0 75.492188 5.0410156 L 66.09375 5.0410156 L 64.199219 0.60742188 A 1.0001 1.0001 0 0 0 62.359375 0.60742188 L 58.96875 8.5351562 L 55.578125 0.60742188 A 1.0001 1.0001 0 0 0 53.738281 0.60742188 L 50.347656 8.5351562 L 46.957031 0.60742188 A 1.0001 1.0001 0 0 0 46.037109 0 z M 46.037109 3.5429688 L 49.427734 11.472656 A 1.0001 1.0001 0 0 0 51.267578 11.472656 L 54.658203 3.5429688 L 58.048828 11.472656 A 1.0001 1.0001 0 0 0 59.888672 11.472656 L 63.279297 3.5449219 L 64.513672 6.4355469 A 1 1 0 0 0 64.541016 6.4746094 A 1 1 0 0 0 64.728516 6.75 A 1 1 0 0 0 64.767578 6.7792969 A 1 1 0 0 0 65.013672 6.9394531 A 1 1 0 0 0 65.105469 6.9785156 A 1 1 0 0 0 65.433594 7.0410156 L 75.492188 7.0410156 A 1 1 0 0 0 75.494141 7.0410156 A 1 1 0 0 0 75.496094 7.0410156 L 95.353516 7.0410156 A 3.2991196 3.2964261 0 0 0 97.494141 9.1738281 L 97.498047 32.792969 L 93.060547 34.685547 A 1.0001 1.0001 0 0 0 93.060547 36.525391 L 100.99414 39.912109 L 93.060547 43.298828 A 1.0001 1.0001 0 0 0 93.060547 45.138672 L 100.99414 48.525391 L 93.060547 51.914062 A 1.0001 1.0001 0 0 0 93.060547 53.751953 L 100.99414 57.138672 L 98.101562 58.373047 A 1 1 0 0 0 97.939453 58.484375 A 1 1 0 0 0 97.783203 58.589844 A 1 1 0 0 0 97.673828 58.755859 A 1 1 0 0 0 97.568359 58.916016 A 1 1 0 0 0 97.529297 59.113281 A 1 1 0 0 0 97.494141 59.292969 L 97.494141 83.570312 A 3.2991196 3.2964261 0 0 0 95.351562 85.703125 L 9.6425781 85.703125 A 3.2991166 3.2964231 0 0 0 7.5019531 83.572266 L 7.5019531 59.953125 L 11.939453 58.058594 A 1.0001 1.0001 0 0 0 11.939453 56.220703 L 4.0039062 52.832031 L 11.939453 49.445312 A 1.0001 1.0001 0 0 0 11.939453 47.607422 L 4.0058594 44.21875 L 11.939453 40.832031 A 1.0001 1.0001 0 0 0 11.939453 38.992188 L 4.0078125 35.605469 L 6.8984375 34.373047 A 1 1 0 0 0 7.203125 34.166016 A 1 1 0 0 0 7.2207031 34.148438 A 1 1 0 0 0 7.5039062 33.466797 A 1 1 0 0 0 7.5058594 33.453125 L 7.5019531 9.1738281 A 3.2991166 3.2964231 0 0 0 9.6425781 7.0410156 L 38.912109 7.0410156 L 40.808594 11.472656 A 1.0001 1.0001 0 0 0 42.646484 11.472656 L 46.037109 3.5429688 z " />
  <g
     fill="#000000"
     fillRule="evenodd"
     stroke="none"
     display="none"
     transform="translate(2.1717701,-14.441155)"
     id="g64">
    <g
       transform="translate(28.693,-56.707)"
       id="g50">
      <path
         d="m 13.488,62.5 h 3.375 c 0.918,0 1.426,0.371 1.426,1.074 0,0.242 -0.035,0.543 -0.098,0.86 -0.296,1.429 -0.296,1.429 -0.296,1.89 0,0.215 0.011,0.371 0.054,0.672 h 1.567 l 0.066,-0.324 c -0.18,-0.168 -0.293,-0.438 -0.293,-0.746 0,-0.168 0.027,-0.406 0.086,-0.703 0.191,-0.961 0.309,-1.696 0.309,-1.95 0,-0.617 -0.188,-0.918 -0.868,-1.355 0.551,-0.309 0.778,-0.465 1.032,-0.691 0.566,-0.52 0.949,-1.469 0.949,-2.344 0,-1.496 -0.82,-2.176 -2.633,-2.176 h -4.762 l -2.195,10.297 h 1.328 z m 0.246,-1.098 0.77,-3.597 h 3.285 c 0.754,0 1.129,0.097 1.398,0.398 0.184,0.199 0.301,0.527 0.301,0.875 0,0.527 -0.215,1.16 -0.527,1.563 -0.41,0.515 -1.012,0.757 -1.926,0.757"
         id="path46" />
      <path
         d="m 25.441,69.719 c -0.085,-0.016 -0.12,-0.016 -0.16,-0.016 -0.246,0 -0.36,-0.082 -0.36,-0.269 0,-0.036 0,-0.063 0.009,-0.094 l 0.61,-2.824 c 0.054,-0.25 0.054,-0.25 0.054,-0.344 0,-0.637 -0.653,-1.059 -1.653,-1.059 -1.32,0 -2.128,0.551 -2.308,1.594 h 0.812 c 0.086,-0.269 0.153,-0.402 0.29,-0.535 0.21,-0.211 0.617,-0.356 1.035,-0.356 0.578,0 1.023,0.254 1.023,0.606 0,0.035 -0.008,0.101 -0.02,0.18 l -0.027,0.168 c -0.086,0.386 -0.27,0.492 -0.976,0.558 -1.297,0.113 -1.704,0.207 -2.176,0.5 -0.504,0.313 -0.793,0.813 -0.793,1.363 0,0.758 0.512,1.211 1.37,1.211 0.333,0 0.735,-0.062 1.075,-0.183 0.305,-0.102 0.445,-0.192 0.836,-0.528 v 0.102 c 0,0.379 0.266,0.609 0.723,0.609 0.101,0 0.133,0 0.37,-0.054 0.016,-0.008 0.075,-0.016 0.134,-0.028 z m -1.16,-1.09 c -0.125,0.574 -0.976,1.07 -1.824,1.07 -0.55,0 -0.86,-0.222 -0.86,-0.613 0,-0.305 0.184,-0.613 0.473,-0.781 0.23,-0.137 0.52,-0.215 0.992,-0.278 0.907,-0.117 0.985,-0.129 1.41,-0.269"
         id="path48" />
    </g>
    <g
       transform="translate(-56.605,-56.654)"
       id="g56">
      <path
         d="m 58.887,119.203 h 3.375 c 0.918,0 1.425,0.371 1.425,1.074 0,0.243 -0.035,0.543 -0.097,0.86 -0.297,1.429 -0.297,1.429 -0.297,1.89 0,0.215 0.012,0.371 0.055,0.672 h 1.566 l 0.066,-0.324 c -0.179,-0.168 -0.293,-0.437 -0.293,-0.746 0,-0.168 0.028,-0.406 0.086,-0.703 0.192,-0.961 0.31,-1.696 0.31,-1.949 0,-0.618 -0.189,-0.918 -0.868,-1.356 0.551,-0.309 0.777,-0.465 1.031,-0.691 0.566,-0.52 0.95,-1.469 0.95,-2.344 0,-1.496 -0.82,-2.176 -2.634,-2.176 h -4.76 l -2.197,10.297 h 1.33 z m 0.25,-1.101 0.77,-3.598 h 3.284 c 0.754,0 1.13,0.098 1.4,0.398 0.182,0.2 0.3,0.528 0.3,0.875 0,0.528 -0.215,1.161 -0.528,1.563 -0.41,0.515 -1.012,0.758 -1.926,0.758"
         id="path52" />
      <path
         d="m 67.582,119.902 -1.473,6.899 h 0.711 l 0.16,-0.739 c 0.121,0.286 0.207,0.418 0.352,0.559 0.246,0.238 0.637,0.379 1.055,0.379 0.636,0 1.312,-0.277 1.742,-0.699 0.637,-0.672 1.058,-1.758 1.058,-2.735 0,-1.062 -0.722,-1.859 -1.683,-1.859 -0.379,0 -0.809,0.109 -1.094,0.277 -0.16,0.102 -0.285,0.204 -0.578,0.508 l 0.551,-2.586 z m 1.68,2.5 c 0.703,0 1.13,0.496 1.13,1.317 a 3.27,3.27 0 0 1 -0.443,1.613 c -0.394,0.648 -0.894,0.965 -1.523,0.965 -0.657,0 -1.07,-0.477 -1.07,-1.231 0,-0.589 0.171,-1.242 0.441,-1.699 0.375,-0.629 0.887,-0.965 1.465,-0.965"
         id="path54" />
    </g>
    <g
       transform="translate(-11.105,0.049)"
       id="g62">
      <path
         d="m 98.586,62.5 h 3.375 c 0.918,0 1.426,0.371 1.426,1.074 0,0.242 -0.036,0.543 -0.098,0.86 -0.297,1.429 -0.297,1.429 -0.297,1.89 0,0.215 0.012,0.371 0.055,0.672 h 1.566 l 0.067,-0.324 c -0.18,-0.168 -0.293,-0.438 -0.293,-0.746 0,-0.168 0.027,-0.406 0.086,-0.703 0.191,-0.961 0.308,-1.696 0.308,-1.95 0,-0.617 -0.187,-0.918 -0.867,-1.355 0.551,-0.309 0.777,-0.465 1.031,-0.691 0.567,-0.52 0.949,-1.469 0.949,-2.344 0,-1.496 -0.82,-2.176 -2.632,-2.176 H 98.5 l -2.195,10.297 h 1.328 z m 0.25,-1.098 0.77,-3.597 h 3.285 c 0.753,0 1.128,0.097 1.398,0.398 0.184,0.199 0.301,0.527 0.301,0.875 0,0.527 -0.215,1.16 -0.528,1.563 -0.41,0.515 -1.011,0.757 -1.925,0.757"
         id="path58" />
      <path
         d="m 110.465,66.898 0.008,-0.14 c 0.007,-0.141 0.015,-0.242 0.015,-0.27 0,-0.308 -0.172,-0.683 -0.422,-0.937 -0.297,-0.301 -0.691,-0.442 -1.238,-0.442 -0.863,0 -1.644,0.356 -2.152,1.008 -0.45,0.574 -0.778,1.602 -0.778,2.469 0,0.441 0.153,0.902 0.418,1.234 0.325,0.403 0.754,0.582 1.364,0.582 0.781,0 1.437,-0.269 1.878,-0.777 0.247,-0.281 0.399,-0.602 0.551,-1.129 h -0.808 c -0.285,0.785 -0.821,1.207 -1.516,1.207 -0.664,0 -1.09,-0.465 -1.09,-1.211 0,-0.609 0.203,-1.336 0.531,-1.832 0.364,-0.562 0.856,-0.848 1.461,-0.848 0.621,0 1.004,0.336 1.004,0.883 v 0.211"
         id="path60" />
    </g>
  </g>
</svg>
