<svg
      xmlns="http://www.w3.org/2000/svg"
      width="94.826"
      height="81.997"
      version="1.1"
    >
      <defs>
        <marker
          markerHeight="3"
          markerUnits="strokeWidth"
          markerWidth="4"
          orient="auto"
          refX="0"
          refY="5"
          viewBox="0 0 10 10"
        >
          <path d="M0 0l10 5-10 5z"></path>
        </marker>
        <marker
          markerHeight="3"
          markerUnits="strokeWidth"
          markerWidth="4"
          orient="auto"
          refX="10"
          refY="5"
          viewBox="0 0 10 10"
        >
          <path d="M10 0L0 5l10 5z"></path>
        </marker>
      </defs>
      <path
        fill="#fafafa"
        strokeLinecap="round"
        strokeLinejoin="round"
        d="M41.537 0a1 1 0 00-.92.607l-3 7.022-1.04-2.438a1 1 0 00-.04-.056 1 1 0 00-.133-.196 1 1 0 00-.115-.113 1 1 0 00-.21-.137 1 1 0 00-.099-.043 1 1 0 00-.318-.056 1 1 0 00-.027-.002H8.405a3 3 0 00-5.821 1 3 3 0 002 2.822l.004 21.465-3.98 1.7a1 1 0 000 1.84l7.02 3-7.02 3a1 1 0 000 1.837l7.02 3-7.02 3a1 1 0 000 1.84l7.019 3-2.426 1.035-.01.004a1 1 0 00-.162.111 1 1 0 00-.156.106 1 1 0 00-.11.166 1 1 0 00-.105.16 1 1 0 00-.023.125 1 1 0 00-.051.252v22.123a3 3 0 00-2 2.822 3 3 0 005.822 1h78.01a3 3 0 005.82-.998 3 3 0 00-2-2.824V54.713l3.983-1.701a1 1 0 000-1.84l-7.022-3 7.022-3a1 1 0 000-1.84l-7.024-3 7.024-3a1 1 0 000-1.838l-7.022-3 2.436-1.04a1 1 0 00.305-.208 1 1 0 00.017-.017 1 1 0 00.21-.313 1 1 0 000-.002 1 1 0 000-.002 1 1 0 00.073-.365 1 1 0 00.002-.014L90.236 8.41a3 3 0 002-2.822 3 3 0 00-5.82-1H68.324a1 1 0 00-.004 0h-8.486l-1.7-3.98a1 1 0 00-1.84 0l-3 7.02-3-7.02a1 1 0 00-1.839 0l-3 7.023-3-7.024A1 1 0 0041.537 0zm0 3.543l3 7.023a1 1 0 001.838 0l3-7.021 3 7.021a1 1 0 001.84 0l3-7.02 1.039 2.434a1 1 0 00.023.036 1 1 0 00.196.283 1 1 0 00.017.015 1 1 0 00.272.176 1 1 0 00.076.033 1 1 0 00.336.065h9.146a1 1 0 00.002 0 1 1 0 00.002 0h18.092a3 3 0 001.82 1.822l.004 21.465-3.98 1.7a1 1 0 000 1.84l7.023 3-7.023 3a1 1 0 000 1.837l7.021 3-7.021 3a1 1 0 000 1.84l7.02 3-2.436 1.039a1 1 0 00-.162.111 1 1 0 00-.157.106 1 1 0 00-.109.166 1 1 0 00-.105.16 1 1 0 00-.024.125 1 1 0 00-.05.252v22.123a3 3 0 00-1.821 1.822H8.404a3 3 0 00-1.82-1.822V54.71l3.982-1.7a1 1 0 000-1.84l-7.021-3 7.021-3a1 1 0 000-1.839l-7.021-3 7.021-2.998a1 1 0 000-1.84l-7.021-3 2.426-1.037.01-.004a1 1 0 00.138-.072 1 1 0 00.127-.094 1 1 0 00.11-.113 1 1 0 00.001-.002 1 1 0 00.084-.121 1 1 0 00.004-.004 1 1 0 00.008-.014 1 1 0 00.055-.113 1 1 0 00.02-.053 1 1 0 00.027-.084 1 1 0 00.013-.06 1 1 0 00.012-.088 1 1 0 00.006-.067 1 1 0 00.002-.035L6.584 8.41a3 3 0 001.822-1.822H35l1.697 3.978a1 1 0 001.84 0l3-7.023z"
        color="#000"
      ></path>
    </svg>