<svg
      xmlns="http://www.w3.org/2000/svg"
      width="105"
      height="90"
      version="1.1"
    >
      <defs>
        <marker
          markerHeight="3"
          markerUnits="strokeWidth"
          markerWidth="4"
          orient="auto"
          refX="0"
          refY="5"
          viewBox="0 0 10 10"
        >
          <path d="M0 0l10 5-10 5z"></path>
        </marker>
        <marker
          markerHeight="3"
          markerUnits="strokeWidth"
          markerWidth="4"
          orient="auto"
          refX="10"
          refY="5"
          viewBox="0 0 10 10"
        >
          <path d="M10 0L0 5l10 5z"></path>
        </marker>
      </defs>
      <path
        fill="#fafafa"
        strokeLinecap="round"
        strokeLinejoin="round"
        d="M46.037 0a1 1 0 00-.92.607l-3.39 7.93-1.235-2.892a1 1 0 00-.056-.082 1 1 0 00-.118-.172 1 1 0 00-.109-.11 1 1 0 00-.197-.129 1 1 0 00-.11-.05 1 1 0 00-.32-.059 1 1 0 00-.031-.002H6.502a1 1 0 00-.451.121 1 1 0 00-.11.074 1 1 0 00-.244.244 1 1 0 00-.074.114 1 1 0 00-.12.441 1 1 0 00-.001.006 1 1 0 000 .002l.004 26.75-4.44 1.893a1 1 0 000 1.84L9 39.911 1.066 43.3a1 1 0 000 1.84l7.936 3.388-7.936 3.387a1 1 0 000 1.838l7.936 3.387-2.883 1.23-.01.004a1 1 0 00-.162.111 1 1 0 00-.156.106 1 1 0 00-.11.166 1 1 0 00-.105.16 1 1 0 00-.039.197 1 1 0 00-.035.18v27.41a1 1 0 001 1h91.992a1 1 0 001-1v-26.75l4.44-1.894a1 1 0 000-1.838l-7.936-3.389 7.936-3.387a1 1 0 000-1.84L96 44.22l7.934-3.387a1 1 0 000-1.84L96 35.605l2.873-1.226a1 1 0 00.018-.008 1 1 0 00.296-.2 1 1 0 00.03-.028 1 1 0 00.197-.295 1 1 0 00.01-.018 1 1 0 00.072-.363 1 1 0 00.002-.014l-.004-27.412a1 1 0 00-.01-.143 1 1 0 00-.002-.013 1 1 0 00-.029-.125 1 1 0 00-.004-.01 1 1 0 00-.02-.055 1 1 0 00-.044-.107 1 1 0 00-.008-.012 1 1 0 00-.064-.107 1 1 0 00-.032-.041 1 1 0 00-.056-.067 1 1 0 00-.051-.05 1 1 0 00-.067-.057 1 1 0 00-.04-.031 1 1 0 00-.12-.073 1 1 0 00-.006-.002 1 1 0 00-.101-.043 1 1 0 00-.065-.023 1 1 0 00-.125-.03 1 1 0 00-.013-.001 1 1 0 00-.143-.01H75.496a1 1 0 00-.004 0h-9.398L64.199.607a1 1 0 00-1.84 0l-3.39 7.928-3.39-7.928a1 1 0 00-1.84 0l-3.391 7.928L46.957.607a1 1 0 00-.92-.607zm0 3.543l3.39 7.93a1 1 0 001.84 0l3.391-7.93 3.39 7.93a1 1 0 001.84 0l3.391-7.928 1.235 2.89a1 1 0 00.027.04 1 1 0 00.188.275 1 1 0 00.039.03 1 1 0 00.246.16 1 1 0 00.091.039 1 1 0 00.329.062h10.058a1 1 0 00.002 0 1 1 0 00.002 0h21.998l.004 25.752-4.437 1.893a1 1 0 000 1.84l7.933 3.386-7.933 3.387a1 1 0 000 1.84l7.933 3.386-7.933 3.39a1 1 0 000 1.837l7.933 3.387-2.892 1.234a1 1 0 00-.163.111 1 1 0 00-.156.106 1 1 0 00-.11.166 1 1 0 00-.105.16 1 1 0 00-.039.197 1 1 0 00-.035.18v26.41H7.502v-25.75l4.437-1.894a1 1 0 000-1.838l-7.935-3.389 7.935-3.387a1 1 0 000-1.838L4.006 44.22l7.933-3.387a1 1 0 000-1.84l-7.931-3.387 2.88-1.228.01-.004a1 1 0 00.305-.207 1 1 0 00.018-.018 1 1 0 00.205-.306 1 1 0 00.004-.01 1 1 0 00.074-.365 1 1 0 00.002-.014L7.502 7.041h31.41l1.897 4.432a1 1 0 001.837 0l3.391-7.93z"
        color="#000"
      ></path>
      <path
        fill="#d1ff82"
        stroke="none"
        strokeWidth="1"
        d="M3.202 86.702a3.3 3.296 0 106.599.002 3.3 3.296 0 00-6.599-.002"
      ></path>
      <path
        fill="#d1ff82"
        stroke="none"
        strokeWidth="1"
        d="M95.195 86.702a3.3 3.296 0 106.599.002 3.3 3.296 0 00-6.599-.002"
      ></path>
      <path
        fill="#8cd5ff"
        stroke="none"
        strokeWidth="1"
        d="M3.202 6.04a3.3 3.296 0 106.599.002 3.3 3.296 0 00-6.599-.001"
      ></path>
      <path
        fill="#ff8c82"
        stroke="none"
        strokeWidth="1"
        d="M95.195 6.04a3.3 3.296 0 106.599.002 3.3 3.296 0 00-6.599-.001"
      ></path>
    </svg>