<svg
      xmlns="http://www.w3.org/2000/svg"
      width="105"
      height="90"
      version="1.1"
    >
      <defs>
        <marker
          markerHeight="3"
          markerUnits="strokeWidth"
          markerWidth="4"
          orient="auto"
          refX="0"
          refY="5"
          viewBox="0 0 10 10"
        >
          <path d="M0 0l10 5-10 5z"></path>
        </marker>
        <marker
          markerHeight="3"
          markerUnits="strokeWidth"
          markerWidth="4"
          orient="auto"
          refX="10"
          refY="5"
          viewBox="0 0 10 10"
        >
          <path d="M10 0L0 5l10 5z"></path>
        </marker>
      </defs>
      <path
        fill="#fafafa"
        strokeLinecap="round"
        strokeLinejoin="round"
        d="M46.037 0a1 1 0 00-.92.607l-3.39 7.93-1.235-2.892a1 1 0 00-.056-.082 1 1 0 00-.118-.172 1 1 0 00-.109-.11 1 1 0 00-.197-.129 1 1 0 00-.11-.05 1 1 0 00-.32-.059 1 1 0 00-.031-.002H9.643a3.3 3.296 0 00-6.44 1 3.3 3.296 0 002.299 3.133l.004 23.619-4.44 1.893a1 1 0 000 1.84L9 39.911 1.066 43.3a1 1 0 000 1.84l7.936 3.388-7.936 3.387a1 1 0 000 1.838l7.936 3.387-2.893 1.234a1 1 0 00-.162.111 1 1 0 00-.156.106 1 1 0 00-.11.166 1 1 0 00-.105.16 1 1 0 00-.039.197 1 1 0 00-.035.18V83.57a3.3 3.296 0 00-2.299 3.133 3.3 3.296 0 006.44 1h85.71a3.3 3.296 0 006.44-1 3.3 3.296 0 00-2.299-3.13v-23.62l4.44-1.894a1 1 0 000-1.838l-7.936-3.389 7.936-3.387a1 1 0 000-1.84L96 44.22l7.934-3.387a1 1 0 000-1.84L96 35.605l2.873-1.226a1 1 0 00.018-.008 1 1 0 00.296-.2 1 1 0 00.03-.028 1 1 0 00.197-.295 1 1 0 00.01-.018 1 1 0 00.072-.363 1 1 0 00.002-.014l-.004-24.28a3.3 3.296 0 002.299-3.13 3.3 3.296 0 00-6.44-1.002H75.497a1 1 0 00-.004 0h-9.398L64.199.607a1 1 0 00-1.84 0l-3.39 7.928-3.39-7.928a1 1 0 00-1.84 0l-3.391 7.928L46.957.607a1 1 0 00-.92-.607zm0 3.543l3.39 7.93a1 1 0 001.84 0l3.391-7.93 3.39 7.93a1 1 0 001.84 0l3.391-7.928 1.235 2.89a1 1 0 00.027.04 1 1 0 00.188.275 1 1 0 00.039.03 1 1 0 00.246.16 1 1 0 00.091.039 1 1 0 00.329.062h10.058a1 1 0 00.002 0 1 1 0 00.002 0h19.858a3.3 3.296 0 002.14 2.133l.004 23.619-4.437 1.893a1 1 0 000 1.84l7.933 3.386-7.933 3.387a1 1 0 000 1.84l7.933 3.386-7.933 3.39a1 1 0 000 1.837l7.933 3.387-2.892 1.234a1 1 0 00-.163.111 1 1 0 00-.156.106 1 1 0 00-.11.166 1 1 0 00-.105.16 1 1 0 00-.039.197 1 1 0 00-.035.18V83.57a3.3 3.296 0 00-2.142 2.133H9.642a3.3 3.296 0 00-2.14-2.13v-23.62l4.437-1.894a1 1 0 000-1.838l-7.935-3.389 7.935-3.387a1 1 0 000-1.838L4.006 44.22l7.933-3.387a1 1 0 000-1.84l-7.931-3.387 2.89-1.232a1 1 0 00.305-.207 1 1 0 00.018-.018 1 1 0 00.283-.681 1 1 0 00.002-.014l-.004-24.28a3.3 3.296 0 002.14-2.132h29.27l1.897 4.432a1 1 0 001.837 0l3.391-7.93z"
        color="#000"
      ></path>
    </svg>