<?xml version="1.0" encoding="UTF-8" standalone="no"?>
<svg
   width="95.147629"
   height="86.881622"
   id="svg2"
   sodipodi:version="0.32"
   inkscape:version="1.1.1 (1:1.1+202109281943+c3084ef5ed)"
   sodipodi:docname="Tee Baked.svg"
   version="1.1"
   xmlns:inkscape="http://www.inkscape.org/namespaces/inkscape"
   xmlns:sodipodi="http://sodipodi.sourceforge.net/DTD/sodipodi-0.dtd"
   xmlns="http://www.w3.org/2000/svg"
   xmlns:svg="http://www.w3.org/2000/svg"
   xmlns:rdf="http://www.w3.org/1999/02/22-rdf-syntax-ns#"
   xmlns:cc="http://creativecommons.org/ns#"
   xmlns:dc="http://purl.org/dc/elements/1.1/">
  <metadata
     id="metadata131">
    <rdf:RDF>
      <cc:Work
         rdf:about="">
        <dc:format>image/svg+xml</dc:format>
        <dc:type
           rdf:resource="http://purl.org/dc/dcmitype/StillImage" />
      </cc:Work>
    </rdf:RDF>
  </metadata>
  <sodipodi:namedview
     inkscape:window-height="1379"
     inkscape:window-width="2560"
     inkscape:pageshadow="2"
     inkscape:pageopacity="0.0"
     guidetolerance="10.0"
     gridtolerance="10.0"
     objecttolerance="10.0"
     borderopacity="1.0"
     bordercolor="#666666"
     pagecolor="#ffffff"
     id="base"
     inkscape:zoom="5.6568545"
     inkscape:cx="84.499257"
     inkscape:cy="52.414288"
     inkscape:window-x="0"
     inkscape:window-y="30"
     inkscape:current-layer="svg2"
     showgrid="false"
     inkscape:snap-bbox="true"
     inkscape:snap-nodes="true"
     inkscape:bbox-paths="true"
     inkscape:window-maximized="1"
     inkscape:pagecheckerboard="0"
     inkscape:bbox-nodes="false"
     inkscape:snap-object-midpoints="true"
     inkscape:snap-center="true"
     inkscape:object-paths="true"
     inkscape:snap-intersection-paths="true" />
  <defs
     id="defs4">
    <marker
       id="ArrowEnd"
       viewBox="0 0 10 10"
       refX="0"
       refY="5"
       markerUnits="strokeWidth"
       markerWidth="4"
       markerHeight="3"
       orient="auto">
      <path
         d="M 0,0 10,5 0,10 Z"
         id="path7" />
    </marker>
    <marker
       id="ArrowStart"
       viewBox="0 0 10 10"
       refX="10"
       refY="5"
       markerUnits="strokeWidth"
       markerWidth="4"
       markerHeight="3"
       orient="auto">
      <path
         d="M 10,0 0,5 10,10 Z"
         id="path10" />
    </marker>
  </defs>
  <path
     id="path1293"
     style="color:#000000;fill:#fafafa;stroke-linecap:round;stroke-linejoin:round;-inkscape-stroke:none"
     d="M 18.285156 0 A 1.0001 1.0001 0 0 0 17.367188 0.60742188 L 15.539062 4.8730469 L 5.828125 4.8769531 C 5.4150066 3.7131069 4.3034192 2.8808594 3 2.8808594 C 1.3397646 2.8808594 0 4.2276829 0 5.8808594 C 0 7.5410948 1.3454116 8.8808594 3 8.8808594 C 4.3095376 8.8808594 5.4195044 8.0429115 5.8300781 6.8769531 L 16.199219 6.8730469 A 1 1 0 0 0 16.544922 6.8046875 A 1 1 0 0 0 16.628906 6.7617188 A 1 1 0 0 0 16.851562 6.6171875 A 1 1 0 0 0 16.929688 6.5390625 A 1 1 0 0 0 17.080078 6.3203125 A 1 1 0 0 0 17.117188 6.265625 L 18.285156 3.5390625 L 21.544922 11.142578 A 1.0001 1.0001 0 0 0 23.382812 11.142578 L 26.640625 3.5390625 L 29.900391 11.142578 A 1.0001 1.0001 0 0 0 31.740234 11.142578 L 35 3.5390625 L 38.257812 11.142578 A 1.0001 1.0001 0 0 0 40.095703 11.142578 L 41.923828 6.875 L 44.746094 6.875 C 45.04779 7.7277635 45.722663 8.4020976 46.574219 8.703125 L 46.574219 32.347656 A 1 1 0 0 0 46.605469 32.501953 A 1 1 0 0 0 46.650391 32.726562 A 1 1 0 0 0 46.724609 32.841797 A 1 1 0 0 0 46.863281 33.048828 A 1 1 0 0 0 47.056641 33.181641 A 1 1 0 0 0 47.179688 33.265625 L 47.1875 33.269531 A 1 1 0 0 0 47.191406 33.271484 L 49.910156 34.435547 L 42.306641 37.693359 A 1.0001 1.0001 0 0 0 42.306641 39.53125 L 49.910156 42.789062 L 42.306641 46.046875 A 1.0001 1.0001 0 0 0 42.306641 47.886719 L 49.910156 51.144531 L 42.306641 54.402344 A 1.0001 1.0001 0 0 0 42.306641 56.240234 L 46.578125 58.068359 L 46.574219 81.052734 C 45.407344 81.464544 44.574219 82.57689 44.574219 83.880859 C 44.574219 85.541095 45.91963 86.880859 47.574219 86.880859 C 49.234454 86.880859 50.574219 85.535448 50.574219 83.880859 C 50.574219 82.573968 49.737672 81.464413 48.574219 81.052734 L 48.578125 57.410156 A 1 1 0 0 0 48.574219 57.355469 A 1 1 0 0 0 48.572266 57.322266 A 1 1 0 0 0 48.556641 57.210938 A 1 1 0 0 0 48.541016 57.150391 A 1 1 0 0 0 48.513672 57.064453 A 1 1 0 0 0 48.494141 57.013672 A 1 1 0 0 0 48.435547 56.896484 A 1 1 0 0 0 48.427734 56.884766 A 1 1 0 0 0 48.355469 56.783203 A 1 1 0 0 0 48.330078 56.753906 A 1 1 0 0 0 48.234375 56.65625 A 1 1 0 0 0 48.21875 56.644531 A 1 1 0 0 0 48.125 56.574219 A 1 1 0 0 0 48.087891 56.550781 A 1 1 0 0 0 47.984375 56.498047 A 1 1 0 0 0 47.970703 56.490234 L 45.240234 55.320312 L 52.84375 52.0625 A 1.0001 1.0001 0 0 0 52.84375 50.224609 L 45.242188 46.966797 L 52.84375 43.708984 A 1.0001 1.0001 0 0 0 52.84375 41.871094 L 45.240234 38.613281 L 52.84375 35.355469 A 1.0001 1.0001 0 0 0 52.84375 33.517578 L 48.574219 31.6875 L 48.574219 8.7050781 C 49.427037 8.4036536 50.101056 7.726645 50.402344 6.875 L 53.224609 6.875 L 55.052734 11.142578 A 1.0001 1.0001 0 0 0 56.890625 11.142578 L 60.148438 3.5390625 L 63.408203 11.142578 A 1.0001 1.0001 0 0 0 65.246094 11.142578 L 68.503906 3.5390625 L 71.763672 11.142578 A 1.0001 1.0001 0 0 0 73.601562 11.142578 L 76.861328 3.5390625 L 78.029297 6.265625 A 1 1 0 0 0 78.074219 6.3320312 A 1 1 0 0 0 78.210938 6.53125 A 1 1 0 0 0 78.300781 6.6210938 A 1 1 0 0 0 78.509766 6.7578125 A 1 1 0 0 0 78.605469 6.8066406 A 1 1 0 0 0 78.949219 6.8730469 L 89.318359 6.8769531 C 89.729355 8.0457949 90.842217 8.8808594 92.148438 8.8808594 C 93.808673 8.8808594 95.148438 7.5354485 95.148438 5.8808594 C 95.148437 4.2220364 93.803026 2.8808594 92.148438 2.8808594 C 90.841259 2.8808594 89.732661 3.7153387 89.320312 4.8769531 L 79.609375 4.8730469 L 77.78125 0.60742188 A 1.0001 1.0001 0 0 0 75.943359 0.60546875 L 72.681641 8.2109375 L 69.423828 0.60546875 A 1.0001 1.0001 0 0 0 67.585938 0.60546875 L 64.328125 8.2109375 L 61.068359 0.60546875 A 1.0001 1.0001 0 0 0 60.148438 0 A 1.0001 1.0001 0 0 0 59.230469 0.60546875 L 55.972656 8.2089844 L 54.802734 5.4804688 A 1 1 0 0 0 54.794922 5.46875 A 1 1 0 0 0 54.587891 5.1660156 A 1 1 0 0 0 54.570312 5.1503906 A 1 1 0 0 0 54.273438 4.9570312 A 1 1 0 0 0 54.238281 4.9414062 A 1 1 0 0 0 53.882812 4.875 L 50.402344 4.875 C 49.990444 3.7088931 48.879249 2.875 47.574219 2.875 C 46.265558 2.875 45.157329 3.7113258 44.746094 4.875 L 41.263672 4.875 A 1 1 0 0 0 40.923828 4.9394531 A 1 1 0 0 0 40.818359 4.9921875 A 1 1 0 0 0 40.617188 5.125 A 1 1 0 0 0 40.527344 5.2148438 A 1 1 0 0 0 40.386719 5.4199219 A 1 1 0 0 0 40.345703 5.4804688 L 39.175781 8.2089844 L 35.917969 0.60546875 A 1.0001 1.0001 0 0 0 34.080078 0.60546875 L 30.820312 8.2089844 L 27.560547 0.60546875 A 1.0001 1.0001 0 0 0 25.722656 0.60546875 L 22.464844 8.2109375 L 19.205078 0.60546875 A 1.0001 1.0001 0 0 0 18.285156 0 z " />
</svg>
