<?xml version="1.0" encoding="UTF-8" standalone="no"?>
<svg
   width="105"
   height="90"
   id="svg2"
   sodipodi:version="0.32"
   inkscape:version="1.1.1 (1:1.1+202109281943+c3084ef5ed)"
   sodipodi:docname="Tee Baked.svg"
   version="1.1"
   xmlns:inkscape="http://www.inkscape.org/namespaces/inkscape"
   xmlns:sodipodi="http://sodipodi.sourceforge.net/DTD/sodipodi-0.dtd"
   xmlns="http://www.w3.org/2000/svg"
   xmlns:svg="http://www.w3.org/2000/svg"
   xmlns:rdf="http://www.w3.org/1999/02/22-rdf-syntax-ns#"
   xmlns:cc="http://creativecommons.org/ns#"
   xmlns:dc="http://purl.org/dc/elements/1.1/">
  <metadata
     id="metadata131">
    <rdf:RDF>
      <cc:Work
         rdf:about="">
        <dc:format>image/svg+xml</dc:format>
        <dc:type
           rdf:resource="http://purl.org/dc/dcmitype/StillImage" />
      </cc:Work>
    </rdf:RDF>
  </metadata>
  <sodipodi:namedview
     inkscape:window-height="1379"
     inkscape:window-width="2560"
     inkscape:pageshadow="2"
     inkscape:pageopacity="0.0"
     guidetolerance="10.0"
     gridtolerance="10.0"
     objecttolerance="10.0"
     borderopacity="1.0"
     bordercolor="#666666"
     pagecolor="#ffffff"
     id="base"
     inkscape:zoom="8.0000004"
     inkscape:cx="58.062497"
     inkscape:cy="43.812498"
     inkscape:window-x="0"
     inkscape:window-y="30"
     inkscape:current-layer="svg2"
     showgrid="false"
     inkscape:snap-bbox="true"
     inkscape:snap-nodes="true"
     inkscape:bbox-paths="true"
     inkscape:window-maximized="1"
     inkscape:pagecheckerboard="0"
     inkscape:bbox-nodes="false"
     inkscape:snap-object-midpoints="true"
     inkscape:snap-center="true"
     inkscape:object-paths="true"
     inkscape:snap-intersection-paths="true"
     width="105px" />
  <defs
     id="defs4">
    <marker
       id="ArrowEnd"
       viewBox="0 0 10 10"
       refX="0"
       refY="5"
       markerUnits="strokeWidth"
       markerWidth="4"
       markerHeight="3"
       orient="auto">
      <path
         d="M 0,0 10,5 0,10 Z"
         id="path7" />
    </marker>
    <marker
       id="ArrowStart"
       viewBox="0 0 10 10"
       refX="10"
       refY="5"
       markerUnits="strokeWidth"
       markerWidth="4"
       markerHeight="3"
       orient="auto">
      <path
         d="M 10,0 0,5 10,10 Z"
         id="path10" />
    </marker>
  </defs>
  <path
     id="path1293"
     style="color:#000000;fill:#fafafa;stroke-linecap:round;stroke-linejoin:round;-inkscape-stroke:none"
     d="M 22.160156 0 A 1.0001 1.0001 0 0 0 21.242188 0.60742188 L 19.339844 5.0488281 L 6.3261719 5.0566406 A 1 1 0 0 0 5.328125 6.0566406 A 1 1 0 0 0 6.328125 7.0566406 L 20 7.0488281 A 1 1 0 0 0 20.357422 6.9804688 A 1 1 0 0 0 20.384766 6.96875 A 1 1 0 0 0 20.6875 6.7734375 A 1 1 0 0 0 20.705078 6.7558594 A 1 1 0 0 0 20.910156 6.4550781 A 1 1 0 0 0 20.917969 6.4433594 L 22.162109 3.5390625 L 25.570312 11.496094 A 1.0001 1.0001 0 0 0 27.408203 11.496094 L 30.816406 3.5390625 L 34.226562 11.496094 A 1.0001 1.0001 0 0 0 36.064453 11.496094 L 39.472656 3.5390625 L 42.880859 11.496094 A 1.0001 1.0001 0 0 0 44.720703 11.496094 L 46.623047 7.0527344 L 49.558594 7.0527344 C 49.868759 7.9655206 50.588933 8.6865032 51.5 8.9960938 L 51.5 33.486328 A 1 1 0 0 0 51.53125 33.640625 A 1 1 0 0 0 51.576172 33.865234 A 1 1 0 0 0 51.650391 33.980469 A 1 1 0 0 0 51.789062 34.1875 A 1 1 0 0 0 51.982422 34.320312 A 1 1 0 0 0 52.105469 34.404297 L 52.113281 34.408203 A 1 1 0 0 0 52.117188 34.410156 L 55.011719 35.650391 L 47.058594 39.058594 A 1.0001 1.0001 0 0 0 47.058594 40.898438 L 55.011719 44.308594 L 47.058594 47.716797 A 1.0001 1.0001 0 0 0 47.058594 49.554688 L 55.011719 52.964844 L 47.058594 56.373047 A 1.0001 1.0001 0 0 0 47.058594 58.212891 L 51.503906 60.117188 L 51.5 86.890625 A 1 1 0 0 0 52.5 87.890625 A 1 1 0 0 0 53.5 86.890625 L 53.503906 59.457031 A 1 1 0 0 0 53.5 59.402344 A 1 1 0 0 0 53.498047 59.373047 A 1 1 0 0 0 53.480469 59.255859 A 1 1 0 0 0 53.46875 59.207031 A 1 1 0 0 0 53.439453 59.111328 A 1 1 0 0 0 53.414062 59.052734 A 1 1 0 0 0 53.373047 58.96875 A 1 1 0 0 0 53.34375 58.919922 A 1 1 0 0 0 53.283203 58.833984 A 1 1 0 0 0 53.253906 58.800781 A 1 1 0 0 0 53.160156 58.705078 A 1 1 0 0 0 53.144531 58.693359 A 1 1 0 0 0 53.054688 58.625 A 1 1 0 0 0 53.005859 58.595703 A 1 1 0 0 0 52.916016 58.548828 A 1 1 0 0 0 52.896484 58.539062 L 49.990234 57.292969 L 57.945312 53.882812 A 1.0001 1.0001 0 0 0 57.945312 52.044922 L 49.990234 48.636719 L 57.945312 45.226562 A 1.0001 1.0001 0 0 0 57.945312 43.388672 L 49.992188 39.978516 L 57.945312 36.568359 A 1.0001 1.0001 0 0 0 57.945312 34.730469 L 53.5 32.826172 L 53.5 8.9960938 C 54.412185 8.6861172 55.131584 7.9639292 55.441406 7.0527344 L 58.376953 7.0527344 L 60.279297 11.496094 A 1.0001 1.0001 0 0 0 62.119141 11.496094 L 65.527344 3.5390625 L 68.935547 11.496094 A 1.0001 1.0001 0 0 0 70.773438 11.496094 L 74.183594 3.5390625 L 77.591797 11.496094 A 1.0001 1.0001 0 0 0 79.429688 11.496094 L 82.837891 3.5390625 L 84.082031 6.4433594 A 1 1 0 0 0 84.130859 6.515625 A 1 1 0 0 0 84.259766 6.703125 A 1 1 0 0 0 84.359375 6.8027344 A 1 1 0 0 0 84.552734 6.9277344 A 1 1 0 0 0 84.660156 6.984375 A 1 1 0 0 0 85 7.0488281 L 85.013672 7.0488281 L 98.671875 7.0566406 A 1 1 0 0 0 99.671875 6.0566406 A 1 1 0 0 0 98.673828 5.0566406 L 85.660156 5.0488281 L 83.757812 0.60742188 A 1.0001 1.0001 0 0 0 81.919922 0.60546875 L 78.511719 8.5644531 L 75.101562 0.60546875 A 1.0001 1.0001 0 0 0 73.263672 0.60546875 L 69.855469 8.5644531 L 66.445312 0.60546875 A 1.0001 1.0001 0 0 0 65.525391 0 A 1.0001 1.0001 0 0 0 64.607422 0.60546875 L 61.199219 8.5625 L 59.955078 5.6582031 A 1 1 0 0 0 59.951172 5.6523438 A 1 1 0 0 0 59.736328 5.3378906 A 1 1 0 0 0 59.734375 5.3359375 A 1 1 0 0 0 59.728516 5.3320312 A 1 1 0 0 0 59.421875 5.1328125 A 1 1 0 0 0 59.394531 5.1210938 A 1 1 0 0 0 59.037109 5.0527344 L 59.023438 5.0527344 L 55.441406 5.0527344 C 55.025429 3.8248344 53.865714 2.9433594 52.5 2.9433594 C 51.130276 2.9433594 49.971812 3.8271931 49.556641 5.0527344 L 45.962891 5.0527344 A 1 1 0 0 0 45.623047 5.1171875 A 1 1 0 0 0 45.517578 5.1699219 A 1 1 0 0 0 45.316406 5.3027344 A 1 1 0 0 0 45.226562 5.3925781 A 1 1 0 0 0 45.085938 5.5976562 A 1 1 0 0 0 45.044922 5.6582031 L 43.800781 8.5625 L 40.392578 0.60546875 A 1.0001 1.0001 0 0 0 38.554688 0.60546875 L 35.144531 8.5644531 L 31.736328 0.60546875 A 1.0001 1.0001 0 0 0 29.898438 0.60546875 L 26.488281 8.5644531 L 23.080078 0.60546875 A 1.0001 1.0001 0 0 0 22.160156 0 z " />
  <path
     inkscape:connector-curvature="0"
     id="path1279"
     d="m 9.4340073,6.0574159 c 0,1.7146665 -1.3878519,3.1103933 -3.1076769,3.1103933 -1.7139754,0 -3.1076769,-1.3898746 -3.1076769,-3.1103933 0,-1.7132035 1.3878518,-3.1074673 3.1076769,-3.1074673 1.7139753,0 3.1076769,1.3884116 3.1076769,3.1074673"
     style="fill:#8cd5ff;fill-rule:evenodd;stroke:none;stroke-width:1" />
  <path
     inkscape:connector-curvature="0"
     id="path7333"
     d="m 101.78135,6.0574197 c 0,1.7146674 -1.38786,3.1103937 -3.10768,3.1103937 -1.713977,0 -3.107677,-1.3898743 -3.107677,-3.1103937 0,-1.713203 1.387852,-3.1074669 3.107677,-3.1074669 1.71397,0 3.10768,1.3884119 3.10768,3.1074669"
     style="fill:#ff8c82;fill-rule:evenodd;stroke:none;stroke-width:1" />
  <path
     inkscape:connector-curvature="0"
     id="path7335"
     d="m 55.607167,86.889605 c 0,1.714668 -1.387852,3.110394 -3.107677,3.110394 -1.713977,0 -3.107678,-1.389874 -3.107678,-3.110394 0,-1.713203 1.387851,-3.107467 3.107678,-3.107467 1.713974,0 3.107677,1.388412 3.107677,3.107467"
     style="fill:#d1ff82;fill-rule:evenodd;stroke:none;stroke-width:1" />
</svg>
