<?xml version="1.0" encoding="UTF-8" standalone="no"?>
<svg
   width="95.147629"
   height="86.881622"
   id="svg2"
   sodipodi:version="0.32"
   inkscape:version="1.1.1 (1:1.1+202109281943+c3084ef5ed)"
   sodipodi:docname="Tee.svg"
   version="1.1"
   xmlns:inkscape="http://www.inkscape.org/namespaces/inkscape"
   xmlns:sodipodi="http://sodipodi.sourceforge.net/DTD/sodipodi-0.dtd"
   xmlns="http://www.w3.org/2000/svg"
   xmlns:svg="http://www.w3.org/2000/svg"
   xmlns:rdf="http://www.w3.org/1999/02/22-rdf-syntax-ns#"
   xmlns:cc="http://creativecommons.org/ns#"
   xmlns:dc="http://purl.org/dc/elements/1.1/">
  <metadata
     id="metadata131">
    <rdf:RDF>
      <cc:Work
         rdf:about="">
        <dc:format>image/svg+xml</dc:format>
        <dc:type
           rdf:resource="http://purl.org/dc/dcmitype/StillImage" />
      </cc:Work>
    </rdf:RDF>
  </metadata>
  <sodipodi:namedview
     inkscape:window-height="1379"
     inkscape:window-width="2560"
     inkscape:pageshadow="2"
     inkscape:pageopacity="0.0"
     guidetolerance="10.0"
     gridtolerance="10.0"
     objecttolerance="10.0"
     borderopacity="1.0"
     bordercolor="#666666"
     pagecolor="#ffffff"
     id="base"
     inkscape:zoom="11.313709"
     inkscape:cx="49.851028"
     inkscape:cy="23.467106"
     inkscape:window-x="0"
     inkscape:window-y="30"
     inkscape:current-layer="svg2"
     showgrid="false"
     inkscape:snap-bbox="true"
     inkscape:snap-nodes="true"
     inkscape:bbox-paths="true"
     inkscape:window-maximized="1"
     inkscape:pagecheckerboard="0"
     inkscape:bbox-nodes="false"
     inkscape:snap-object-midpoints="true"
     inkscape:snap-center="true"
     inkscape:object-paths="true"
     inkscape:snap-intersection-paths="true" />
  <defs
     id="defs4">
    <marker
       id="ArrowEnd"
       viewBox="0 0 10 10"
       refX="0"
       refY="5"
       markerUnits="strokeWidth"
       markerWidth="4"
       markerHeight="3"
       orient="auto">
      <path
         d="M 0,0 10,5 0,10 Z"
         id="path7" />
    </marker>
    <marker
       id="ArrowStart"
       viewBox="0 0 10 10"
       refX="10"
       refY="5"
       markerUnits="strokeWidth"
       markerWidth="4"
       markerHeight="3"
       orient="auto">
      <path
         d="M 10,0 0,5 10,10 Z"
         id="path10" />
    </marker>
  </defs>
  <path
     inkscape:connector-curvature="0"
     id="path1293"
     d="m 47.577252,57.409134 -4.876007,-2.088482 9.748082,-4.176964 -9.748082,-4.176964 9.748082,-4.176963 -9.748082,-4.176964 9.748082,-4.176963 -4.876007,-2.088482"
     style="fill:none;stroke:#fafafa;stroke-width:2;stroke-linecap:round;stroke-linejoin:round;stroke-miterlimit:4;stroke-dasharray:none" />
  <path
     inkscape:connector-curvature="0"
     id="path1303"
     d="M 47.57332,32.347352 V 5.8748739"
     style="fill:none;stroke:#fafafa;stroke-width:2;stroke-linecap:round;stroke-linejoin:round;stroke-miterlimit:4;stroke-dasharray:none"
     sodipodi:nodetypes="cc" />
  <path
     inkscape:connector-curvature="0"
     id="path1305"
     d="m 47.577252,57.409134 -0.0039,26.472489"
     style="fill:none;stroke:#fafafa;stroke-width:2;stroke-linecap:round;stroke-linejoin:round;stroke-miterlimit:4;stroke-dasharray:none"
     sodipodi:nodetypes="cc" />
  <path
     inkscape:connector-curvature="0"
     id="path1283"
     d="m 41.263935,5.8748719 12.619758,4e-6"
     style="fill:none;stroke:#fafafa;stroke-width:2;stroke-linecap:round;stroke-linejoin:round;stroke-miterlimit:4;stroke-dasharray:none"
     sodipodi:nodetypes="cc" />
  <path
     inkscape:connector-curvature="0"
     id="path1285"
     d="m 16.198675,5.8726834 -13.197759,0.0062"
     style="fill:none;stroke:#fafafa;stroke-width:2;stroke-linecap:round;stroke-linejoin:round;stroke-miterlimit:4;stroke-dasharray:none"
     sodipodi:nodetypes="cc" />
  <path
     inkscape:connector-curvature="0"
     id="path1287"
     d="M 41.263935,5.8748719 39.176095,10.748008 34.998777,0.99984621 30.82031,10.748901 26.642305,1.0000366 22.464529,10.748407 18.285825,1.000233 16.198675,5.8726834"
     style="fill:none;stroke:#fafafa;stroke-width:2;stroke-linecap:round;stroke-linejoin:round;stroke-miterlimit:4;stroke-dasharray:none" />
  <path
     inkscape:connector-curvature="0"
     id="path5557"
     d="m 78.948953,5.8726874 13.197759,0.0062"
     style="fill:none;stroke:#fafafa;stroke-width:2;stroke-linecap:round;stroke-linejoin:round;stroke-miterlimit:4;stroke-dasharray:none"
     sodipodi:nodetypes="cc" />
  <path
     inkscape:connector-curvature="0"
     id="path5559"
     d="m 53.883693,5.8748759 2.08784,4.8731361 4.177318,-9.74816179 4.178467,9.74905479 4.178005,-9.7488644 4.177776,9.7483704 4.178704,-9.748174 2.08715,4.8724504"
     style="fill:none;stroke:#fafafa;stroke-width:2;stroke-linecap:round;stroke-linejoin:round;stroke-miterlimit:4;stroke-dasharray:none" />
  <path
     inkscape:connector-curvature="0"
     id="path1279"
     d="M 6,5.8802095 C 6,7.5347978 4.6602353,8.8816213 3,8.8816213 1.3454116,8.8816213 0,7.5404449 0,5.8802095 0,4.227033 1.3397646,2.8816213 3,2.8816213 c 1.6545883,0 3,1.3397646 3,2.9985882"
     style="fill:#fafafa;fill-rule:evenodd;stroke:none;stroke-width:1" />
  <path
     inkscape:connector-curvature="0"
     id="path7331"
     d="m 50.573814,5.8734617 c 0,1.654589 -1.339765,3.001412 -3,3.001412 -1.654589,0 -3,-1.341176 -3,-3.001412 0,-1.6531756 1.339764,-2.9985876 3,-2.9985876 1.654588,0 3,1.339765 3,2.9985876"
     style="fill:#fafafa;fill-rule:evenodd;stroke:none;stroke-width:1" />
  <path
     inkscape:connector-curvature="0"
     id="path7333"
     d="m 95.147626,5.8802132 c 0,1.6545891 -1.339765,3.0014121 -3,3.0014121 -1.654589,0 -3,-1.341176 -3,-3.0014121 0,-1.653176 1.339764,-2.9985879 3,-2.9985879 1.654588,0 3,1.3397649 3,2.9985879"
     style="fill:#fafafa;fill-rule:evenodd;stroke:none;stroke-width:1" />
  <path
     inkscape:connector-curvature="0"
     id="path7335"
     d="m 50.57332,83.880211 c 0,1.654589 -1.339765,3.001412 -3,3.001412 -1.654589,0 -3,-1.341176 -3,-3.001412 0,-1.653176 1.339764,-2.998588 3,-2.998588 1.654588,0 3,1.339765 3,2.998588"
     style="fill:#fafafa;fill-rule:evenodd;stroke:none;stroke-width:1" />
</svg>
