<svg
      xmlns="http://www.w3.org/2000/svg"
      width="105"
      height="90"
      version="1.1"
    >
      <defs>
        <marker
          markerHeight="3"
          markerUnits="strokeWidth"
          markerWidth="4"
          orient="auto"
          refX="0"
          refY="5"
          viewBox="0 0 10 10"
        >
          <path d="M0 0l10 5-10 5z"></path>
        </marker>
        <marker
          markerHeight="3"
          markerUnits="strokeWidth"
          markerWidth="4"
          orient="auto"
          refX="10"
          refY="5"
          viewBox="0 0 10 10"
        >
          <path d="M10 0L0 5l10 5z"></path>
        </marker>
      </defs>
      <path
        fill="#fafafa"
        strokeLinecap="round"
        strokeLinejoin="round"
        d="M22.16 0a1 1 0 00-.918.607L19.34 5.05l-10.07.006a3.107 3.107 0 00-6.05 1.002 3.11 3.11 0 003.106 3.111c1.37 0 2.528-.887 2.944-2.113L20 7.049a1 1 0 00.357-.069 1 1 0 00.028-.011 1 1 0 00.302-.196 1 1 0 00.018-.017 1 1 0 00.205-.3 1 1 0 00.008-.013l1.244-2.904 3.408 7.957a1 1 0 001.838 0l3.408-7.957 3.41 7.957a1 1 0 001.838 0l3.409-7.957 3.408 7.957a1 1 0 001.84 0l1.902-4.443h2.936A3.114 3.114 0 0051.5 8.996v24.49a1 1 0 00.031.155 1 1 0 00.045.224 1 1 0 00.074.115 1 1 0 00.14.208 1 1 0 00.192.132 1 1 0 00.123.084l.008.004a1 1 0 00.004.002l2.895 1.24-7.953 3.409a1 1 0 000 1.84l7.953 3.41-7.953 3.408a1 1 0 000 1.838l7.953 3.41-7.953 3.408a1 1 0 000 1.84l4.445 1.904-.004 23.83a3.11 3.11 0 001 6.053 3.11 3.11 0 001-6.05l.004-24.493a1 1 0 00-.004-.055 1 1 0 00-.002-.029 1 1 0 00-.018-.117 1 1 0 00-.011-.049 1 1 0 00-.03-.096 1 1 0 00-.025-.058 1 1 0 00-.041-.084 1 1 0 00-.03-.05 1 1 0 00-.06-.085 1 1 0 00-.03-.033 1 1 0 00-.093-.096 1 1 0 00-.015-.012 1 1 0 00-.09-.068 1 1 0 00-.05-.03 1 1 0 00-.089-.046 1 1 0 00-.02-.01l-2.906-1.246 7.955-3.41a1 1 0 000-1.838l-7.955-3.408 7.955-3.41a1 1 0 000-1.838l-7.953-3.41 7.953-3.41a1 1 0 000-1.839L53.5 32.826V8.996a3.115 3.115 0 001.941-1.943h2.936l1.902 4.443a1 1 0 001.84 0l3.408-7.957 3.409 7.957a1 1 0 001.837 0l3.41-7.957 3.409 7.957a1 1 0 001.838 0l3.408-7.957 1.244 2.904a1 1 0 00.049.073 1 1 0 00.129.187 1 1 0 00.1.1 1 1 0 00.193.125 1 1 0 00.107.056 1 1 0 00.34.065l10.729.006a3.11 3.11 0 102.945-4.105 3.108 3.108 0 00-2.942 2.105L85.66 5.049 83.758.607A1 1 0 0081.92.605l-3.408 7.96-3.41-7.96a1 1 0 00-1.838 0l-3.409 7.96-3.41-7.96a1 1 0 00-.92-.605 1 1 0 00-.918.605L61.2 8.562l-1.244-2.904a1 1 0 00-.004-.006 1 1 0 00-.217-.316 1 1 0 00-.005-.004 1 1 0 00-.307-.2 1 1 0 00-.027-.01 1 1 0 00-.358-.07h-3.596a3.106 3.106 0 00-5.884 0h-3.594a1 1 0 00-.34.065 1 1 0 00-.105.053 1 1 0 00-.202.133 1 1 0 00-.09.09 1 1 0 00-.14.205 1 1 0 00-.041.06L43.8 8.562 40.393.606a1 1 0 00-1.838 0l-3.41 7.96-3.409-7.96a1 1 0 00-1.838 0l-3.41 7.96L23.08.604A1 1 0 0022.16 0z"
        color="#000"
      ></path>
    </svg>