<svg
      xmlns="http://www.w3.org/2000/svg"
      width="95.148"
      height="86.882"
      version="1.1"
    >
      <defs>
        <marker
          markerHeight="3"
          markerUnits="strokeWidth"
          markerWidth="4"
          orient="auto"
          refX="0"
          refY="5"
          viewBox="0 0 10 10"
        >
          <path d="M0 0l10 5-10 5z"></path>
        </marker>
        <marker
          markerHeight="3"
          markerUnits="strokeWidth"
          markerWidth="4"
          orient="auto"
          refX="10"
          refY="5"
          viewBox="0 0 10 10"
        >
          <path d="M10 0L0 5l10 5z"></path>
        </marker>
      </defs>
      <path
        fill="#fafafa"
        strokeLinecap="round"
        strokeLinejoin="round"
        d="M18.285 0a1 1 0 00-.918.607L15.54 4.873l-9.71.004A3.002 3.002 0 000 5.881a3 3 0 005.83.996l10.37-.004a1 1 0 00.345-.068 1 1 0 00.084-.043 1 1 0 00.223-.145 1 1 0 00.078-.078 1 1 0 00.15-.219 1 1 0 00.037-.054l1.168-2.727 3.26 7.604a1 1 0 001.838 0l3.258-7.604 3.26 7.604a1 1 0 001.84 0L35 3.539l3.258 7.604a1 1 0 001.838 0l1.828-4.268h2.822a3.006 3.006 0 001.828 1.828v23.645a1 1 0 00.031.154 1 1 0 00.045.225 1 1 0 00.075.115 1 1 0 00.138.207 1 1 0 00.194.133 1 1 0 00.123.084l.008.004a1 1 0 00.003.001l2.72 1.165-7.604 3.257a1 1 0 000 1.838l7.603 3.258-7.603 3.258a1 1 0 000 1.84l7.603 3.258-7.603 3.257a1 1 0 000 1.838l4.271 1.828-.004 22.985a3 3 0 102 0l.004-23.643a1 1 0 00-.004-.055 1 1 0 00-.002-.033 1 1 0 00-.015-.111 1 1 0 00-.016-.06 1 1 0 00-.027-.087 1 1 0 00-.02-.05 1 1 0 00-.058-.118 1 1 0 00-.008-.011 1 1 0 00-.073-.102 1 1 0 00-.025-.03 1 1 0 00-.096-.097 1 1 0 00-.015-.011 1 1 0 00-.094-.07 1 1 0 00-.037-.024 1 1 0 00-.104-.053 1 1 0 00-.013-.008l-2.73-1.17 7.603-3.258a1 1 0 000-1.837l-7.602-3.258 7.602-3.258a1 1 0 000-1.838l-7.604-3.258 7.604-3.258a1 1 0 000-1.837l-4.27-1.83V8.704a3.009 3.009 0 001.828-1.83h2.823l1.828 4.268a1 1 0 001.838 0l3.257-7.604 3.26 7.604a1 1 0 001.838 0l3.258-7.604 3.26 7.604a1 1 0 001.838 0l3.26-7.604 1.167 2.727a1 1 0 00.045.066 1 1 0 00.137.2 1 1 0 00.09.09 1 1 0 00.209.136 1 1 0 00.095.049 1 1 0 00.344.066l10.37.004a3 3 0 10.001-2l-9.71-.004L77.78.607a1 1 0 00-1.838-.002l-3.261 7.606L69.424.605a1 1 0 00-1.838 0l-3.258 7.606-3.26-7.606a1 1 0 00-.92-.605 1 1 0 00-.918.605L55.973 8.21l-1.17-2.729a1 1 0 00-.008-.011 1 1 0 00-.207-.303 1 1 0 00-.018-.016 1 1 0 00-.297-.193 1 1 0 00-.035-.016 1 1 0 00-.355-.066h-3.48a3 3 0 00-5.657 0h-3.482a1 1 0 00-.34.064 1 1 0 00-.106.053 1 1 0 00-.2.133 1 1 0 00-.09.09 1 1 0 00-.141.205 1 1 0 00-.041.06l-1.17 2.729L35.918.605a1 1 0 00-1.838 0L30.82 8.21 27.56.605a1 1 0 00-1.837 0l-3.258 7.606-3.26-7.606a1 1 0 00-.92-.605z"
        color="#000"
      ></path>
    </svg>