<?xml version="1.0" encoding="UTF-8" standalone="no"?>
<svg
   width="105"
   height="89.999992"
   id="svg2"
   sodipodi:version="0.32"
   inkscape:version="1.1.1 (1:1.1+202109281943+c3084ef5ed)"
   sodipodi:docname="Wye.svg"
   version="1.1"
   xmlns:inkscape="http://www.inkscape.org/namespaces/inkscape"
   xmlns:sodipodi="http://sodipodi.sourceforge.net/DTD/sodipodi-0.dtd"
   xmlns="http://www.w3.org/2000/svg"
   xmlns:svg="http://www.w3.org/2000/svg"
   xmlns:rdf="http://www.w3.org/1999/02/22-rdf-syntax-ns#"
   xmlns:cc="http://creativecommons.org/ns#"
   xmlns:dc="http://purl.org/dc/elements/1.1/">
  <metadata
     id="metadata131">
    <rdf:RDF>
      <cc:Work
         rdf:about="">
        <dc:format>image/svg+xml</dc:format>
        <dc:type
           rdf:resource="http://purl.org/dc/dcmitype/StillImage" />
      </cc:Work>
    </rdf:RDF>
  </metadata>
  <sodipodi:namedview
     inkscape:window-height="1379"
     inkscape:window-width="2560"
     inkscape:pageshadow="2"
     inkscape:pageopacity="0.0"
     guidetolerance="10.0"
     gridtolerance="10.0"
     objecttolerance="10.0"
     borderopacity="1.0"
     bordercolor="#666666"
     pagecolor="#ffffff"
     id="base"
     inkscape:zoom="8"
     inkscape:cx="61.4375"
     inkscape:cy="35.3125"
     inkscape:window-x="0"
     inkscape:window-y="30"
     inkscape:current-layer="svg2"
     showgrid="false"
     inkscape:snap-bbox="true"
     inkscape:snap-nodes="true"
     inkscape:bbox-paths="true"
     inkscape:window-maximized="1"
     inkscape:pagecheckerboard="0"
     inkscape:bbox-nodes="false"
     inkscape:snap-object-midpoints="true"
     inkscape:snap-center="true"
     inkscape:object-paths="true"
     inkscape:snap-intersection-paths="true" />
  <defs
     id="defs4">
    <marker
       id="ArrowEnd"
       viewBox="0 0 10 10"
       refX="0"
       refY="5"
       markerUnits="strokeWidth"
       markerWidth="4"
       markerHeight="3"
       orient="auto">
      <path
         d="M 0,0 10,5 0,10 Z"
         id="path7" />
    </marker>
    <marker
       id="ArrowStart"
       viewBox="0 0 10 10"
       refX="10"
       refY="5"
       markerUnits="strokeWidth"
       markerWidth="4"
       markerHeight="3"
       orient="auto">
      <path
         d="M 10,0 0,5 10,10 Z"
         id="path10" />
    </marker>
  </defs>
  <g
     id="g6305"
     style="stroke:#fafafa;stroke-width:1.89926;stroke-linecap:round;stroke-linejoin:round;stroke-miterlimit:4;stroke-dasharray:none"
     transform="matrix(1.0530725,0,0,1.053016,2.4995892,0.97333123)">
    <path
       inkscape:connector-curvature="0"
       id="path1293"
       d="m 47.484,67.649729 -4.961,-2.125 9.918,-4.250001 -9.918,-4.25 9.918,-4.25 -9.918,-4.25 9.918,-4.25 -4.961,-2.125"
       style="fill:none;stroke:#fafafa;stroke-width:1.89926;stroke-linecap:round;stroke-linejoin:round;stroke-miterlimit:4;stroke-dasharray:none" />
    <path
       inkscape:connector-curvature="0"
       id="path1303"
       d="M 47.48,42.149728 V 28.307457"
       style="fill:none;stroke:#fafafa;stroke-width:1.89926;stroke-linecap:round;stroke-linejoin:round;stroke-miterlimit:4;stroke-dasharray:none"
       sodipodi:nodetypes="cc" />
    <path
       inkscape:connector-curvature="0"
       id="path1305"
       d="M 47.484,67.649729 47.48,81.492005"
       style="fill:none;stroke:#fafafa;stroke-width:1.89926;stroke-linecap:round;stroke-linejoin:round;stroke-miterlimit:4;stroke-dasharray:none"
       sodipodi:nodetypes="cc" />
  </g>
  <g
     id="g5473"
     inkscape:transform-center-x="-23.883541"
     inkscape:transform-center-y="13.786916"
     transform="matrix(0.52653627,-0.91193857,0.91198757,0.52650798,29.908831,-104.46687)"
     style="stroke:#fafafa;stroke-width:1.89926;stroke-linecap:round;stroke-linejoin:round;stroke-miterlimit:4;stroke-dasharray:none">
    <path
       inkscape:connector-curvature="0"
       id="path1283"
       d="M -100.50544,69.363973 V 82.797625"
       style="fill:none;stroke:#fafafa;stroke-width:1.89926;stroke-linecap:round;stroke-linejoin:round;stroke-miterlimit:4;stroke-dasharray:none"
       sodipodi:nodetypes="cc" />
    <path
       inkscape:connector-curvature="0"
       id="path1285"
       d="m -100.50262,43.86146 -0.006,-13.427988"
       style="fill:none;stroke:#fafafa;stroke-width:1.89926;stroke-linecap:round;stroke-linejoin:round;stroke-miterlimit:4;stroke-dasharray:none"
       sodipodi:nodetypes="cc" />
    <path
       inkscape:connector-curvature="0"
       id="path1287"
       d="m -100.50544,69.363973 -4.95823,-2.124146 9.91858,-4.250421 -9.91929,-4.251127 9.919294,-4.25112 -9.918594,-4.250424 9.918592,-4.251831 -4.957532,-2.123444"
       style="fill:none;stroke:#fafafa;stroke-width:1.89926;stroke-linecap:round;stroke-linejoin:round;stroke-miterlimit:4;stroke-dasharray:none" />
  </g>
  <g
     id="g5561"
     inkscape:transform-center-x="23.88354"
     inkscape:transform-center-y="13.786922"
     transform="matrix(-0.52653627,-0.91193857,-0.91198757,0.52650798,75.091172,-104.46686)"
     style="stroke:#fafafa;stroke-width:1.89926;stroke-linecap:round;stroke-linejoin:round;stroke-miterlimit:4;stroke-dasharray:none">
    <path
       inkscape:connector-curvature="0"
       id="path5555"
       d="M -100.50544,69.363973 V 82.797625"
       style="fill:none;stroke:#fafafa;stroke-width:1.89926;stroke-linecap:round;stroke-linejoin:round;stroke-miterlimit:4;stroke-dasharray:none"
       sodipodi:nodetypes="cc" />
    <path
       inkscape:connector-curvature="0"
       id="path5557"
       d="m -100.50262,43.86146 -0.006,-13.427988"
       style="fill:none;stroke:#fafafa;stroke-width:1.89926;stroke-linecap:round;stroke-linejoin:round;stroke-miterlimit:4;stroke-dasharray:none"
       sodipodi:nodetypes="cc" />
    <path
       inkscape:connector-curvature="0"
       id="path5559"
       d="m -100.50544,69.363973 -4.95823,-2.124146 9.91858,-4.250421 -9.91929,-4.251127 9.919294,-4.25112 -9.918594,-4.250424 9.918592,-4.251831 -4.957532,-2.123444"
       style="fill:none;stroke:#fafafa;stroke-width:1.89926;stroke-linecap:round;stroke-linejoin:round;stroke-miterlimit:4;stroke-dasharray:none" />
  </g>
  <path
     inkscape:connector-curvature="0"
     id="path1279"
     d="m 7.956631,3.2127729 c 0,1.772773 -1.4354621,3.2157981 -3.2142855,3.2157981 C 2.9695723,6.428571 1.52806,4.9915964 1.52806,3.2127729 1.52806,1.4415124 2.963522,0 4.7423455,0 6.5151186,0 7.956631,1.435462 7.956631,3.2127729"
     style="fill:#8cd5ff;fill-rule:evenodd;stroke:none;stroke-width:1" />
  <path
     inkscape:connector-curvature="0"
     id="path7331"
     d="m 55.71481,30.78002 c 0,1.772774 -1.435463,3.215799 -3.214286,3.215799 -1.772774,0 -3.214285,-1.436974 -3.214285,-3.215799 0,-1.771259 1.435461,-3.212772 3.214285,-3.212772 1.772773,0 3.214286,1.435462 3.214286,3.212772"
     style="fill:#fafafa;fill-rule:evenodd;stroke:none;stroke-width:1" />
  <path
     inkscape:connector-curvature="0"
     id="path7333"
     d="m 103.47194,3.2127768 c 0,1.7727739 -1.43546,3.2157985 -3.21429,3.2157985 -1.772771,0 -3.214283,-1.4369742 -3.214283,-3.2157985 0,-1.7712599 1.435462,-3.212772514286 3.214283,-3.212772514286 1.77278,0 3.21429,1.435462314286 3.21429,3.212772514286"
     style="fill:#ff8c82;fill-rule:evenodd;stroke:none;stroke-width:1" />
  <path
     inkscape:connector-curvature="0"
     id="path7335"
     d="m 55.713756,86.784198 c 0,1.772774 -1.435462,3.215798 -3.214285,3.215798 -1.772774,0 -3.214286,-1.436974 -3.214286,-3.215798 0,-1.77126 1.435462,-3.212773 3.214286,-3.212773 1.772773,0 3.214285,1.435463 3.214285,3.212773"
     style="fill:#d1ff82;fill-rule:evenodd;stroke:none;stroke-width:1" />
</svg>
