<?xml version="1.0" encoding="UTF-8" standalone="no"?>
<svg
   width="94.960999"
   height="106.297"
   id="svg2"
   sodipodi:version="0.32"
   inkscape:version="1.1.1 (1:1.1+202109281943+c3084ef5ed)"
   sodipodi:docname="Wye.svg"
   version="1.1"
   xmlns:inkscape="http://www.inkscape.org/namespaces/inkscape"
   xmlns:sodipodi="http://sodipodi.sourceforge.net/DTD/sodipodi-0.dtd"
   xmlns="http://www.w3.org/2000/svg"
   xmlns:svg="http://www.w3.org/2000/svg"
   xmlns:rdf="http://www.w3.org/1999/02/22-rdf-syntax-ns#"
   xmlns:cc="http://creativecommons.org/ns#"
   xmlns:dc="http://purl.org/dc/elements/1.1/">
  <metadata
     id="metadata131">
    <rdf:RDF>
      <cc:Work
         rdf:about="">
        <dc:format>image/svg+xml</dc:format>
        <dc:type
           rdf:resource="http://purl.org/dc/dcmitype/StillImage" />
      </cc:Work>
    </rdf:RDF>
  </metadata>
  <sodipodi:namedview
     inkscape:window-height="1379"
     inkscape:window-width="2560"
     inkscape:pageshadow="2"
     inkscape:pageopacity="0.0"
     guidetolerance="10.0"
     gridtolerance="10.0"
     objecttolerance="10.0"
     borderopacity="1.0"
     bordercolor="#666666"
     pagecolor="#ffffff"
     id="base"
     inkscape:zoom="8"
     inkscape:cx="31.625"
     inkscape:cy="55.3125"
     inkscape:window-x="0"
     inkscape:window-y="30"
     inkscape:current-layer="layer2"
     showgrid="false"
     inkscape:snap-bbox="true"
     inkscape:snap-nodes="false"
     inkscape:bbox-paths="true"
     inkscape:window-maximized="1"
     inkscape:pagecheckerboard="0" />
  <defs
     id="defs4">
    <marker
       id="ArrowEnd"
       viewBox="0 0 10 10"
       refX="0"
       refY="5"
       markerUnits="strokeWidth"
       markerWidth="4"
       markerHeight="3"
       orient="auto">
      <path
         d="M 0,0 10,5 0,10 Z"
         id="path7" />
    </marker>
    <marker
       id="ArrowStart"
       viewBox="0 0 10 10"
       refX="10"
       refY="5"
       markerUnits="strokeWidth"
       markerWidth="4"
       markerHeight="3"
       orient="auto">
      <path
         d="M 10,0 0,5 10,10 Z"
         id="path10" />
    </marker>
  </defs>
  <g
     inkscape:groupmode="layer"
     id="layer1"
     inkscape:label="Line">
    <path
       inkscape:connector-curvature="0"
       id="path76"
       d="m 33.824,33.82 7.012,7.012"
       style="fill:none;stroke:#fafafa;stroke-width:2;stroke-linecap:round;stroke-miterlimit:4;stroke-dasharray:none" />
    <path
       inkscape:connector-curvature="0"
       id="path78"
       d="M 15.781,15.781 8.769,8.77"
       style="fill:none;stroke:#fafafa;stroke-width:2;stroke-linecap:round;stroke-miterlimit:4;stroke-dasharray:none" />
    <path
       inkscape:connector-curvature="0"
       id="path80"
       d="m 33.824,33.82 -5.008,2.004 4.008,-10.019 -10.02,4.008 4.008,-10.02 -10.019,4.008 4.007,-10.02 -5.007,2.004"
       style="fill:none;stroke:#fafafa;stroke-width:2;stroke-linecap:round;stroke-linejoin:round;stroke-miterlimit:4;stroke-dasharray:none" />
    <path
       inkscape:connector-curvature="0"
       id="path82"
       d="M 47.48,88.582 V 98.5"
       style="fill:none;stroke:#fafafa;stroke-width:2;stroke-linecap:round;stroke-miterlimit:4;stroke-dasharray:none" />
    <path
       inkscape:connector-curvature="0"
       id="path84"
       d="M 47.48,63.07 V 53.152"
       style="fill:none;stroke:#fafafa;stroke-width:2;stroke-linecap:round;stroke-miterlimit:4;stroke-dasharray:none" />
    <path
       inkscape:connector-curvature="0"
       id="path86"
       d="m 47.48,88.582 -4.961,-2.125 9.918,-4.25 -9.918,-4.25 9.918,-4.25 -9.918,-4.25 9.918,-4.25 -4.961,-2.125"
       style="fill:none;stroke:#fafafa;stroke-width:2;stroke-linecap:round;stroke-linejoin:round;stroke-miterlimit:4;stroke-dasharray:none" />
    <path
       inkscape:connector-curvature="0"
       id="path88"
       d="m 61.136,33.82 -7.011,7.012"
       style="fill:none;stroke:#fafafa;stroke-width:2;stroke-linecap:round;stroke-miterlimit:4;stroke-dasharray:none" />
    <path
       inkscape:connector-curvature="0"
       id="path90"
       d="M 79.175,15.781 86.187,8.77"
       style="fill:none;stroke:#fafafa;stroke-width:2;stroke-linecap:round;stroke-miterlimit:4;stroke-dasharray:none" />
    <path
       inkscape:connector-curvature="0"
       id="path92"
       d="m 61.136,33.82 -2.003,-5.007 10.019,4.007 -4.008,-10.019 10.02,4.008 -4.008,-10.02 10.019,4.008 -2.003,-5.008"
       style="fill:none;stroke:#fafafa;stroke-width:2;stroke-linecap:round;stroke-linejoin:round;stroke-miterlimit:4;stroke-dasharray:none" />
    <path
       inkscape:connector-curvature="0"
       id="path94"
       d="M 58.82,36.141 47.484,47.477"
       style="fill:none;stroke:#fafafa;stroke-width:2;stroke-linecap:round;stroke-miterlimit:4;stroke-dasharray:none" />
    <path
       inkscape:connector-curvature="0"
       id="path96"
       d="M 47.48,58.816 V 47.48"
       style="fill:none;stroke:#fafafa;stroke-width:2;stroke-linecap:round;stroke-miterlimit:4;stroke-dasharray:none" />
    <path
       inkscape:connector-curvature="0"
       id="path98"
       d="m 47.48,92.836 v 11.336"
       style="fill:none;stroke:#fafafa;stroke-width:2;stroke-linecap:round;stroke-miterlimit:4;stroke-dasharray:none" />
    <path
       inkscape:connector-curvature="0"
       id="path100"
       d="M 81.496,13.465 92.832,2.129"
       style="fill:none;stroke:#fafafa;stroke-width:2;stroke-linecap:round;stroke-miterlimit:4;stroke-dasharray:none" />
    <path
       inkscape:connector-curvature="0"
       id="path102"
       d="M 13.465,13.465 2.129,2.129"
       style="fill:none;stroke:#fafafa;stroke-width:2;stroke-linecap:round;stroke-miterlimit:4;stroke-dasharray:none" />
    <path
       inkscape:connector-curvature="0"
       id="path104"
       d="M 36.14,36.141 47.476,47.477"
       style="fill:none;stroke:#fafafa;stroke-width:2;stroke-linecap:round;stroke-miterlimit:4;stroke-dasharray:none" />
  </g>
  <g
     inkscape:groupmode="layer"
     id="layer2"
     inkscape:label="Nodes"
     style="display:inline"
     sodipodi:insensitive="true">
    <path
       inkscape:connector-curvature="0"
       id="path68"
       d="m 49.605,104.172 c 0,1.172 -0.949,2.125 -2.125,2.125 -1.172,0 -2.125,-0.949 -2.125,-2.125 0,-1.172 0.949,-2.125 2.125,-2.125 1.172,0 2.125,0.949 2.125,2.125"
       style="fill:#fafafa;fill-rule:evenodd;stroke:none" />
    <path
       inkscape:connector-curvature="0"
       id="path70"
       d="M 4.25,2.125 C 4.25,3.297 3.3,4.25 2.125,4.25 0.953,4.25 0,3.301 0,2.125 0,0.953 0.949,0 2.125,0 3.297,0 4.25,0.949 4.25,2.125"
       style="fill:#fafafa;fill-rule:evenodd;stroke:none" />
    <path
       inkscape:connector-curvature="0"
       id="path74"
       d="m 94.961,2.125 c 0,1.172 -0.95,2.125 -2.125,2.125 -1.172,0 -2.125,-0.949 -2.125,-2.125 C 90.711,0.953 91.66,0 92.836,0 c 1.171,0 2.125,0.949 2.125,2.125"
       style="fill:#fafafa;fill-rule:evenodd;stroke:none" />
    <path
       inkscape:connector-curvature="0"
       id="path72"
       d="m 49.605,47.48 c 0,1.172 -0.949,2.126 -2.125,2.126 -1.172,0 -2.125,-0.95 -2.125,-2.126 0,-1.171 0.949,-2.124 2.125,-2.124 1.172,0 2.125,0.949 2.125,2.124"
       style="display:inline;fill:#fafafa;fill-rule:evenodd;stroke:none" />
  </g>
  <g
     inkscape:groupmode="layer"
     id="layer3"
     inkscape:label="Letter"
     sodipodi:insensitive="true"
     style="display:none">
    <g
       id="g1987"
       style="fill:#fafafa">
      <path
         inkscape:connector-curvature="0"
         id="path118"
         d="m 10.035,33.16 h 3.375 c 0.918,0 1.426,0.371 1.426,1.074 0,0.243 -0.036,0.543 -0.098,0.86 -0.297,1.429 -0.297,1.429 -0.297,1.89 0,0.215 0.012,0.371 0.055,0.672 h 1.566 l 0.067,-0.324 c -0.18,-0.168 -0.293,-0.437 -0.293,-0.746 0,-0.168 0.027,-0.406 0.086,-0.703 0.191,-0.961 0.308,-1.696 0.308,-1.949 0,-0.618 -0.187,-0.918 -0.867,-1.356 0.551,-0.309 0.777,-0.465 1.031,-0.691 0.567,-0.52 0.949,-1.469 0.949,-2.344 0,-1.496 -0.82,-2.176 -2.632,-2.176 H 9.949 L 7.754,37.664 h 1.328 z m 0.25,-1.101 0.769,-3.598 h 3.286 c 0.753,0 1.128,0.098 1.398,0.398 0.184,0.2 0.301,0.528 0.301,0.875 0,0.528 -0.215,1.161 -0.528,1.563 -0.41,0.515 -1.011,0.758 -1.925,0.758"
         style="fill:#fafafa;fill-rule:evenodd;stroke:none" />
      <path
         inkscape:connector-curvature="0"
         id="path120"
         d="m 20.129,35.988 -1.024,4.77 h 0.836 l 1.434,-6.699 h -0.551 c -0.512,1.019 -0.711,1.14 -2.078,1.328 l -0.121,0.593"
         style="fill:#fafafa;fill-rule:evenodd;stroke:none" />
    </g>
    <g
       id="g1983"
       style="fill:#fafafa">
      <path
         inkscape:connector-curvature="0"
         id="path122"
         d="m 77.937,34.531 h 3.375 c 0.918,0 1.426,0.371 1.426,1.074 0,0.243 -0.035,0.543 -0.098,0.86 -0.297,1.429 -0.297,1.429 -0.297,1.89 0,0.215 0.012,0.371 0.055,0.672 h 1.567 l 0.066,-0.324 c -0.18,-0.168 -0.293,-0.437 -0.293,-0.746 0,-0.168 0.027,-0.406 0.086,-0.703 0.191,-0.961 0.309,-1.696 0.309,-1.949 0,-0.618 -0.188,-0.918 -0.868,-1.356 0.551,-0.309 0.778,-0.465 1.032,-0.691 0.566,-0.52 0.949,-1.469 0.949,-2.344 0,-1.496 -0.821,-2.176 -2.633,-2.176 h -4.762 l -2.195,10.297 h 1.328 z m 0.246,-1.101 0.77,-3.598 h 3.285 c 0.754,0 1.129,0.098 1.398,0.398 0.184,0.2 0.301,0.528 0.301,0.875 0,0.528 -0.215,1.161 -0.527,1.563 -0.41,0.515 -1.012,0.758 -1.926,0.758"
         style="fill:#fafafa;fill-rule:evenodd;stroke:none" />
      <path
         inkscape:connector-curvature="0"
         id="path124"
         d="m 89.531,41.328 h -3.586 c 0.16,-0.465 0.684,-0.926 1.551,-1.355 l 1.062,-0.54 c 1.266,-0.632 1.883,-1.421 1.883,-2.367 0,-0.418 -0.141,-0.812 -0.398,-1.097 -0.321,-0.36 -0.778,-0.532 -1.426,-0.532 -1.465,0 -2.301,0.719 -2.672,2.301 h 0.844 c 0.113,-0.426 0.23,-0.711 0.402,-0.945 0.297,-0.418 0.777,-0.653 1.336,-0.653 0.672,0 1.113,0.407 1.113,1.016 0,0.606 -0.461,1.176 -1.254,1.574 l -0.996,0.493 c -1.656,0.871 -2.097,1.382 -2.519,2.91 h 4.48"
         style="fill:#fafafa;fill-rule:evenodd;stroke:none" />
    </g>
    <g
       id="g1991"
       style="fill:#fafafa">
      <path
         inkscape:connector-curvature="0"
         id="path126"
         d="m 60.312,77.164 h 3.375 c 0.918,0 1.426,0.371 1.426,1.074 0,0.242 -0.035,0.543 -0.098,0.86 -0.297,1.429 -0.297,1.429 -0.297,1.89 0,0.215 0.012,0.371 0.055,0.672 h 1.567 l 0.066,-0.324 c -0.18,-0.168 -0.293,-0.438 -0.293,-0.746 0,-0.168 0.027,-0.406 0.086,-0.703 0.191,-0.961 0.309,-1.696 0.309,-1.95 0,-0.617 -0.188,-0.918 -0.868,-1.355 0.551,-0.309 0.778,-0.465 1.032,-0.691 0.566,-0.52 0.949,-1.469 0.949,-2.344 0,-1.496 -0.821,-2.176 -2.633,-2.176 h -4.762 l -2.195,10.297 h 1.328 z m 0.246,-1.098 0.77,-3.597 h 3.285 c 0.754,0 1.129,0.097 1.398,0.398 0.184,0.199 0.301,0.527 0.301,0.875 0,0.527 -0.215,1.16 -0.527,1.563 -0.41,0.515 -1.012,0.757 -1.926,0.757"
         style="fill:#fafafa;fill-rule:evenodd;stroke:none" />
      <path
         inkscape:connector-curvature="0"
         id="path128"
         d="m 69.672,81.68 c 0.203,-0.012 0.304,-0.012 0.441,-0.012 0.816,0 1.301,0.32 1.301,0.863 0,1.028 -0.758,1.731 -1.848,1.731 -0.691,0 -1.148,-0.371 -1.148,-0.957 0,-0.075 0.007,-0.219 0.031,-0.371 l 0.019,-0.125 H 67.66 c -0.035,0.281 -0.043,0.41 -0.043,0.582 0,1.015 0.644,1.57 1.832,1.57 0.851,0 1.574,-0.281 2.059,-0.809 0.433,-0.461 0.703,-1.136 0.703,-1.75 0,-0.535 -0.215,-0.847 -0.77,-1.109 0.813,-0.449 1.168,-1.008 1.168,-1.844 0,-0.828 -0.684,-1.375 -1.73,-1.375 -0.789,0 -1.454,0.278 -1.922,0.793 -0.274,0.317 -0.446,0.672 -0.629,1.344 h 0.844 c 0.093,-0.414 0.179,-0.645 0.324,-0.832 0.285,-0.387 0.75,-0.606 1.289,-0.606 0.625,0 1.019,0.313 1.019,0.825 0,0.359 -0.125,0.711 -0.328,0.925 -0.261,0.293 -0.773,0.446 -1.484,0.446 H 69.82"
         style="fill:#fafafa;fill-rule:evenodd;stroke:none" />
    </g>
  </g>
</svg>
