<?xml version="1.0" encoding="UTF-8" standalone="no"?>
<svg
   width="105"
   height="89.999992"
   id="svg2"
   sodipodi:version="0.32"
   inkscape:version="1.1.1 (1:1.1+202109281943+c3084ef5ed)"
   sodipodi:docname="WyeBaked.svg"
   version="1.1"
   xmlns:inkscape="http://www.inkscape.org/namespaces/inkscape"
   xmlns:sodipodi="http://sodipodi.sourceforge.net/DTD/sodipodi-0.dtd"
   xmlns="http://www.w3.org/2000/svg"
   xmlns:svg="http://www.w3.org/2000/svg"
   xmlns:rdf="http://www.w3.org/1999/02/22-rdf-syntax-ns#"
   xmlns:cc="http://creativecommons.org/ns#"
   xmlns:dc="http://purl.org/dc/elements/1.1/">
  <metadata
     id="metadata131">
    <rdf:RDF>
      <cc:Work
         rdf:about="">
        <dc:format>image/svg+xml</dc:format>
        <dc:type
           rdf:resource="http://purl.org/dc/dcmitype/StillImage" />
      </cc:Work>
    </rdf:RDF>
  </metadata>
  <sodipodi:namedview
     inkscape:window-height="1379"
     inkscape:window-width="2560"
     inkscape:pageshadow="2"
     inkscape:pageopacity="0.0"
     guidetolerance="10.0"
     gridtolerance="10.0"
     objecttolerance="10.0"
     borderopacity="1.0"
     bordercolor="#666666"
     pagecolor="#ffffff"
     id="base"
     inkscape:zoom="5.6568543"
     inkscape:cx="60.722795"
     inkscape:cy="41.454135"
     inkscape:window-x="0"
     inkscape:window-y="30"
     inkscape:current-layer="svg2"
     showgrid="false"
     inkscape:snap-bbox="true"
     inkscape:snap-nodes="true"
     inkscape:bbox-paths="true"
     inkscape:window-maximized="1"
     inkscape:pagecheckerboard="0"
     inkscape:bbox-nodes="false"
     inkscape:snap-object-midpoints="true"
     inkscape:snap-center="true"
     inkscape:object-paths="true"
     inkscape:snap-intersection-paths="true" />
  <defs
     id="defs4">
    <marker
       id="ArrowEnd"
       viewBox="0 0 10 10"
       refX="0"
       refY="5"
       markerUnits="strokeWidth"
       markerWidth="4"
       markerHeight="3"
       orient="auto">
      <path
         d="M 0,0 10,5 0,10 Z"
         id="path7" />
    </marker>
    <marker
       id="ArrowStart"
       viewBox="0 0 10 10"
       refX="10"
       refY="5"
       markerUnits="strokeWidth"
       markerWidth="4"
       markerHeight="3"
       orient="auto">
      <path
         d="M 10,0 0,5 10,10 Z"
         id="path10" />
    </marker>
  </defs>
  <path
     id="path1293"
     style="color:#000000;fill:#fafafa;stroke-linecap:round;stroke-linejoin:round;-inkscape-stroke:none"
     d="M 4.7421875 2.2128906 A 1 1 0 0 0 4.4824219 2.2480469 A 1 1 0 0 0 3.8769531 2.7148438 A 1 1 0 0 0 4.2421875 4.0800781 L 16.476562 11.136719 A 1 1 0 0 0 16.490234 11.142578 L 16.492188 11.144531 A 1 1 0 0 0 16.816406 11.257812 A 1 1 0 0 0 16.939453 11.263672 A 1 1 0 0 0 17.175781 11.251953 A 1 1 0 0 0 17.306641 11.216797 A 1 1 0 0 0 17.509766 11.119141 A 1 1 0 0 0 17.591797 11.080078 L 20.269531 9.0761719 L 19.201172 18.041016 A 1.0001 1.0001 0 0 0 20.792969 18.960938 L 28.023438 13.550781 L 26.953125 22.517578 A 1.0001 1.0001 0 0 0 28.544922 23.4375 L 35.777344 18.027344 L 34.707031 26.994141 A 1.0001 1.0001 0 0 0 36.298828 27.912109 L 40.320312 24.904297 L 49.353516 30.121094 C 49.309216 30.333659 49.287109 30.553741 49.287109 30.779297 C 49.287109 32.20774 50.215802 33.41547 51.5 33.835938 L 51.5 45.345703 L 51.5 45.357422 A 1 1 0 0 0 51.564453 45.695312 A 1 1 0 0 0 51.623047 45.810547 A 1 1 0 0 0 51.746094 46 A 1 1 0 0 0 51.845703 46.099609 A 1 1 0 0 0 52.033203 46.228516 A 1 1 0 0 0 52.105469 46.277344 L 55.183594 47.595703 L 46.884766 51.152344 A 1.0001 1.0001 0 0 0 46.884766 52.990234 L 55.185547 56.546875 L 46.884766 60.101562 A 1.0001 1.0001 0 0 0 46.884766 61.941406 L 55.185547 65.496094 L 46.884766 69.052734 A 1.0001 1.0001 0 0 0 46.884766 70.890625 L 51.503906 72.869141 L 51.5 86.785156 A 1 1 0 0 0 52.5 87.785156 A 1 1 0 0 0 53.5 86.785156 L 53.503906 72.208984 A 1 1 0 0 0 53.501953 72.173828 A 1 1 0 0 0 53.498047 72.115234 A 1 1 0 0 0 53.480469 72.001953 A 1 1 0 0 0 53.478516 71.988281 A 1 1 0 0 0 53.478516 71.986328 A 1 1 0 0 0 53.431641 71.837891 A 1 1 0 0 0 53.365234 71.707031 A 1 1 0 0 0 53.361328 71.697266 A 1 1 0 0 0 53.355469 71.6875 A 1 1 0 0 0 53.271484 71.570312 A 1 1 0 0 0 53.162109 71.457031 A 1 1 0 0 0 53.042969 71.369141 A 1 1 0 0 0 53.035156 71.363281 A 1 1 0 0 0 53.023438 71.357422 A 1 1 0 0 0 52.896484 71.291016 A 1 1 0 0 0 52.845703 71.269531 L 49.818359 69.972656 L 58.117188 66.416016 A 1.0001 1.0001 0 0 0 58.117188 64.578125 L 49.820312 61.021484 L 58.117188 57.464844 A 1.0001 1.0001 0 0 0 58.117188 55.626953 L 49.818359 52.070312 L 58.117188 48.513672 A 1.0001 1.0001 0 0 0 58.117188 46.675781 L 53.5 44.697266 L 53.5 33.837891 C 54.787287 33.416937 55.714844 32.203941 55.714844 30.779297 C 55.714844 30.553639 55.690687 30.333492 55.646484 30.121094 L 64.679688 24.904297 L 68.701172 27.912109 A 1.0001 1.0001 0 0 0 70.292969 26.994141 L 69.222656 18.027344 L 76.455078 23.4375 A 1.0001 1.0001 0 0 0 78.046875 22.517578 L 76.976562 13.550781 L 84.207031 18.960938 A 1.0001 1.0001 0 0 0 85.798828 18.041016 L 84.730469 9.0761719 L 87.408203 11.080078 A 1 1 0 0 0 87.490234 11.119141 A 1 1 0 0 0 87.693359 11.216797 A 1 1 0 0 0 87.824219 11.251953 A 1 1 0 0 0 88.060547 11.263672 A 1 1 0 0 0 88.183594 11.257812 A 1 1 0 0 0 88.507812 11.144531 L 88.509766 11.142578 A 1 1 0 0 0 88.523438 11.136719 L 100.75781 4.0800781 A 1 1 0 0 0 101.12305 2.7148438 A 1 1 0 0 0 99.757812 2.3476562 L 88.078125 9.0820312 L 84.060547 6.0761719 A 1.0001 1.0001 0 0 0 82.960938 6.0097656 A 1.0001 1.0001 0 0 0 82.46875 6.9941406 L 83.537109 15.960938 L 76.306641 10.550781 A 1.0001 1.0001 0 0 0 74.714844 11.470703 L 75.785156 20.4375 L 68.552734 15.027344 A 1.0001 1.0001 0 0 0 66.960938 15.947266 L 68.029297 24.912109 L 65.351562 22.908203 A 1 1 0 0 0 65.279297 22.875 A 1 1 0 0 0 65.060547 22.769531 A 1 1 0 0 0 64.939453 22.736328 A 1 1 0 0 0 64.689453 22.722656 A 1 1 0 0 0 64.582031 22.728516 A 1 1 0 0 0 64.251953 22.841797 L 54.646484 28.388672 C 54.077004 27.877754 53.324438 27.566406 52.5 27.566406 C 51.673679 27.566406 50.922174 27.877989 50.353516 28.388672 L 40.748047 22.841797 A 1 1 0 0 0 40.427734 22.732422 A 1 1 0 0 0 40.34375 22.720703 A 1 1 0 0 0 39.998047 22.740234 A 1 1 0 0 0 39.990234 22.742188 A 1 1 0 0 0 39.683594 22.890625 A 1 1 0 0 0 39.648438 22.908203 L 36.970703 24.912109 L 38.039062 15.947266 A 1.0001 1.0001 0 0 0 36.447266 15.027344 L 29.214844 20.4375 L 30.285156 11.470703 A 1.0001 1.0001 0 0 0 28.693359 10.550781 L 21.462891 15.960938 L 22.53125 6.9941406 A 1.0001 1.0001 0 0 0 21.673828 5.8847656 A 1.0001 1.0001 0 0 0 20.939453 6.0742188 L 16.921875 9.0820312 L 5.2421875 2.3476562 A 1 1 0 0 0 4.7421875 2.2128906 z " />
  <path
     inkscape:connector-curvature="0"
     id="path1279"
     d="m 7.956631,3.2127729 c 0,1.772773 -1.4354621,3.2157981 -3.2142855,3.2157981 C 2.9695723,6.428571 1.52806,4.9915964 1.52806,3.2127729 1.52806,1.4415124 2.963522,0 4.7423455,0 6.5151186,0 7.956631,1.435462 7.956631,3.2127729"
     style="fill:#8cd5ff;fill-rule:evenodd;stroke:none;stroke-width:1" />
  <path
     inkscape:connector-curvature="0"
     id="path7333"
     d="m 103.47194,3.2127768 c 0,1.7727739 -1.43546,3.2157985 -3.21429,3.2157985 -1.772771,0 -3.214283,-1.4369742 -3.214283,-3.2157985 0,-1.7712599 1.435462,-3.212772514286 3.214283,-3.212772514286 1.77278,0 3.21429,1.435462314286 3.21429,3.212772514286"
     style="fill:#ff8c82;fill-rule:evenodd;stroke:none;stroke-width:1" />
  <path
     inkscape:connector-curvature="0"
     id="path7335"
     d="m 55.713756,86.784198 c 0,1.772774 -1.435462,3.215798 -3.214285,3.215798 -1.772774,0 -3.214286,-1.436974 -3.214286,-3.215798 0,-1.77126 1.435462,-3.212773 3.214286,-3.212773 1.772773,0 3.214285,1.435463 3.214285,3.212773"
     style="fill:#d1ff82;fill-rule:evenodd;stroke:none;stroke-width:1" />
</svg>
