<?xml version="1.0" encoding="UTF-8" standalone="no"?>
<svg
   width="89.335541"
   height="100"
   id="svg2"
   sodipodi:version="0.32"
   inkscape:version="1.1.1 (1:1.1+202109281943+c3084ef5ed)"
   sodipodi:docname="WyeBaked.svg"
   version="1.1"
   xmlns:inkscape="http://www.inkscape.org/namespaces/inkscape"
   xmlns:sodipodi="http://sodipodi.sourceforge.net/DTD/sodipodi-0.dtd"
   xmlns="http://www.w3.org/2000/svg"
   xmlns:svg="http://www.w3.org/2000/svg"
   xmlns:rdf="http://www.w3.org/1999/02/22-rdf-syntax-ns#"
   xmlns:cc="http://creativecommons.org/ns#"
   xmlns:dc="http://purl.org/dc/elements/1.1/">
  <metadata
     id="metadata131">
    <rdf:RDF>
      <cc:Work
         rdf:about="">
        <dc:format>image/svg+xml</dc:format>
        <dc:type
           rdf:resource="http://purl.org/dc/dcmitype/StillImage" />
      </cc:Work>
    </rdf:RDF>
  </metadata>
  <sodipodi:namedview
     inkscape:window-height="1379"
     inkscape:window-width="2560"
     inkscape:pageshadow="2"
     inkscape:pageopacity="0.0"
     guidetolerance="10.0"
     gridtolerance="10.0"
     objecttolerance="10.0"
     borderopacity="1.0"
     bordercolor="#666666"
     pagecolor="#ffffff"
     id="base"
     inkscape:zoom="11.313709"
     inkscape:cx="40.835416"
     inkscape:cy="33.543378"
     inkscape:window-x="0"
     inkscape:window-y="30"
     inkscape:current-layer="layer1"
     showgrid="false"
     inkscape:snap-bbox="true"
     inkscape:snap-nodes="true"
     inkscape:bbox-paths="true"
     inkscape:window-maximized="1"
     inkscape:pagecheckerboard="0"
     showguides="false" />
  <defs
     id="defs4">
    <marker
       id="ArrowEnd"
       viewBox="0 0 10 10"
       refX="0"
       refY="5"
       markerUnits="strokeWidth"
       markerWidth="4"
       markerHeight="3"
       orient="auto">
      <path
         d="M 0,0 10,5 0,10 Z"
         id="path7" />
    </marker>
    <marker
       id="ArrowStart"
       viewBox="0 0 10 10"
       refX="10"
       refY="5"
       markerUnits="strokeWidth"
       markerWidth="4"
       markerHeight="3"
       orient="auto">
      <path
         d="M 10,0 0,5 10,10 Z"
         id="path10" />
    </marker>
  </defs>
  <g
     inkscape:groupmode="layer"
     id="layer1"
     inkscape:label="Line">
    <path
       id="path90"
       style="color:#000000;fill:#fafafa;stroke-linecap:round;stroke-linejoin:round;-inkscape-stroke:none"
       d="M 2 0 C 0.89366584 0 0 0.89742888 0 2 C 0 3.1063341 0.89742888 3.9980469 2 3.9980469 C 2.1784105 3.9980469 2.3511102 3.9754473 2.515625 3.9316406 L 11.955078 13.369141 A 1.0001 1.0001 0 0 0 11.957031 13.371094 L 14.140625 15.550781 A 1.0001 1.0001 0 0 0 15.216797 15.771484 L 17.767578 14.753906 L 14.863281 22.011719 A 1.0001 1.0001 0 0 0 16.164062 23.310547 L 23.417969 20.408203 L 20.515625 27.664062 A 1.0001 1.0001 0 0 0 21.816406 28.964844 L 29.072266 26.0625 L 26.169922 33.316406 A 1.0001 1.0001 0 0 0 27.470703 34.617188 L 31.566406 32.978516 L 33.277344 34.693359 A 1.0001 1.0001 0 0 0 33.279297 34.693359 L 42.742188 44.158203 C 42.698791 44.321882 42.667969 44.490799 42.667969 44.667969 C 42.667969 45.401842 43.062949 46.040707 43.650391 46.388672 L 43.648438 55.308594 L 43.646484 59.314453 A 1.0001 1.0001 0 0 0 44.251953 60.234375 L 46.773438 61.318359 L 39.589844 64.396484 A 1.0001 1.0001 0 0 0 39.589844 66.234375 L 46.771484 69.3125 L 39.589844 72.388672 A 1.0001 1.0001 0 0 0 39.589844 74.228516 L 46.771484 77.304688 L 39.589844 80.382812 A 1.0001 1.0001 0 0 0 39.589844 82.220703 L 43.648438 83.958984 L 43.648438 87.300781 L 43.648438 96.279297 C 43.060557 96.627705 42.667969 97.268282 42.667969 98 C 42.667969 99.106334 43.565398 100 44.667969 100 C 45.774303 100 46.666016 99.102571 46.666016 98 C 46.666016 97.251553 46.255277 96.60244 45.648438 96.259766 L 45.648438 87.300781 L 45.648438 83.300781 A 1.0001 1.0001 0 0 0 45.042969 82.380859 L 42.523438 81.302734 L 49.705078 78.224609 A 1.0001 1.0001 0 0 0 49.705078 76.386719 L 42.525391 73.308594 L 49.705078 70.230469 A 1.0001 1.0001 0 0 0 49.705078 68.392578 L 42.523438 65.316406 L 49.705078 62.238281 A 1.0001 1.0001 0 0 0 49.705078 60.400391 L 45.648438 58.65625 L 45.648438 55.310547 A 1.0001 1.0001 0 0 0 45.648438 55.308594 L 45.650391 46.408203 C 46.257283 46.064402 46.666016 45.41387 46.666016 44.667969 C 46.666016 44.478957 46.638818 44.296226 46.589844 44.123047 L 56.019531 34.693359 A 1.0001 1.0001 0 0 0 56.021484 34.693359 L 58.199219 32.509766 A 1.0001 1.0001 0 0 0 58.419922 31.431641 L 57.402344 28.890625 L 64.658203 31.792969 A 1.0001 1.0001 0 0 0 65.957031 30.492188 L 63.054688 23.236328 L 70.310547 26.138672 A 1.0001 1.0001 0 0 0 71.611328 24.839844 L 68.708984 17.583984 L 75.962891 20.486328 A 1.0001 1.0001 0 0 0 77.263672 19.1875 L 75.625 15.085938 L 77.34375 13.371094 A 1.0001 1.0001 0 0 0 77.34375 13.369141 L 86.792969 3.921875 C 86.965998 3.9706852 87.147408 3.9980469 87.335938 3.9980469 C 88.441328 3.9980469 89.335938 3.1025711 89.335938 2 C 89.335938 0.89366584 88.437568 0 87.335938 0 C 86.229602 0 85.337891 0.89742888 85.337891 2 C 85.337891 2.1681028 85.35946 2.3304689 85.398438 2.4863281 L 75.929688 11.955078 L 73.746094 14.136719 A 1.0001 1.0001 0 0 0 73.523438 15.214844 L 74.541016 17.761719 L 67.285156 14.859375 A 1.0001 1.0001 0 0 0 65.984375 16.160156 L 68.888672 23.417969 L 61.630859 20.513672 A 1.0001 1.0001 0 0 0 60.332031 21.814453 L 63.234375 29.068359 L 55.978516 26.167969 A 1.0001 1.0001 0 0 0 54.679688 27.466797 L 56.318359 31.564453 L 54.605469 33.279297 L 45.154297 42.730469 C 44.998193 42.691359 44.836103 42.669922 44.667969 42.669922 C 44.490757 42.669922 44.321703 42.700982 44.158203 42.744141 L 34.693359 33.279297 L 32.515625 31.097656 A 1.0001 1.0001 0 0 0 31.435547 30.875 L 28.894531 31.892578 L 31.794922 24.638672 A 1.0001 1.0001 0 0 0 30.496094 23.337891 L 23.240234 26.240234 L 26.142578 18.984375 A 1.0001 1.0001 0 0 0 24.841797 17.685547 L 17.587891 20.587891 L 20.488281 13.332031 A 1.0001 1.0001 0 0 0 19.189453 12.03125 L 15.085938 13.669922 L 13.369141 11.955078 L 3.9316406 2.515625 C 3.9755946 2.3508556 3.9980469 2.1784991 3.9980469 2 C 3.9980469 0.89366584 3.1025711 0 2 0 z " />
  </g>
</svg>
