<?xml version="1.0" encoding="UTF-8" standalone="no"?>
<svg
   width="95.147629"
   height="84"
   id="svg2"
   sodipodi:version="0.32"
   inkscape:version="1.1.1 (1:1.1+202109281943+c3084ef5ed)"
   sodipodi:docname="WyeBaked.svg"
   version="1.1"
   xmlns:inkscape="http://www.inkscape.org/namespaces/inkscape"
   xmlns:sodipodi="http://sodipodi.sourceforge.net/DTD/sodipodi-0.dtd"
   xmlns="http://www.w3.org/2000/svg"
   xmlns:svg="http://www.w3.org/2000/svg"
   xmlns:rdf="http://www.w3.org/1999/02/22-rdf-syntax-ns#"
   xmlns:cc="http://creativecommons.org/ns#"
   xmlns:dc="http://purl.org/dc/elements/1.1/">
  <metadata
     id="metadata131">
    <rdf:RDF>
      <cc:Work
         rdf:about="">
        <dc:format>image/svg+xml</dc:format>
        <dc:type
           rdf:resource="http://purl.org/dc/dcmitype/StillImage" />
      </cc:Work>
    </rdf:RDF>
  </metadata>
  <sodipodi:namedview
     inkscape:window-height="1379"
     inkscape:window-width="2560"
     inkscape:pageshadow="2"
     inkscape:pageopacity="0.0"
     guidetolerance="10.0"
     gridtolerance="10.0"
     objecttolerance="10.0"
     borderopacity="1.0"
     bordercolor="#666666"
     pagecolor="#ffffff"
     id="base"
     inkscape:zoom="8"
     inkscape:cx="23.5"
     inkscape:cy="32.8125"
     inkscape:window-x="0"
     inkscape:window-y="30"
     inkscape:current-layer="svg2"
     showgrid="false"
     inkscape:snap-bbox="true"
     inkscape:snap-nodes="true"
     inkscape:bbox-paths="true"
     inkscape:window-maximized="1"
     inkscape:pagecheckerboard="0"
     inkscape:bbox-nodes="false"
     inkscape:snap-object-midpoints="true"
     inkscape:snap-center="true"
     inkscape:object-paths="true"
     inkscape:snap-intersection-paths="true" />
  <defs
     id="defs4">
    <marker
       id="ArrowEnd"
       viewBox="0 0 10 10"
       refX="0"
       refY="5"
       markerUnits="strokeWidth"
       markerWidth="4"
       markerHeight="3"
       orient="auto">
      <path
         d="M 0,0 10,5 0,10 Z"
         id="path7" />
    </marker>
    <marker
       id="ArrowStart"
       viewBox="0 0 10 10"
       refX="10"
       refY="5"
       markerUnits="strokeWidth"
       markerWidth="4"
       markerHeight="3"
       orient="auto">
      <path
         d="M 10,0 0,5 10,10 Z"
         id="path10" />
    </marker>
  </defs>
  <path
     id="path1293"
     style="color:#000000;fill:#fafafa;stroke:none;stroke-width:2;stroke-linecap:round;stroke-linejoin:round;-inkscape-stroke:none"
     d="M 3 0 C 1.3397646 -2.9605947e-16 0 1.3448704 0 2.9980469 C 0 4.6582823 1.3454116 6 3 6 C 3.7458303 6 4.4270976 5.7286993 4.9511719 5.2792969 L 13.919922 10.451172 A 1.0000286 0.99997487 0.00104668 0 0 13.921875 10.453125 A 1.0000286 0.99997487 0.00104668 0 0 13.925781 10.455078 L 13.933594 10.458984 A 1.0000286 0.99997487 0.00104668 0 0 14.263672 10.572266 A 1.0000286 0.99997487 0.00104668 0 0 14.365234 10.578125 A 1.0000286 0.99997487 0.00104668 0 0 14.619141 10.566406 A 1.0000286 0.99997487 0.00104668 0 0 14.742188 10.53125 A 1.0000286 0.99997487 0.00104668 0 0 14.960938 10.427734 A 1.0000286 0.99997487 0.00104668 0 0 15.033203 10.392578 L 17.40625 8.6171875 L 16.427734 16.830078 A 1.0001286 1.0000748 0.00104668 0 0 18.019531 17.75 L 24.646484 12.792969 L 23.664062 21.007812 A 1.0001286 1.0000748 0.00104668 0 0 25.255859 21.927734 L 31.880859 16.970703 L 30.900391 25.1875 A 1.0001286 1.0000748 0.00104668 0 0 32.494141 26.105469 L 36.208984 23.324219 L 44.625 28.183594 C 44.592531 28.360329 44.574219 28.54251 44.574219 28.728516 C 44.574219 30.037032 45.410053 31.144926 46.574219 31.556641 L 46.574219 42.333984 A 1.0000286 0.99997488 0 0 0 46.638672 42.671875 A 1.0000286 0.99997488 0 0 0 46.693359 42.78125 A 1.0000286 0.99997488 0 0 0 46.824219 42.982422 A 1.0000286 0.99997488 0 0 0 46.914062 43.072266 A 1.0000286 0.99997488 0 0 0 47.113281 43.208984 A 1.0000286 0.99997488 0 0 0 47.179688 43.253906 L 49.910156 44.423828 L 42.308594 47.679688 A 1.0001286 1.0000748 0 0 0 42.308594 49.517578 L 49.912109 52.775391 L 42.308594 56.035156 A 1.0001286 1.0000748 0 0 0 42.308594 57.871094 L 49.912109 61.128906 L 42.308594 64.388672 A 1.0001286 1.0000748 0 0 0 42.308594 66.226562 L 46.578125 68.056641 L 46.574219 78.169922 C 45.407344 78.581731 44.574219 79.694077 44.574219 80.998047 C 44.574219 82.658283 45.91963 84 47.574219 84 C 49.234454 84 50.574219 82.652636 50.574219 80.998047 C 50.574219 79.691155 49.737672 78.583554 48.574219 78.171875 L 48.578125 67.396484 A 1.0000286 0.99997488 0 0 0 48.576172 67.353516 A 1.0000286 0.99997488 0 0 0 48.574219 67.314453 A 1.0000286 0.99997488 0 0 0 48.511719 67.044922 A 1.0000286 0.99997488 0 0 0 48.490234 66.992188 A 1.0000286 0.99997488 0 0 0 48.460938 66.929688 A 1.0000286 0.99997488 0 0 0 48.423828 66.863281 A 1.0000286 0.99997488 0 0 0 48.353516 66.767578 A 1.0000286 0.99997488 0 0 0 48.324219 66.732422 A 1.0000286 0.99997488 0 0 0 48.261719 66.667969 A 1.0000286 0.99997488 0 0 0 48.201172 66.615234 A 1.0000286 0.99997488 0 0 0 47.994141 66.488281 A 1.0000286 0.99997488 0 0 0 47.970703 66.476562 L 45.240234 65.306641 L 52.84375 62.048828 A 1.0001286 1.0000748 0 0 0 52.84375 60.210938 L 45.240234 56.951172 L 52.84375 53.695312 A 1.0001286 1.0000748 0 0 0 52.84375 51.857422 L 45.240234 48.597656 L 52.84375 45.339844 A 1.0001286 1.0000748 0 0 0 52.84375 43.503906 L 48.574219 41.673828 L 48.574219 31.558594 C 49.740874 31.146245 50.574219 30.033443 50.574219 28.728516 C 50.574219 28.542273 50.55589 28.360348 50.523438 28.183594 L 58.939453 23.324219 L 62.654297 26.105469 A 1.0000748 1.0001286 89.998953 0 0 64.246094 25.1875 L 63.267578 16.970703 L 69.890625 21.927734 A 1.0000748 1.0001286 89.998953 0 0 71.484375 21.007812 L 70.501953 12.792969 L 77.126953 17.75 A 1.0000748 1.0001286 89.998953 0 0 78.720703 16.830078 L 77.742188 8.6171875 L 80.115234 10.392578 A 0.99997487 1.0000286 89.998953 0 0 80.378906 10.533203 A 0.99997487 1.0000286 89.998953 0 0 80.410156 10.542969 A 0.99997487 1.0000286 89.998953 0 0 80.53125 10.574219 A 0.99997487 1.0000286 89.998953 0 0 80.544922 10.578125 A 0.99997487 1.0000286 89.998953 0 0 80.677734 10.591797 A 0.99997487 1.0000286 89.998953 0 0 80.742188 10.589844 A 0.99997487 1.0000286 89.998953 0 0 80.857422 10.582031 A 0.99997487 1.0000286 89.998953 0 0 80.863281 10.580078 A 0.99997487 1.0000286 89.998953 0 0 81.15625 10.490234 A 0.99997487 1.0000286 89.998953 0 0 81.171875 10.480469 A 0.99997487 1.0000286 89.998953 0 0 81.214844 10.458984 L 90.197266 5.2773438 C 90.722179 5.7273514 91.403899 6 92.148438 6 C 93.808673 6 95.148438 4.652636 95.148438 2.9980469 C 95.148437 1.3392239 93.803026 0 92.148438 0 C 90.488202 -2.9605947e-16 89.148438 1.3448709 89.148438 2.9980469 C 89.148438 3.1847735 89.164702 3.3677213 89.197266 3.5449219 L 80.785156 8.3964844 L 77.070312 5.6171875 A 1.0000748 1.0001286 89.998953 0 0 75.478516 6.5351562 L 76.457031 14.75 L 69.832031 9.7949219 A 1.0000748 1.0001286 89.998953 0 0 68.242188 10.714844 L 69.220703 18.927734 L 62.595703 13.972656 A 1.0000748 1.0001286 89.998953 0 0 61.005859 14.892578 L 61.984375 23.105469 L 59.607422 21.328125 A 0.99997487 1.0000286 89.998953 0 0 59.546875 21.298828 A 0.99997487 1.0000286 89.998953 0 0 59.310547 21.185547 A 0.99997487 1.0000286 89.998953 0 0 59.203125 21.158203 A 0.99997487 1.0000286 89.998953 0 0 58.939453 21.142578 A 0.99997487 1.0000286 89.998953 0 0 58.839844 21.148438 A 0.99997487 1.0000286 89.998953 0 0 58.509766 21.261719 L 49.523438 26.449219 C 48.998826 26.000808 48.317691 25.728516 47.574219 25.728516 C 46.829212 25.728516 46.148842 26.001145 45.625 26.449219 L 36.638672 21.261719 A 1.0000286 0.99997487 0.00104668 0 0 36.308594 21.148438 A 1.0000286 0.99997487 0.00104668 0 0 36.208984 21.142578 A 1.0000286 0.99997487 0.00104668 0 0 35.943359 21.158203 A 1.0000286 0.99997487 0.00104668 0 0 35.835938 21.185547 A 1.0000286 0.99997487 0.00104668 0 0 35.597656 21.300781 A 1.0000286 0.99997487 0.00104668 0 0 35.541016 21.328125 L 33.164062 23.105469 L 34.142578 14.892578 A 1.0001286 1.0000748 0.00104668 0 0 32.550781 13.972656 L 25.927734 18.927734 L 26.90625 10.714844 A 1.0001286 1.0000748 0.00104668 0 0 25.314453 9.7949219 L 18.689453 14.75 L 19.669922 6.5351562 A 1.0001286 1.0000748 0.00104668 0 0 18.076172 5.6171875 L 14.363281 8.3964844 L 5.9492188 3.5449219 C 5.9817782 3.3677943 6 3.1844751 6 2.9980469 C 6 1.3392233 4.6545883 0 3 0 z " />
</svg>
