    <svg
      xmlns="http://www.w3.org/2000/svg"
      width="89.336"
      height="100"
      version="1.1"
    >
      <defs>
        <marker
          markerHeight="3"
          markerUnits="strokeWidth"
          markerWidth="4"
          orient="auto"
          refX="0"
          refY="5"
          viewBox="0 0 10 10"
        >
          <path d="M0 0l10 5-10 5z"></path>
        </marker>
        <marker
          markerHeight="3"
          markerUnits="strokeWidth"
          markerWidth="4"
          orient="auto"
          refX="10"
          refY="5"
          viewBox="0 0 10 10"
        >
          <path d="M10 0L0 5l10 5z"></path>
        </marker>
      </defs>
      <g>
        <path
          fill="#fafafa"
          strokeLinecap="round"
          strokeLinejoin="round"
          d="M2 0a2 2 0 10.516 3.932l9.44 9.437a1 1 0 00.001.002l2.184 2.18a1 1 0 001.076.22l2.55-1.017-2.904 7.258a1 1 0 001.301 1.299l7.254-2.903-2.902 7.256a1 1 0 001.3 1.3l7.256-2.901-2.902 7.253a1 1 0 001.3 1.301l4.096-1.638 1.711 1.714a1 1 0 00.002 0l9.463 9.465a1.979 1.979 0 00-.074.51c0 .734.395 1.373.982 1.72l-.002 8.92-.002 4.006a1 1 0 00.606.92l2.521 1.084-7.183 3.078a1 1 0 000 1.838l7.181 3.079-7.181 3.076a1 1 0 000 1.84l7.181 3.076-7.181 3.078a1 1 0 000 1.838l4.058 1.738v12.32A2 2 0 1046.666 98c0-.747-.41-1.397-1.018-1.74V83.302a1 1 0 00-.605-.92l-2.52-1.078 7.182-3.078a1 1 0 000-1.838l-7.18-3.078 7.18-3.079a1 1 0 000-1.837l-7.182-3.077 7.182-3.078a1 1 0 000-1.838l-4.057-1.744v-3.345a1 1 0 000-.002l.002-8.9a1.998 1.998 0 00.94-2.286l9.43-9.43a1 1 0 00.001 0L58.2 32.51a1 1 0 00.22-1.078l-1.017-2.541 7.256 2.902a1 1 0 001.299-1.3l-2.902-7.257 7.256 2.903a1 1 0 001.3-1.3l-2.902-7.255 7.254 2.902a1 1 0 001.3-1.299l-1.638-4.101 1.719-1.715a1 1 0 000-.002l9.449-9.447a2 2 0 10-1.395-1.436l-9.468 9.47-2.184 2.18a1 1 0 00-.223 1.079l1.018 2.547-7.256-2.903a1 1 0 00-1.3 1.301l2.904 7.258-7.258-2.904a1 1 0 00-1.299 1.3l2.902 7.254-7.255-2.9a1 1 0 00-1.3 1.299l1.64 4.097-1.714 1.715-9.45 9.451a1.994 1.994 0 00-.487-.06c-.177 0-.346.031-.51.074l-9.465-9.465-2.177-2.181a1 1 0 00-1.08-.223l-2.541 1.018 2.9-7.254a1 1 0 00-1.299-1.301L23.24 26.24l2.903-7.256a1 1 0 00-1.301-1.298l-7.254 2.902 2.9-7.256a1 1 0 00-1.299-1.3l-4.103 1.638-1.717-1.715-9.437-9.44A1.998 1.998 0 002 0z"
          color="#000"
        ></path>
      </g>
    </svg>