<svg
      xmlns="http://www.w3.org/2000/svg"
      width="95.148"
      height="84"
      version="1.1"
    >
      <defs>
        <marker
          markerHeight="3"
          markerUnits="strokeWidth"
          markerWidth="4"
          orient="auto"
          refX="0"
          refY="5"
          viewBox="0 0 10 10"
        >
          <path d="M0 0l10 5-10 5z"></path>
        </marker>
        <marker
          markerHeight="3"
          markerUnits="strokeWidth"
          markerWidth="4"
          orient="auto"
          refX="10"
          refY="5"
          viewBox="0 0 10 10"
        >
          <path d="M10 0L0 5l10 5z"></path>
        </marker>
      </defs>
      <path
        fill="#fafafa"
        stroke="none"
        strokeLinecap="round"
        strokeLinejoin="round"
        strokeWidth="2"
        d="M3 0a3.001 3.001 0 101.951 5.28l8.969 5.171a1 1 .001 00.002.002 1 1 .001 00.004.002l.008.004a1 1 .001 00.33.113 1 1 .001 00.101.006 1 1 .001 00.254-.012 1 1 .001 00.123-.035 1 1 .001 00.219-.103 1 1 .001 00.072-.035l2.373-1.776-.978 8.213a1 1 .001 001.592.92l6.626-4.957-.982 8.215a1 1 .001 001.592.92l6.625-4.957-.98 8.216a1 1 .001 001.593.918l3.715-2.78 8.416 4.859a2.999 2.999 0 001.95 3.373v10.777a1 1 0 00.064.338 1 1 0 00.054.11 1 1 0 00.131.2 1 1 0 00.09.09 1 1 0 00.2.137 1 1 0 00.066.045l2.73 1.17-7.601 3.256a1 1 0 000 1.838l7.603 3.257-7.603 3.26a1 1 0 000 1.836l7.603 3.258-7.603 3.26a1 1 0 000 1.838l4.27 1.83-.005 10.113a3.001 3.001 0 104 2.828 2.999 2.999 0 00-2-2.826l.004-10.776a1 1 0 00-.002-.042 1 1 0 00-.002-.04 1 1 0 00-.062-.27 1 1 0 00-.022-.052 1 1 0 00-.03-.062 1 1 0 00-.036-.067 1 1 0 00-.07-.095 1 1 0 00-.03-.036 1 1 0 00-.062-.064 1 1 0 00-.06-.053 1 1 0 00-.208-.127 1 1 0 00-.023-.011l-2.73-1.17 7.603-3.258a1 1 0 000-1.838l-7.604-3.26 7.604-3.256a1 1 0 000-1.838l-7.604-3.26 7.604-3.257a1 1 0 000-1.836l-4.27-1.83V31.559a3.002 3.002 0 001.95-3.375l8.415-4.86 3.715 2.781a1 1 89.999 001.592-.918l-.978-8.216 6.623 4.957a1 1 89.999 001.593-.92l-.982-8.215 6.625 4.957a1 1 89.999 001.594-.92l-.979-8.213 2.373 1.776a1 1 89.999 00.264.14 1 1 89.999 00.031.01 1 1 89.999 00.121.031 1 1 89.999 00.014.004 1 1 89.999 00.133.014 1 1 89.999 00.064-.002 1 1 89.999 00.115-.008 1 1 89.999 00.006-.002 1 1 89.999 00.293-.09 1 1 89.999 00.016-.01 1 1 89.999 00.043-.021l8.982-5.182a3.001 3.001 0 10-1-1.732l-8.412 4.851-3.715-2.779a1 1 89.999 00-1.591.918l.978 8.215-6.625-4.955a1 1 89.999 00-1.59.92l.979 8.213-6.625-4.955a1 1 89.999 00-1.59.92l.978 8.212-2.377-1.777a1 1 89.999 00-.06-.03 1 1 89.999 00-.236-.112 1 1 89.999 00-.108-.028 1 1 89.999 00-.264-.015 1 1 89.999 00-.1.005 1 1 89.999 00-.33.114l-8.986 5.187a2.992 2.992 0 00-3.898 0l-8.986-5.187a1 1 .001 00-.33-.114 1 1 .001 00-.1-.005 1 1 .001 00-.266.015 1 1 .001 00-.107.028 1 1 .001 00-.238.115 1 1 .001 00-.057.027l-2.377 1.777.979-8.212a1 1 .001 00-1.592-.92l-6.623 4.955.978-8.213a1 1 .001 00-1.592-.92L18.69 14.75l.98-8.215a1 1 .001 00-1.593-.918l-3.713 2.78L5.95 3.544A2.999 2.999 0 003 0z"
        color="#000"
      ></path>
    </svg>