<svg
      xmlns="http://www.w3.org/2000/svg"
      width="105"
      height="90"
      version="1.1"
    >
      <defs>
        <marker
          markerHeight="3"
          markerUnits="strokeWidth"
          markerWidth="4"
          orient="auto"
          refX="0"
          refY="5"
          viewBox="0 0 10 10"
        >
          <path d="M0 0l10 5-10 5z"></path>
        </marker>
        <marker
          markerHeight="3"
          markerUnits="strokeWidth"
          markerWidth="4"
          orient="auto"
          refX="10"
          refY="5"
          viewBox="0 0 10 10"
        >
          <path d="M10 0L0 5l10 5z"></path>
        </marker>
      </defs>
      <path
        fill="#fafafa"
        strokeLinecap="round"
        strokeLinejoin="round"
        d="M4.742 0A3.214 3.214 0 106.89 5.605l9.588 5.532a1 1 0 00.013.006l.002.002a1 1 0 00.324.113 1 1 0 00.123.006 1 1 0 00.237-.012 1 1 0 00.13-.035 1 1 0 00.204-.098 1 1 0 00.082-.039l2.678-2.004-1.069 8.965a1 1 0 001.592.92l7.23-5.41-1.07 8.967a1 1 0 001.592.92l7.232-5.41-1.07 8.966a1 1 0 001.592.918l4.021-3.008 9.034 5.217a3.215 3.215 0 002.146 3.715v11.521a1 1 0 00.064.338 1 1 0 00.059.116 1 1 0 00.123.189 1 1 0 00.1.1 1 1 0 00.187.129 1 1 0 00.072.048l3.079 1.319-8.3 3.556a1 1 0 000 1.838l8.302 3.557-8.301 3.555a1 1 0 000 1.84l8.3 3.554-8.3 3.557a1 1 0 000 1.838l4.619 1.978L51.5 83.73a3.215 3.215 0 001 6.27 3.213 3.213 0 003.213-3.215A3.213 3.213 0 0053.5 83.73l.004-11.521a1 1 0 00-.002-.035 1 1 0 00-.004-.059 1 1 0 00-.02-.127 1 1 0 000-.002 1 1 0 00-.117-.289 1 1 0 00-.006-.01 1 1 0 00-.32-.324 1 1 0 00-.012-.006 1 1 0 00-.177-.087l-3.028-1.297 8.3-3.557a1 1 0 000-1.838l-8.298-3.557 8.297-3.556a1 1 0 000-1.838l-8.299-3.557 8.3-3.556a1 1 0 000-1.838L53.5 44.697v-10.86a3.22 3.22 0 002.146-3.716l9.034-5.217 4.021 3.008a1 1 0 001.592-.918l-1.07-8.967 7.232 5.41a1 1 0 001.592-.92l-1.07-8.966 7.23 5.41a1 1 0 001.592-.92L84.73 9.076l2.678 2.004a1 1 0 00.082.04 1 1 0 00.203.097 1 1 0 00.131.035 1 1 0 00.237.012 1 1 0 00.123-.006 1 1 0 00.324-.113l.002-.002a1 1 0 00.013-.006l9.588-5.532a3.214 3.214 0 10-1-1.732l-9.033 5.209-4.017-3.006a1 1 0 00-1.1-.066 1 1 0 00-.492.984l1.068 8.967-7.23-5.41a1 1 0 00-1.592.92l1.07 8.966-7.232-5.41a1 1 0 00-1.592.92l1.068 8.965-2.677-2.004a1 1 0 00-.073-.033 1 1 0 00-.218-.105 1 1 0 00-.122-.034 1 1 0 00-.25-.013 1 1 0 00-.107.006 1 1 0 00-.33.113l-9.606 5.547a3.205 3.205 0 00-2.146-.823 3.2 3.2 0 00-2.146.823l-9.606-5.547a1 1 0 00-.32-.11 1 1 0 00-.084-.011 1 1 0 00-.346.02 1 1 0 00-.008.001 1 1 0 00-.306.149 1 1 0 00-.036.017l-2.677 2.004 1.068-8.965a1 1 0 00-1.592-.92l-7.232 5.41 1.07-8.966a1 1 0 00-1.592-.92l-7.23 5.41 1.068-8.967a1 1 0 00-.857-1.11 1 1 0 00-.735.19l-4.017 3.008-9.035-5.209A3.214 3.214 0 004.742 0z"
        color="#000"
      ></path>
    </svg>